<?xml version="1.0" standalone="no"?>
<!DOCTYPE svg PUBLIC "-//W3C//DTD SVG 1.1//EN" "http://www.w3.org/Graphics/SVG/1.1/DTD/svg11.dtd" >
<svg xmlns="http://www.w3.org/2000/svg">
<metadata></metadata>
<defs>
<font id="dirty_bakers_dozenregular" horiz-adv-x="1628" >
<font-face units-per-em="2048" ascent="1434" descent="-614" />
<missing-glyph horiz-adv-x="851" />
<glyph unicode="&#x28;C&#x29;" horiz-adv-x="1615" d="M80 668q0 135 48 257t132 218t196.5 160.5t241.5 85.5q20 0 35 -18.5t15 -86.5q0 -14 -10.5 -26.5t-24.5 -16.5q-102 -16 -191.5 -66.5t-155 -127t-103.5 -173.5t-38 -206q0 -113 40 -213.5t108.5 -179t163 -129t204.5 -62.5q16 -2 27.5 -22.5t11.5 -81.5q0 -23 -14 -33 t-33 -10q-137 14 -257 76.5t-208 159.5t-138 224t-50 271zM473 586v155l8 23q16 51 48 96t72 80t84 55.5t81 20.5q16 0 27.5 -11.5t11.5 -64.5q0 -35 -9.5 -53.5t-19.5 -42t-19 -62.5t-9 -114q0 -25 2 -59t6 -66q4 -37 10 -78v-135q-14 -10 -33 -11q-37 0 -82 28t-85 68 t-66.5 87t-26.5 84zM866 397q0 8 7.5 24.5t16.5 36t19.5 38t16.5 32.5q35 72 69.5 95.5t57.5 23.5q57 0 57 -84q0 -66 -28.5 -123t-67.5 -78l-21 -12q-41 -20 -78 -20h-16q-33 8 -33 67zM887 47q0 14 9 26.5t26 14.5q100 20 188 74.5t151.5 131.5t100.5 173.5t37 200.5 t-36 198.5t-98.5 169t-147.5 128t-185 73.5q-14 4 -24.5 24.5t-10.5 79.5q0 23 15.5 33t37.5 10q125 -25 233.5 -90t188.5 -160.5t126 -214t46 -251.5q0 -135 -46 -257t-128 -218.5t-192.5 -162t-241.5 -87.5q-10 0 -19.5 3t-15.5 13t-10 31.5t-4 56.5zM907 963v20 q12 0 35 4t48.5 9t48 9.5t34.5 4.5q31 0 49.5 -15.5t18.5 -40.5v-131q-20 -88 -70 -88q-27 0 -55.5 22.5t-53 57.5t-40 74t-15.5 74z" />
<glyph unicode="&#x28;R&#x29;" horiz-adv-x="1378" d="M74 784q0 117 41 220.5t112.5 184.5t168 133t206.5 69h6q16 0 28.5 -19.5t12.5 -71.5q0 -16 -10 -28t-25 -15q-84 -12 -157.5 -54t-128 -104.5t-86 -143.5t-31.5 -171q0 -88 30.5 -167.5t85 -142t128 -104.5t159.5 -57q14 -2 24.5 -21.5t10.5 -72.5q0 -20 -12 -31.5 t-29 -11.5h-6q-113 14 -209 68.5t-166.5 135.5t-111.5 184t-41 220zM428 1040q0 25 23 39h155l39 -30v-347q39 -117 39 -137v-8h-209q-20 0 -32.5 13.5t-12.5 23.5q0 8 6 23.5t15 31.5q8 18 20 39v242q0 2 -7 16.5t-14.5 32.5t-14.5 35.5t-7 25.5zM711 823v9.5t2 11.5 q27 16 44 27.5t25.5 20.5t11.5 19.5t3 24.5q0 10 -13.5 25.5t-30 31t-29.5 29.5t-13 27q0 10 2 12l88 6q23 0 40 1t29 1q10 0 31 -12.5t41.5 -31.5t35.5 -44t15 -51q0 -33 -30 -64l-35 -37q2 -18 8 -45.5t17.5 -56.5t31.5 -56.5t51 -43.5q-2 -96 -108 -97q-37 0 -58.5 5.5 t-36 24t-24.5 54t-29 97.5q-2 8 -13 20t-23.5 26.5t-22.5 31t-10 34.5zM741 274q0 33 35 43q82 16 153.5 59.5t124 106t83 139t30.5 162.5q0 88 -30.5 166t-83 140.5t-124 104.5t-153.5 58q-16 4 -25.5 21.5t-9.5 71.5q0 18 11.5 30.5t29.5 12.5h6q106 -20 200.5 -74.5 t163.5 -134.5t108.5 -181.5t39.5 -214.5t-38.5 -214t-107.5 -181t-162 -135t-204 -74h-6q-18 0 -29.5 19.5t-11.5 74.5z" />
<glyph horiz-adv-x="0" />
<glyph unicode="&#xd;" horiz-adv-x="909" />
<glyph horiz-adv-x="909" />
<glyph unicode=" "  horiz-adv-x="851" />
<glyph unicode="&#x09;" horiz-adv-x="851" />
<glyph unicode="&#xa0;" horiz-adv-x="851" />
<glyph unicode="!" horiz-adv-x="612" d="M74 1071q0 55 15 104.5t43 87t67 59t86 21.5q102 0 163.5 -51t61.5 -135q0 -41 -7 -92t-19.5 -108.5t-27 -117t-28.5 -114.5q-4 -31 -12 -88t-22.5 -113.5t-34 -98.5t-46.5 -42q-23 0 -38 13.5t-30.5 49t-32.5 98t-40 161.5l-59 180q-18 55 -28.5 101t-10.5 85zM152 127 q0 27 18 53.5t44 49t55.5 37t54.5 14.5q27 0 52 -13.5t44.5 -35t31 -49t11.5 -54.5q0 -154 -139 -154q-172 0 -172 152z" />
<glyph unicode="&#x22;" horiz-adv-x="899" d="M78 1339q0 45 13 74t36 45.5t51.5 22.5t57.5 6q70 0 104.5 -46t34.5 -120q0 -82 -9.5 -167t-28 -154.5t-46 -113.5t-64.5 -44t-64.5 41t-46 109.5t-28.5 158.5t-10 188zM529 1339q0 45 13 74t36 45.5t51.5 22.5t57.5 6q70 0 104.5 -46t34.5 -120q0 -82 -9.5 -167 t-28 -154.5t-46 -113.5t-64.5 -44t-64.5 41t-46 109.5t-28.5 158.5t-10 188z" />
<glyph unicode="#" horiz-adv-x="1134" d="M39 387v78q0 23 6 31t25 8q57 0 98 24.5t71.5 69.5t53 109.5t39.5 144.5q0 4 1 7t1 7q0 18 -27 19h-131q-12 0 -21.5 3t-16.5 13t-10 32.5t-3 61.5q0 29 15.5 39t52.5 10q68 0 104.5 3.5t55 8.5t23.5 12t7 15q18 80 23.5 137.5t11.5 93.5t19.5 53t43.5 17q41 0 50.5 -8 t9.5 -14q0 -14 -4.5 -31.5t-8.5 -52.5l-34 -199q0 -14 3 -25.5t25 -11.5q4 0 6 1t7 1h178q25 0 35 45.5t18 103.5t16.5 112.5t30.5 72.5h10q4 0 15.5 2t23.5 2q18 0 33.5 -7t15.5 -29l-14 -70q-20 -80 -20 -127q0 -55 25.5 -71.5t56 -21.5t58 -14.5t32.5 -50.5v-80 q0 -18 -20.5 -23t-49.5 -5q-20 0 -39.5 1t-42.5 1q-25 0 -48.5 -7.5t-42 -37t-28.5 -90t-10 -168.5q0 -64 80 -78q16 0 30.5 1t28.5 1q20 0 40 -6t20 -23v-80q0 -31 -7.5 -41t-27.5 -10q-10 0 -19.5 1t-21.5 3q-66 -2 -104.5 -27.5t-61.5 -65.5t-33 -85t-20 -84t-24.5 -64.5 t-43.5 -25.5q-51 0 -51 31q0 61 8 108t19.5 83t19.5 60.5t8 41.5q0 29 -22 28h-191q-20 0 -33.5 -28.5t-24.5 -72.5t-19.5 -96.5t-18.5 -99.5q-14 -49 -98 -51q-18 0 -19 21q0 20 8.5 58t19.5 80t19.5 82t8.5 66q0 29 -13.5 35t-29.5 6h-25q-45 0 -71.5 2t-40 7.5 t-16.5 11.5t-3 16zM377 543q0 -23 22.5 -35t51 -17.5t58.5 -6.5t42 -1q29 0 57.5 13.5t38.5 38.5q12 88 21.5 134t15.5 70.5t10 38t4 33.5q0 51 -19.5 64.5t-25.5 13.5q-57 0 -94 -1t-58.5 -3t-31.5 -5t-12 -8q-16 -23 -30.5 -63.5t-25 -87.5t-17.5 -94t-7 -84z" />
<glyph unicode="$" horiz-adv-x="1171" d="M63 829q0 53 29 107.5t76 97.5t104.5 69.5t116.5 26.5q23 0 47.5 -23.5t32.5 -72.5q6 -49 11 -78.5t12.5 -46t19.5 -24.5t37 -17q20 -8 69.5 -15t111 -19.5t126 -34t117.5 -57t88 -91t35 -135.5q0 -84 -81 -165t-235 -115q-39 0 -61 88q-16 66 -31.5 105.5t-35 61 t-42 30.5t-49.5 16q-39 8 -91 17t-107.5 22.5t-108.5 34t-96 50t-69 70.5t-26 98zM84 354q0 53 22.5 88t63.5 35q25 0 79 -26.5t111.5 -63.5t104.5 -76.5t55 -64.5q-18 2 -35.5 2h-40.5q-72 0 -151.5 -3t-167.5 -12q-23 16 -32 47t-9 74zM461 1237q0 96 34.5 133t75.5 37 q33 0 58.5 -14.5t44 -37t28 -49t9.5 -53.5q0 -49 -38 -83.5t-110 -34.5q-41 0 -71.5 24.5t-30.5 77.5zM485 78q0 98 35 133t76 35q80 0 123 -80q6 -20 11 -37.5t5 -34.5q0 -51 -38 -85t-109 -34q-43 0 -73 25t-30 78zM639 1053v57q72 -2 109.5 -3t48.5 -1q51 0 86 8t67 8 q41 0 66.5 -35t25.5 -86q0 -49 -32.5 -69.5t-73.5 -20.5q-25 0 -50.5 9.5t-59 28t-79 44t-108.5 60.5z" />
<glyph unicode="%" horiz-adv-x="1777" d="M43 975v151q0 2 6 19q12 39 36 80t52.5 72.5t59 52t59.5 20.5q49 0 49 -57q0 -31 -14 -90q-10 -59 -15.5 -89t-5.5 -34v-115q2 0 6.5 -21.5t10.5 -57.5t12 -82t12 -93q-10 -8 -20 -14t-25 -6q-33 0 -71.5 27.5t-72.5 67.5t-56.5 86t-22.5 83zM305 14q0 37 37 90l60 86 q25 33 54.5 87.5t70.5 132.5q51 92 115.5 191t135 200.5t142 204t137.5 204.5q117 205 209 205q18 0 48 -12.5t30 -28.5q0 -31 -19.5 -65.5t-56.5 -77.5l-76 -94q-10 -12 -51 -71.5t-94 -140.5t-107.5 -172t-93.5 -165q-31 -57 -56.5 -100.5t-51 -81t-53 -78.5t-60.5 -97 l-74 -120q-35 -59 -91 -98.5t-105 -39.5t-50 41zM412 1358q113 -20 181.5 -110.5t68.5 -217.5q0 -121 -60.5 -204t-163.5 -105q-12 14 -12 65q0 10 2 40t6 63q4 37 8 82zM1049 252v151q0 2 6 19q12 39 36 80t52.5 72.5t59 52t59.5 20.5q49 0 49 -57q0 -31 -14 -90 q-10 -59 -15.5 -89t-5.5 -34v-115q2 0 6.5 -21.5t10.5 -57.5t12 -82t12 -93q-10 -8 -20 -14t-25 -6q-33 0 -71.5 27.5t-72.5 67.5t-56.5 86t-22.5 83zM1418 635q113 -20 181.5 -110.5t68.5 -217.5q0 -121 -60.5 -204t-163.5 -105q-12 14 -12 65q0 10 2 40t6 63q4 37 8 82z " />
<glyph unicode="&#x26;" horiz-adv-x="1849" d="M115 270q0 51 13 102.5t37.5 96.5t58.5 80t75 57l51 -16q25 -8 48.5 -39t47 -71t49 -83t56.5 -75l168 -185q24 -24 24 -102q-49 -53 -106 -53h-270q-53 0 -99.5 23.5t-80 62t-53 91t-19.5 111.5zM426 1006q0 240 266 340q14 -121 70.5 -246t139.5 -242t184.5 -219 t208 -178t210 -120t191.5 -44q70 0 123 27q-6 -43 -34 -95.5t-70 -96.5t-91 -74.5t-94 -30.5h-225q-4 0 -20.5 7t-47.5 17q-96 37 -194.5 101.5t-188.5 145.5t-168 172t-136 185.5t-91 184.5t-33 166zM1004 1241q0 121 81 121q31 0 56.5 -20.5t44 -53.5t30 -71.5t11.5 -77.5 q0 -150 -121 -162q-102 49 -102 264zM1315 745q0 27 33.5 61t81 62.5t97.5 49t81 20.5q27 0 62.5 -19.5t67 -48t53 -62.5t21.5 -63q0 -25 -11 -49t-28.5 -44.5t-39 -34t-43.5 -13.5q-45 0 -109.5 12.5t-123 33t-100.5 46t-42 49.5z" />
<glyph unicode="'" horiz-adv-x="450" d="M78 1339q0 45 13 74t36 45.5t51.5 22.5t57.5 6q70 0 104.5 -46t34.5 -120q0 -82 -9.5 -167t-28 -154.5t-46 -113.5t-64.5 -44t-64.5 41t-46 109.5t-28.5 158.5t-10 188z" />
<glyph unicode="(" horiz-adv-x="751" d="M49 649q0 137 32 257t90 209t141 140.5t184 51.5q68 0 139 -25q-4 -6 -41 -54t-82 -111.5t-81 -128t-36 -103.5v-422q0 -35 31 -123q18 -57 27.5 -88t28 -55.5t55 -55t110.5 -88.5q6 -17 6 -78q-53 -6 -96 -6q-117 0 -211 51.5t-159.5 142.5t-101.5 216t-36 270z" />
<glyph unicode=")" horiz-adv-x="645" d="M4 -25q0 63 8 78q35 29 75 64t87 76q8 12 22.5 52t30 85t26.5 84t11 49v422q0 25 -17.5 62.5t-44 80.5t-57 86t-57.5 80t-45 60.5t-20 27.5q70 25 139 25q100 0 183 -52.5t141.5 -141.5t90 -209t31.5 -255q0 -145 -35.5 -270t-101 -216t-160 -142.5t-211.5 -51.5 q-47 0 -96 6z" />
<glyph unicode="*" horiz-adv-x="1290" d="M37 905q0 31 41 33l381 39q8 35 17 75t22 87q8 14 25.5 51t38 76t41 67.5t32.5 28.5q20 0 39 -31l151 -330l379 -43q41 -1 41 -32q0 -27 -48 -76t-107 -109l-148 -106l96 -371q2 -4 2 -16q0 -33 -32 -33q-12 0 -27 8l-330 195q-31 -25 -111.5 -77t-211.5 -130 q-8 -8 -27 -8q-35 0 -35 33q0 10 2 18l84 373q-82 53 -295 241q-20 14 -20 37z" />
<glyph unicode="+" horiz-adv-x="1140" d="M90 618q0 178 277 179h106q2 41 2 73.5v44.5q0 23 -5 68t-5 68q0 41 23.5 61.5t84.5 20.5q29 0 49.5 -18.5t33 -47.5t17.5 -66.5t5 -74.5v-129h49q92 0 153.5 -5.5t100.5 -21.5t55.5 -48t16.5 -87q0 -39 -81 -63.5t-235 -24.5h-59v-295q0 -31 -48 -53.5t-104 -22.5 q-61 0 -61 230v52t4 89h-61q-47 0 -108.5 -4t-127.5 -4q-82 0 -82 79z" />
<glyph unicode="," horiz-adv-x="452" d="M59 104q0 37 12.5 70t33 59.5t46 42t50.5 15.5q178 0 178 -209q0 -53 -14.5 -104.5t-40 -93.5t-60.5 -73.5t-78 -43.5q-2 0 -4 25.5t-5 58t-9 64.5t-14 44l-54 70q-41 53 -41 75z" />
<glyph unicode="-" horiz-adv-x="888" d="M90 768q0 174 277 174q41 0 127 -6q90 -8 157.5 -12t111.5 -17.5t65.5 -41.5t21.5 -83q0 -66 -170 -82t-508 -16q-82 0 -82 84z" />
<glyph unicode="." horiz-adv-x="561" d="M90 137q0 68 49 114t117 46t116 -46t48 -114q0 -66 -48 -111.5t-116 -45.5t-117 46t-49 111z" />
<glyph unicode="/" horiz-adv-x="1091" d="M-12 27q0 27 4 42t14 33.5t30.5 46t54.5 77.5t81 130t115 203q47 84 83 144.5t68.5 110.5t64.5 96t68.5 98.5t81.5 119t105 156.5q160 279 280 279q12 0 30.5 -5.5t36 -12.5t29 -17.5t11.5 -20.5q0 -41 -26.5 -88t-76.5 -108l-102 -123q-16 -16 -33.5 -41t-43 -69 t-61.5 -110.5t-87 -166.5q-41 -78 -77 -135.5t-71 -108.5t-71.5 -106.5t-77.5 -131.5l-96 -161q-53 -78 -127 -131.5t-142 -53.5q-66 0 -65 54z" />
<glyph unicode="0" horiz-adv-x="1320" d="M43 504v301q0 2 10 43q25 80 72 158.5t105.5 142t121 103.5t117.5 40q96 0 96 -112q0 -49 -24 -181q-20 -115 -30.5 -175t-10.5 -68v-230l8 -44t20.5 -115.5t27 -163t26.5 -183.5q-23 -18 -44.5 -29t-50.5 -11q-63 0 -141 53t-145.5 133t-112.5 171t-45 167zM778 1270 q113 -18 206 -75.5t158.5 -144.5t102.5 -198t37 -238q0 -121 -31.5 -223t-90 -182t-142.5 -135.5t-187 -77.5q-27 33 -26 131q0 20 5 80.5t13 126.5q8 76 21 164z" />
<glyph unicode="1" horiz-adv-x="817" d="M51 49q0 20 21.5 63.5t48 91.5t48 92t21.5 69v520q0 4 -16 41t-35.5 82t-36 86t-18.5 51l176 112q115 66 189 66q43 0 76.5 -29.5t33.5 -83.5v-876q0 -14 19.5 -57.5t43 -93.5t45 -99t25.5 -76h-633q-8 16 -8 41z" />
<glyph unicode="2" horiz-adv-x="1259" d="M31 991q0 8 4 36t10 75q10 80 317 201q113 -44 113 -107q0 -57 -35 -152q-16 -47 -32.5 -82.5t-37 -60t-50 -38t-74.5 -13.5q-215 0 -215 141zM37 84q0 88 26.5 177t69.5 165t97.5 133t109.5 84l188 68q45 16 85 44.5t69 67.5t46 84t17 92q0 16 -7 47t-14 65t-14.5 64.5 t-7.5 47.5q0 47 28 60t63 13q63 0 130.5 -41t125 -101t94.5 -131t37 -132q0 -39 -18.5 -74t-48.5 -63.5t-66.5 -51t-73.5 -36.5q-6 -2 -55.5 -16.5t-116 -38t-133 -51.5t-105.5 -58q39 -80 107.5 -120t165.5 -40q141 0 294 80v-25q0 -207 -84.5 -319.5t-257.5 -112.5 q-35 0 -98 16.5t-133 37t-134.5 37t-96.5 16.5q-145 0 -285 -58q-2 16 -3 34t-1 36z" />
<glyph unicode="3" horiz-adv-x="1329" d="M29 236q0 102 55 164.5t156 62.5q72 0 129 -36t98 -95.5t62.5 -138t21.5 -166.5q0 -23 -28.5 -39.5t-53.5 -16.5q-84 0 -163 20.5t-140.5 56.5t-99 84t-37.5 104zM88 1063q0 47 37 97t89 90t110.5 65.5t103.5 25.5h49q31 0 48.5 -11t17.5 -56q0 -66 -22.5 -135.5 t-59.5 -128t-84 -95t-96 -36.5q-27 0 -61 18t-62.5 46t-49 59.5t-20.5 60.5zM412 688q0 45 16 78q74 0 139.5 13.5t114.5 37t77.5 55t28.5 70.5v297q33 88 121 88q53 0 109.5 -29.5t102.5 -78t76 -105.5t30 -113q0 -39 -17.5 -74.5t-52.5 -78.5l-113 -137q2 -4 34 -45 t69 -96.5t67.5 -113t30.5 -94.5q0 -61 -32.5 -125.5t-84 -116.5t-114 -85t-123.5 -33q-57 0 -103 39v278q0 57 -27.5 110.5t-72.5 93.5t-101.5 64.5t-111.5 24.5h-24.5t-22.5 -2q-16 25 -16 78z" />
<glyph unicode="4" horiz-adv-x="1249" d="M14 504q0 94 142 258l219 219q24 -37 24 -80q0 -14 -8 -44t-19.5 -61.5t-19.5 -60t-8 -41.5q0 -8 7 -35.5t15.5 -60.5t15.5 -65.5t7 -51.5q0 -41 -10 -69h-307q-57 33 -58 92zM520 78q0 27 14.5 72t33 94t32.5 92t14 63v758q29 74 99.5 124t152.5 50q117 0 117 -100 q0 -6 -2 -17.5t-2 -15.5v-436q0 -25 21.5 -55.5t51 -62.5t58.5 -60.5t45 -46.5q-4 -25 -24.5 -60t-44 -70.5t-44 -69.5t-24.5 -56q2 -20 14 -54t25.5 -66t24 -57.5t12.5 -29.5q-10 -10 -32 -23.5t-46.5 -25t-48 -19.5t-37.5 -8l-404 27q-6 25 -6 53z" />
<glyph unicode="5" horiz-adv-x="1253" d="M27 188q0 119 163 318q0 6 -13 23.5t-28.5 40t-27.5 43t-12 32.5v574q61 63 114 63q70 0 113 -111v-167q0 -84 84 -162l340 -11q236 -6 353.5 -94t117.5 -254q0 -76 -26.5 -153.5t-72 -140t-103.5 -101.5t-122 -39q-59 0 -114 37v301q0 53 -25 107.5t-65.5 97.5t-94 70.5 t-108.5 27.5q-137 0 -234 -162q115 -70 166 -151q18 -29 34.5 -84t34 -114.5t33 -111t31.5 -73.5h-71q-467 0 -467 194zM526 1149q6 14 17.5 30.5t29.5 37.5q358 127 398 126q29 0 57.5 -8t61.5 -24q-16 -53 -61.5 -105.5t-105 -95.5t-124 -69.5t-119.5 -26.5 q-123 0 -154 135z" />
<glyph unicode="6" horiz-adv-x="1368" d="M39 528v318q0 39 20.5 92t56.5 109.5t81 111.5t93 99.5t97 71t90 26.5l10 -2q78 -37 78 -109q0 -16 -7 -46t-15 -61.5t-15.5 -62.5t-7.5 -45v-549l15 -137l30 -278q-31 -23 -73 -23q-43 0 -94.5 24.5t-101.5 64.5t-96 91t-82 104.5t-57.5 105.5t-21.5 95zM756 758 q45 76 137 76q63 0 132 -35t125 -85t92 -107.5t36 -102.5v-137q0 -55 -41 -117t-101.5 -112t-129 -82.5t-123.5 -32.5q-100 0 -101 88q0 23 9.5 66.5t21.5 90.5t21.5 89t9.5 63q0 25 -10.5 62.5t-24.5 82.5t-29.5 94.5t-23.5 98.5zM784 1235q0 39 12.5 62.5t33 37t47 17.5 t55.5 4q43 0 93 -21.5t93 -55.5t73 -73t30 -76q0 -33 -21.5 -64.5t-55.5 -57t-75 -41t-82 -15.5q-49 0 -87 30t-63.5 73t-39 92t-13.5 88z" />
<glyph unicode="7" horiz-adv-x="1259" d="M6 1044v211q0 35 34 54.5t87 19.5q12 0 37.5 -3t55.5 -6t56.5 -5t40.5 -2q16 0 49 7t70 14t70 14.5t51 7.5q76 0 113.5 -35t60.5 -113q-53 -129 -211 -129h-55q-18 2 -31.5 2h-21.5q-23 0 -39.5 -2t-32.5 -8q-8 -2 -38 -27.5t-65.5 -55.5t-68.5 -54.5t-47 -24.5 q-63 0 -115 135zM240 287q0 72 17 145.5t63.5 145t126 142.5t206.5 136q51 27 93 67t88.5 97t101.5 133t133 174q18 -4 37.5 -5t36 -8t28 -24.5t11.5 -54.5q0 -96 -60 -191q-16 -25 -57 -67.5t-86 -88.5t-85 -87t-54 -62q-6 -8 -22.5 -41.5t-34 -71.5t-31 -71t-13.5 -37 v-135q0 -25 4.5 -50.5t8.5 -48t8 -40t4 -23.5q0 -115 -75 -171t-191 -56q-57 0 -105.5 22.5t-82.5 62.5t-52 93t-18 115z" />
<glyph unicode="8" horiz-adv-x="1421" d="M111 1042q0 23 3 47.5t13 49.5q8 37 48 76.5t93.5 73.5t111.5 55.5t101 21.5q25 0 41 -8q6 -10 20.5 -57.5t37 -105.5t53.5 -115.5t72 -86.5q10 -6 65 -31.5t164 -70.5q121 -49 205 -100.5t137 -107.5t76.5 -118.5t23.5 -136.5q-2 -23 -2 -43t-4 -43q-10 -53 -52 -111.5 t-98.5 -108.5t-120 -83t-116.5 -33q-43 0 -67.5 42t-32.5 108q-12 76 -23.5 131t-32 94t-56.5 66.5t-93 52.5l-141 71q-426 209 -426 471zM143 403q0 59 27 80q127 139 149 140q43 0 54 -56v-88q0 -59 11 -100t41 -82t82 -92t136 -133l-51 -47q-6 -2 -13.5 -2h-13.5 q-41 0 -112.5 25.5t-140 74.5t-119 119.5t-50.5 160.5zM819 1329q0 27 49 27q31 0 92.5 -11.5t153.5 -35.5q150 -38 150 -185q0 -8 -20.5 -38.5t-47.5 -63.5t-50.5 -58.5t-31.5 -25.5q-16 0 -23.5 4t-10.5 15.5t-5 33t-8 58.5l-8 59l-170 131q-70 55 -70 90z" />
<glyph unicode="9" horiz-adv-x="1286" d="M39 788v228q0 51 47 106.5t115.5 100.5t147.5 73.5t143 28.5q18 0 26 -2v-23q0 -27 -9 -79t-20.5 -109t-20.5 -108.5t-9 -75.5q0 -162 207 -193q68 55 104 170l-18 395q111 -12 200.5 -63t154 -133t100.5 -191.5t36 -234.5q0 -117 -31.5 -225.5t-90 -195.5t-139.5 -148.5 t-181 -85.5q-25 39 -25 98q0 20 8.5 61t17.5 86t17 86t8 62q0 31 -14 61.5t-36.5 55t-52.5 40t-62 15.5q-14 0 -54.5 -9.5t-85.5 -20.5t-88 -20.5t-63 -9.5q-23 0 -77 30t-110.5 72t-100.5 86t-44 72zM88 203q0 43 22.5 83t58.5 68.5t82 46t93 17.5q35 0 71 -12.5t63.5 -35 t45 -55t17.5 -75.5v-191q-31 -41 -131 -41q-61 0 -120 14.5t-103 41t-71.5 61.5t-27.5 78z" />
<glyph unicode=":" horiz-adv-x="518" d="M88 137q0 68 47 114t117 46t117 -46t47 -114q0 -66 -47 -111.5t-117 -45.5t-117 46t-47 111zM106 760q0 68 47.5 113t114.5 45q66 0 114 -45t48 -113q-2 -68 -46 -114t-116 -46q-68 0 -115 46t-47 114z" />
<glyph unicode=";" horiz-adv-x="514" d="M88 115q0 37 13.5 70.5t35 59t45 42t45.5 16.5q92 0 137.5 -59.5t45.5 -151.5q0 -51 -14.5 -101t-40 -93t-61.5 -75t-77 -46q-6 18 -12 98q-2 55 -20.5 92t-40 62.5t-39 45t-17.5 40.5zM96 760q0 68 49.5 113t116.5 45q66 0 115 -45t49 -113t-49 -114t-115 -46 q-70 0 -118 46t-48 114z" />
<glyph unicode="&#x3c;" horiz-adv-x="1140" d="M88 647q0 23 29.5 52.5t79 65.5t113 72.5t130 72.5t132 69t118.5 57q68 29 112 46.5t93 17.5q125 0 125 -66q0 -47 -168 -135q-41 -18 -115.5 -55t-150.5 -75t-131.5 -72.5t-55.5 -51.5q0 -8 29 -25.5t74 -40t101 -49t110.5 -52t101.5 -47t76 -34.5q84 -41 123 -71.5 t39 -63.5q0 -74 -152 -74q-51 0 -131 27t-170 69t-181 94t-165 103t-120 95.5t-46 70.5z" />
<glyph unicode="=" horiz-adv-x="1140" d="M90 846q0 176 277 176h55t98 -1t103.5 -2t72.5 -3q90 -8 158 -12.5t112 -18.5t65.5 -42t21.5 -81q0 -33 -75 -52t-198 -29.5t-281.5 -13.5t-326.5 -3q-82 0 -82 82zM92 494q0 59 230 59q20 0 93.5 -1t157.5 -3t158 -3t94 -1q23 0 68 4t68 4q81 0 81 -76q0 -29 -18 -53.5 t-48 -43t-67 -28.5t-75 -10h-666q-31 0 -53.5 48t-22.5 104z" />
<glyph unicode="&#x3e;" horiz-adv-x="1140" d="M88 262q0 33 39 63.5t125 71.5q27 12 74 34t102 47.5t110.5 52t100.5 49t73.5 40t28.5 25.5q0 10 -26.5 29.5t-67.5 44t-92 50.5t-101.5 50.5t-94.5 46t-70 33.5q-166 88 -166 135q0 66 123 66q49 0 94 -17.5t113 -46.5q80 -37 183 -90t196.5 -108.5t157 -106.5t63.5 -84 q0 -27 -46 -71t-120 -95t-165 -103t-181 -94t-170 -69t-131 -27q-152 0 -152 74z" />
<glyph unicode="?" horiz-adv-x="1005" d="M14 1004q0 47 22.5 90t57.5 74.5t80 51t90 19.5q90 0 90 -51q0 -301 -200 -301q-59 0 -99.5 31.5t-40.5 85.5zM264 684q0 98 41 143l35 17q35 18 78 42.5t84 51.5t55 43q20 31 21 254q82 -2 151.5 -20.5t119.5 -52.5t77.5 -82t27.5 -105q0 -74 -32.5 -116t-77.5 -72.5 t-93.5 -56t-80.5 -64.5q-29 -37 -37 -47.5t-8 -16.5q0 -2 1 -14.5t3 -28.5t3 -32.5t1 -28.5q0 -84 -109 -176q0 -6 10.5 -31t22.5 -55.5t21.5 -61.5t9.5 -49q0 -70 -58 -127q-190 57 -190 125q0 8 14.5 33.5t31.5 54.5t31.5 56.5t14.5 43.5q0 12 -4 25q-35 10 -65.5 46 t-52 85t-34 105.5t-12.5 111.5z" />
<glyph unicode="@" horiz-adv-x="1329" d="M72 754q0 123 52 224t135 174t188.5 113t214.5 40q129 0 235.5 -30t183 -88.5t119.5 -145.5t43 -201q0 -61 -18.5 -82t-87.5 -21q-63 0 -84 14.5t-25 51.5q-6 61 -31.5 115.5t-70.5 95.5t-110.5 64.5t-153.5 23.5q-78 0 -144.5 -24.5t-117 -70.5t-81 -111t-34.5 -144 q-4 -29 -9.5 -48.5t-19.5 -30.5t-38.5 -15.5t-65.5 -4.5q-47 0 -63.5 19.5t-16.5 81.5zM84 494q0 45 41 45h123q35 0 41 -33q29 -154 118 -229.5t218 -106.5q16 -4 24 -16.5t8 -28.5q0 -31 -1 -59.5t-6 -51t-16 -37t-34 -14.5q-115 16 -209 61.5t-162.5 114t-106.5 158.5 t-38 197zM397 612q0 45 12.5 90.5t36 82t58.5 59t80 22.5q18 0 29.5 -19.5t11.5 -76.5q0 -35 -7.5 -55.5t-15.5 -35.5t-15 -29.5t-7 -37.5t7 -36t15 -25t15.5 -30.5t7.5 -51.5q0 -66 -11.5 -84t-27.5 -18q-41 0 -75 21.5t-59.5 56t-40 78.5t-14.5 89zM694 455q0 35 3 54 t7.5 31.5t10.5 18.5l12 12v99q-10 10 -21.5 15t-11.5 26v100q0 18 11.5 29.5t27.5 11.5q12 0 15 -2q18 18 30 18h92q16 0 28.5 -23.5t12.5 -105.5q0 -104 10.5 -170.5t30.5 -66.5q16 0 28.5 12t24 27.5t22.5 29t26 13.5h131q43 0 43 -41q0 -43 -21.5 -84t-59.5 -74 t-88 -52.5t-108 -19.5q-35 0 -63.5 10.5t-54 21.5t-50 21.5t-49.5 10.5q-16 0 -27.5 15.5t-11.5 62.5z" />
<glyph unicode="A" d="M0 92q0 18 20.5 43t61.5 64q37 39 66.5 83t56 98t52.5 120.5t54 150.5l58 158q16 49 44.5 125t63.5 180q43 123 101.5 170t146.5 47h33t35 -2q-18 -182 -56 -319l-12 -36t-27.5 -78t-28 -79t-12.5 -41v-332l-67 -51q-39 -33 -39 -71q0 -16 12 -47t26.5 -66t27 -69 t12.5 -56q0 -102 -146 -102h-409q-16 0 -30.5 10t-24 26.5t-14.5 36t-5 37.5zM803 127l2 6q108 186 108 255q0 7 -11 31.5t-23.5 57.5t-23.5 70t-11 67v138l166 487q88 -57 159 -213q16 -37 32 -85t35 -111.5t47 -143.5t69 -184l168 -250q20 -41 20 -70q0 -31 -13.5 -54.5 t-36 -40.5t-51 -27.5t-57.5 -10.5l-534 -22q-45 51 -45 100z" />
<glyph unicode="B" horiz-adv-x="1687" d="M49 90q0 12 19.5 51t44 84t44 84t19.5 56v618q0 55 -20 78q-72 96 -72 166q0 37 17.5 61.5t44 39.5t57 21.5t57.5 6.5h199q94 0 156.5 -49.5t62.5 -145.5l-23 -985q0 -18 -12 -48t-30.5 -56.5t-41 -46t-45.5 -19.5h-360q-59 0 -88 31t-29 53zM831 86q0 14 35 55t76 92.5 t76 105.5t35 93q0 31 -33 69t-72 75.5t-72.5 71.5t-35.5 57q2 4 35.5 35.5t74.5 74.5t75 88t34 76q0 20 -31 57t-66.5 77t-66.5 75t-31 53q0 51 59.5 69.5t139.5 18.5q76 0 166 -23.5t165.5 -66.5t127 -102.5t51.5 -130.5q0 -92 -156 -281q2 -33 30 -84t61.5 -106.5 t61 -108.5t27.5 -86q0 -61 -31.5 -120.5t-81.5 -108t-114.5 -77t-130.5 -28.5h-321q-86 39 -87 80z" />
<glyph unicode="C" horiz-adv-x="1484" d="M31 508v301q0 4 6 15.5t12 29.5q37 104 104.5 191.5t149.5 151t167 99t157 35.5q18 0 31.5 -4t23.5 -17.5t15 -41t5 -76.5q0 -59 -13 -98t-36 -72q-23 -29 -35 -56.5t-19 -66.5t-9 -93t-2 -136q0 -43 6 -108.5t14 -127t14.5 -107.5t6.5 -48v-259q-28 -22 -68 -22h-4 q-72 0 -163 52t-172 130t-136 166t-55 162zM831 150q0 23 13 40l100 218q68 121 139.5 170t126.5 49q109 0 109 -164q0 -94 -35 -175t-91 -141.5t-126 -94.5t-137 -34q-45 0 -72 33t-27 99zM911 1235v17.5t2 17.5q20 2 65.5 10t96.5 17.5t98.5 16.5t71.5 7q59 0 99 -28.5 t40 -75.5v-254q0 -41 -15 -72t-37.5 -51.5t-48.5 -31.5t-46 -11q-51 0 -108.5 45t-105.5 111.5t-80 142t-32 139.5z" />
<glyph unicode="D" horiz-adv-x="1640" d="M51 104q0 20 18.5 69.5t42 105t42 105.5t18.5 73v542q0 14 -29 60q-23 29 -33 45t-15 40.5t-7 66.5t-6 120h471l76 -74v-1060q0 -25 -12.5 -59t-31 -62.5t-41 -49t-44.5 -20.5h-344l-16 5q-17 5 -36.5 16.5t-36 30t-16.5 46.5zM807 127q0 29 15.5 53.5t47.5 52.5 q51 43 80 74t46.5 63.5t29.5 75.5t31 113l8 33v178q0 18 -18 109q-10 53 -16.5 81.5t-14.5 45t-19.5 26.5t-31.5 25q-90 59 -124 106t-34 64q0 37 30.5 58.5t72.5 32.5t87 14t74 3q117 0 213 -47t165 -132t106.5 -202t37.5 -256q0 -145 -40 -269t-112.5 -214t-175 -142.5 t-227.5 -52.5q-109 0 -215 33q-16 35 -16 74z" />
<glyph unicode="E" horiz-adv-x="1691" d="M66 94q0 18 18 62.5t39.5 92.5t40 87t18.5 49v420q0 82 -2 135t-6 82q-2 8 -15.5 31.5t-28.5 54.5t-28.5 65.5t-13.5 69.5q0 59 80 84l20 4h445q-4 -31 -6 -89t-2 -146v-992q-33 -39 -107 -98h-393q-59 31 -59 88zM786 678q0 25 16.5 63.5t42 75.5t56.5 62.5t57 25.5 q70 0 70 -127q0 -80 -5 -132t-16.5 -81.5t-30 -42t-46.5 -12.5q-27 0 -52.5 16.5t-46 42t-33 55t-12.5 54.5zM807 117q0 59 47 75t129 17q61 0 100 36t69 86t54.5 104t59.5 93h290v-422q0 -37 -75 -100h-598q-35 0 -55.5 36t-20.5 75zM827 1202q37 131 111 132l565 -3 l78 -74v-395q-37 -37 -104.5 -60.5t-124.5 -23.5q-51 0 -75 28t-39 67.5t-30.5 85t-46.5 81.5q-20 25 -72.5 51.5t-108.5 50t-101 40t-52 20.5z" />
<glyph unicode="F" horiz-adv-x="1540" d="M4 86q0 16 19.5 57t42 85t42 83t19.5 54v166.5t2 93.5l18 284l-8 23q-8 24 -20.5 60t-27.5 78t-27.5 80t-20.5 66.5t-8 38.5q0 25 12 31q18 0 65.5 11.5t102.5 23.5t109.5 22.5t85.5 10.5t65.5 -10.5t64 -29t49 -45t19.5 -59.5l-24 -733q133 -254 133 -350 q0 -35 -10.5 -57.5t-42 -37t-93 -20.5t-161.5 -6h-342q-63 27 -64 80zM778 700q0 178 117 222q16 -12 34.5 -32t43.5 -44v-262q-49 -49 -99 -49q-96 0 -96 165zM788 1255q8 14 28 36t43.5 41.5t50 32.5t51.5 13h536v-426q-57 -82 -188 -82q-37 0 -60.5 2t-42 14.5t-39 40 t-53.5 79.5q-27 39 -42 64.5t-32.5 40.5t-43 24.5t-68.5 19.5q-45 10 -73 20.5t-42 22.5t-19.5 26.5t-5.5 30.5z" />
<glyph unicode="G" horiz-adv-x="1691" d="M29 647q0 139 45 258t127 206t196.5 136t253.5 49q25 0 45.5 -1t34.5 -9t22.5 -25.5t8.5 -50.5q0 -29 -8.5 -62.5t-28.5 -74.5l-57 -131q-16 -41 -54 -270v-137q0 -27 22.5 -91.5t63.5 -173.5q27 -61 39.5 -104t12.5 -66q0 -37 -19.5 -65.5t-56.5 -54.5q-145 2 -264 52 t-204 139t-132 211t-47 265zM944 90q0 18 15.5 58t34 83t33.5 81t15 53q0 16 -8 48.5t-19 68.5t-19.5 70t-8.5 52v6q20 12 48 23.5t67 19.5q59 16 90 22.5t29 6.5h211q59 -18 97 -31.5t63.5 -24t41 -20.5t27.5 -22q-4 -23 -16.5 -51.5t-32.5 -69.5q-25 -45 -37 -67.5 t-19.5 -52.5t-12.5 -81t-13 -151l-8 -60q-4 -18 -41 -26.5t-105.5 -11.5t-166 -4t-222.5 -7q-43 37 -43 88zM963 1180q0 14 9 31.5t22.5 33t28.5 25.5t28 10q14 0 40.5 -6t56.5 -14.5t56.5 -14.5t38.5 -6q14 0 43 4t58.5 9t57.5 9.5t42 4.5q76 0 103.5 -33t27.5 -107 q0 -98 -7 -161.5t-25.5 -102.5t-47.5 -54t-72 -15q-111 0 -172 30.5t-94 71.5t-46 79t-30 54l-75 68q-43 41 -43 84z" />
<glyph unicode="H" horiz-adv-x="1804" d="M51 135q0 47 37 82l62 53q36 54 36 349v16v106.5t-4 114.5l-4 111q0 12 -17.5 47t-38 74.5t-36.5 76.5t-16 52q0 16 11 35.5t28.5 36t38 26.5t38.5 10h461q72 0 119 -78q0 -113 -27 -147q-23 -8 -39 -23q-16 -12 -27 -33.5t-11 -50.5q0 -63 9 -94t24.5 -44t31.5 -16 t31.5 -8.5t25 -18.5t9.5 -50q0 -16 -1 -32.5t-4 -33.5q0 -6 -26.5 -42t-57 -83t-56 -97t-25.5 -87q0 -49 19.5 -85t42 -66.5t41.5 -59.5t19 -61q0 -16 -2 -35t-6 -41l-80 -39h-587q-8 55 -13.5 90t-5.5 45zM928 719v20q0 20 27.5 46t59.5 53.5t59.5 58.5t27.5 61 q0 98 -78 99q-14 0 -23 -4h-20q-47 0 -47 47q0 39 94 200h539h3q118 0 118 -83q0 -18 -17.5 -63.5t-39 -91.5t-39 -81t-17.5 -31q0 -39 -3 -118.5t-8 -169t-8.5 -169t-3.5 -118.5q0 -20 17.5 -64.5t39 -92.5t40 -90t18.5 -56q0 -53 -53 -97h-586l-74 56v10q0 27 22.5 83 t48.5 117.5t48.5 117t22.5 81.5q0 61 -23.5 101.5t-89.5 95.5q-39 33 -47 49t-8 33z" />
<glyph unicode="I" horiz-adv-x="915" d="M63 1239l19 41q25 33 114 46t210 13h333q6 -23 6 -47q0 -78 -92 -256v-694q0 -6 19.5 -41t43 -76t43 -77t19.5 -48q0 -25 -29.5 -58.5t-80.5 -33.5h-490q-47 0 -72.5 29t-25.5 49q0 14 14.5 45t31.5 62.5t31.5 56t14.5 29.5v682q0 4 -16.5 45t-37 90t-36.5 92t-19 51z " />
<glyph unicode="J" horiz-adv-x="1267" d="M48.5 376q19.5 38 51 66.5t70.5 47t76 18.5q57 0 97 -19.5t65.5 -63.5t37 -118t11.5 -180q0 -125 -111 -125q-39 0 -80 16q-237 84 -237 279q0 41 19.5 79zM465 1217q0 63 76 94h323q307 0 307 -121q0 -14 -14 -50t-30.5 -74t-31 -69.5t-14.5 -38.5v-626 q0 -51 -32.5 -110.5t-84 -110t-110.5 -84t-113 -33.5q-139 0 -139 205v731q0 6 -21.5 45t-47 86t-47 92t-21.5 64z" />
<glyph unicode="K" horiz-adv-x="1697" d="M43 1339h561q53 0 83 -32.5t30 -59.5q0 -16 -16.5 -52t-35 -72t-35 -62.5t-16.5 -24.5v-694q0 -12 12.5 -41t28 -59.5t28.5 -58t13 -40.5q0 -66 -90 -129h-461q-16 0 -24 1t-17.5 8.5t-21.5 21.5t-35 41l-2 10q2 20 8 52t25 75l49 127q4 18 6 44t2 57q0 18 -2 51t-2 51 v475q0 8 -13.5 39t-30.5 74t-30.5 94t-13.5 104zM774 727q0 27 21.5 80t47 108.5t47 102.5t21.5 63q0 14 -3 35t-7 43.5t-7 44t-3 33.5q0 47 40 75.5t95 28.5h506q33 -45 33 -75q0 -33 -29 -67t-71 -68.5t-92 -71.5t-92 -75t-70.5 -79t-28.5 -82q0 -45 26.5 -103t83.5 -126 l207 -242q109 -139 109 -231q0 -57 -39 -107h-582q-76 0 -76 154q0 8 1 24.5t1 33t1 31.5t1 24q0 53 -10 84q-49 98 -90 194t-41 168z" />
<glyph unicode="L" horiz-adv-x="1452" d="M31 1270q0 10 8 25.5t24.5 28.5t40 22.5t56.5 9.5h364q244 0 244 -70q0 -8 -21.5 -43t-47 -77t-47 -80.5t-21.5 -57.5v-852q0 -16 -13.5 -45t-33 -56.5t-42 -48t-40.5 -20.5h-246q-213 0 -213 105q0 18 16.5 59t37 83t37 74.5t16.5 37.5v634q0 20 -18.5 60.5t-41 83.5 t-41 80t-18.5 47zM819 147q0 16 37 54l53 51q27 29 43.5 47t26.5 37.5t17.5 47.5t17.5 77q10 37 22.5 63.5t30.5 44t46 24.5t69 7q84 0 153 -33q27 -41 39 -75.5t12 -63.5v-276q0 -39 -30.5 -83t-71.5 -63h-395q-10 12 -22.5 30.5t-22.5 38t-17.5 39t-7.5 33.5z" />
<glyph unicode="M" horiz-adv-x="2260" d="M178 1239q0 51 58 88h575q63 0 102 -47t75 -146.5t82 -254t124 -369.5q45 -123 65.5 -213t20.5 -143q0 -133 -131 -134q-47 0 -80 12.5t-65.5 54.5t-69.5 123t-90 218q-16 41 -39 93t-45.5 99.5t-44 80t-35.5 32.5q-25 0 -44.5 -26.5t-19.5 -55.5v-303q0 -4 17.5 -32.5 t38 -65.5t38 -73t17.5 -54q0 -68 -74 -125h-350q-117 47 -117 117q0 14 17.5 46t38 66.5t38 64.5t17.5 40v635q0 12 -18.5 51t-41 83t-41 84t-18.5 54zM1292 979q0 160 52.5 254t156.5 94h531l22 -6q90 -31 90 -98q0 -16 -17.5 -56.5t-36.5 -82.5t-36.5 -74.5t-17.5 -34.5 v-627q0 -4 18.5 -38t41 -77t40.5 -85t18 -62q0 -49 -30 -88h-537l-22 6q-66 25 -66 82q0 6 12.5 53t27.5 110.5t28.5 132.5t13.5 120q0 4 -8 56t-25 153q-16 -4 -40.5 -18.5t-49 -31t-46 -30t-30.5 -17.5q-18 20 -34.5 61.5t-28.5 91.5t-19.5 105.5t-7.5 106.5z" />
<glyph unicode="N" horiz-adv-x="1787" d="M39 1266q0 65 161 65h5h432q57 0 143 -33q61 -86 127 -190t130.5 -215t127 -223.5t115.5 -216t94 -192.5t66 -155q-98 -98 -199 -98q-111 0 -233 129q-20 23 -53 66t-72 96t-79 110.5t-75 106.5t-61.5 85t-34.5 46q-8 -2 -27.5 -17.5t-48.5 -45.5v-252q0 -2 15.5 -30 t33 -62.5t32.5 -67.5t15 -47q0 -72 -104 -121h-227q-240 0 -240 70q0 8 16.5 40.5t37 72.5t36.5 78t16 54v658q0 14 -23.5 57t-51 91.5t-51 89t-23.5 51.5zM1159 1303q16 14 46 26t60.5 21.5t58.5 16.5l44 11h211q25 0 46.5 -10t35.5 -25.5t22.5 -32t8.5 -28.5 q0 -14 -16.5 -50t-36 -75t-36 -70.5t-16.5 -37.5q0 -104 -1 -162t-3 -68l-51 -356q-53 47 -98 109.5t-80 140.5q-14 29 -31.5 78t-36 108t-38 122.5t-37 119t-31 98.5t-21.5 64z" />
<glyph unicode="O" horiz-adv-x="1593" d="M39 543v323q0 12 12 54q25 82 85.5 156.5t137 132t160.5 92t156 34.5q25 0 48.5 -2t41.5 -11t29.5 -25.5t11.5 -47.5q0 -37 -20.5 -107.5t-45 -147t-45 -144.5t-20.5 -98v-174q10 -72 33.5 -151t47 -146.5t42 -114.5t18.5 -55q0 -14 -4 -34t-16.5 -37t-33 -29.5 t-50.5 -12.5q-55 0 -120 26.5t-130.5 71.5t-126 102.5t-107.5 118t-75.5 119t-28.5 107.5zM922 84q0 41 16 109.5t34.5 158.5t35 201t16.5 238l-10 43q-32 123 -54 221q-20 90 -20 164v14l2 49q29 4 56.5 7t54.5 3q113 0 205 -51t157.5 -140t101 -208t35.5 -256 q0 -141 -37.5 -260t-107.5 -206t-169 -136t-224 -49q-49 0 -70.5 19.5t-21.5 78.5z" />
<glyph unicode="P" horiz-adv-x="1548" d="M20 106q0 18 16.5 62.5t37 91.5t37 84t16.5 41v567l-15 32q-16 32 -33.5 76t-32.5 90t-15 71q0 59 35 110h366q20 0 44 -9t45.5 -22.5t39 -31t23.5 -35.5v-647q0 -84 16 -158t51 -133l62 -100q49 -85 49 -91q0 -16 -10.5 -47.5t-10.5 -50.5h-608q-53 0 -83 33t-30 67z M774 1198q0 66 49 113h369q68 0 127 -27t103 -74t69 -111.5t25 -140.5q0 -66 -23 -133t-62.5 -122.5t-95 -90t-118.5 -34.5h-297q-14 0 -32 13t-34 31.5t-28.5 40t-18.5 39.5q4 12 31.5 47t58.5 76t56.5 79t25.5 57q0 23 -20.5 49t-79.5 75q-33 27 -53.5 44.5t-32 29.5 t-15.5 20.5t-4 18.5z" />
<glyph unicode="Q" horiz-adv-x="1779" d="M29 539v288q0 53 28.5 111.5t76.5 117t110.5 111t132 93t141.5 64.5t137 24q29 0 36 -11.5t7 -31.5v-23q0 -31 -14 -91.5t-32.5 -119.5t-33 -103t-14.5 -40v-484q92 -178 92 -286q0 -133 -133 -133q-84 0 -177 48t-173 122.5t-132 166t-52 177.5zM907 1319q57 51 154 51 q92 0 189.5 -41t178 -111.5t132 -163.5t51.5 -198v-184q0 -29 -17.5 -87.5t-39 -120t-39 -111.5t-17.5 -64q0 -86 154 -88v-8q0 -264 -254 -265q-49 0 -110.5 12.5t-125 35t-124 52t-109.5 66.5q2 14 19.5 67.5t38 113t36.5 110.5t16 59v453l2 2q0 8 -19 55t-43 111.5 t-45.5 133.5t-27.5 120z" />
<glyph unicode="R" horiz-adv-x="1839" d="M39 1249q0 61 65 99h441l98 -72v-881l70 -174q23 -57 30 -101t13 -75q0 -16 -2 -22h-584q-31 0 -53.5 10t-39 25.5t-24.5 33t-8 31.5t18.5 51t42 77t42 70.5t18.5 32.5v613q0 6 -19.5 43t-44 84t-44 92t-19.5 63zM827 1274v10t2 16l252 19q63 4 109.5 6t79.5 2 q31 0 87 -30.5t112.5 -82t98.5 -116t42 -131.5q0 -82 -80 -156l-100 -94q12 -41 27.5 -110.5t47 -145.5t86 -146.5t142.5 -115.5q-4 -113 -87 -177.5t-214 -64.5q-225 0 -322 160q-12 20 -18.5 41.5t-13.5 55.5t-18 82t-34 122q-10 18 -42 50t-65.5 69.5t-61.5 79.5t-28 81 v25.5t2 24.5q78 43 125.5 72.5t72 53t31.5 48t7 59.5q0 31 -38 68.5t-82 76.5t-82 78t-38 70z" />
<glyph unicode="S" horiz-adv-x="1529" d="M35 885q0 78 40 156.5t103.5 143t142 104.5t156.5 40q84 0 107 -147q10 -68 18 -110t20.5 -67.5t30 -40t45.5 -26.5q16 -8 56.5 -18.5t91.5 -22.5t107.5 -24.5t105.5 -23.5t85 -19.5t46 -12.5q121 -49 185.5 -157.5t64.5 -241.5q0 -90 -44 -165t-109.5 -129t-140.5 -85 t-136 -31q-33 0 -51.5 32t-28.5 95q-29 139 -70 206t-103.5 97.5t-152.5 43t-215 42.5q-57 14 -119.5 47t-115 81t-86 107.5t-33.5 125.5zM66 180q0 78 29.5 131.5t82.5 53.5q25 0 68 -18.5t93 -48.5t103.5 -67.5t98.5 -75.5t75.5 -72t38.5 -58h-98q-98 0 -207.5 -5.5 t-232.5 -17.5q-25 27 -38 70t-13 108zM823 1217v81q94 -4 145.5 -6t61.5 -2q37 0 72 4t69 9q2 0 30 6t38 6q59 0 95 -52t36 -126q0 -72 -45 -104t-100 -32q-35 0 -72 14.5t-83 42t-105.5 67.5t-141.5 92z" />
<glyph unicode="T" horiz-adv-x="1650" d="M0 997v226q0 49 54.5 83.5t131.5 34.5q119 0 181 -65v-379q-63 -70 -174 -70q-80 0 -136.5 45.5t-56.5 124.5zM428 115q0 14 19.5 48t42 72.5t42 72.5t19.5 46v871q49 114 216 114h3q49 0 91 -10t75 -27.5t52.5 -38t19.5 -38.5l22 -805q2 -29 24.5 -81t50.5 -104.5 t50.5 -95.5t22.5 -51q0 -55 -103 -82l-33 -8h-505q-109 53 -109 117zM1178 1188q0 57 14 90t43 49t70 20.5t94 4.5q188 0 188 -152q0 -8 -3 -24.5t-4 -22.5v-168q-16 -80 -75 -139h-239q-18 25 -33.5 63.5t-28 85.5t-19.5 97.5t-7 95.5z" />
<glyph unicode="U" horiz-adv-x="1624" d="M37 1188q0 29 8 66.5t27 84.5h512q70 0 105.5 -33.5t35.5 -66.5q0 -16 -20.5 -58t-45 -88t-45 -84t-20.5 -44v-508q0 -10 20.5 -54.5t46 -98.5t46 -105.5t20.5 -71.5q0 -82 -72 -131h-22q-37 0 -88 17.5t-106.5 45t-110 65.5t-97.5 79t-69.5 83t-26.5 81v501 q0 53 -15.5 101.5t-33.5 89.5t-33.5 73.5t-15.5 55.5zM915 150q0 29 29 68.5t63.5 90.5t63.5 111.5t29 132.5v293q0 27 -12.5 65.5t-31 81.5t-41 86t-41 78t-30.5 57l-12 21q0 84 344 84h229q25 -47 25 -98q0 -25 -14.5 -69t-31 -88t-30.5 -80t-14 -42v-551 q0 -55 -45 -120.5t-110.5 -123t-140.5 -95.5t-134 -38q-49 0 -72 30t-23 106z" />
<glyph unicode="V" horiz-adv-x="1585" d="M2 1214q6 25 27.5 44.5t53.5 33t71 20.5t82 7h415q57 -20 58 -92q0 -18 -7.5 -56t-16.5 -79t-16 -78t-7 -56q0 -35 38.5 -155.5t116.5 -323.5q111 -292 111 -413q-20 -16 -54 -29.5t-72 -25t-77 -17.5t-68 -6q-41 0 -72.5 11t-57 40t-51 75t-54.5 117q-94 272 -200.5 519 t-219.5 464zM940 1286q49 53 123 53h391q49 -47 49 -137q0 -20 -23.5 -63t-51 -88t-52 -80t-24.5 -37q-18 -41 -48 -125t-63 -177t-61.5 -177t-46.5 -123q-150 82 -150 342q0 55 12 147l15 152q0 12 -11.5 48t-23.5 82t-23.5 95t-11.5 88z" />
<glyph unicode="W" horiz-adv-x="2263" d="M70 1274q63 74 211 74h354l98 -127l-59 -246l215 -975h-258q-43 0 -79 49t-76 154.5t-90 271.5t-122 399q-2 4 -27.5 52.5t-59.5 113t-64.5 130t-42.5 104.5zM915 1223q0 8 14.5 37.5t14.5 46.5q0 12 -2 16h393q84 0 144 -74v-24q0 -25 -9.5 -68t-19.5 -89t-19.5 -87 t-9.5 -61q0 -41 34 -155t106 -304q104 -281 104 -400q0 -29 -21.5 -45t-50 -25t-55.5 -12.5t-39 -3.5q-82 0 -141 84q-4 4 -16.5 29t-30 60.5t-38 75.5t-42 75t-42 57.5t-36.5 22.5q-20 0 -58 -4t-59 -4q-29 27 -98 164v227q0 12 7 42t15.5 63.5t15.5 64.5t7 47q0 33 -25 88 q-16 33 -24 52.5t-12 32.5t-5.5 28.5t-1.5 42.5zM1694 1188q0 76 51 115h373q37 0 58.5 -42.5t21.5 -99.5q0 -29 -19.5 -64.5t-44.5 -67.5t-46.5 -56.5t-23.5 -30.5q-20 -43 -42.5 -106.5t-44 -132t-41 -137t-35 -123t-23.5 -87.5l-8 -34q-39 27 -71 62.5t-55.5 74.5 t-35.5 80t-12 79q0 23 9 65t20.5 88t20.5 87t9 62q0 8 -9 44.5t-21.5 79.5t-21.5 84t-9 60z" />
<glyph unicode="X" horiz-adv-x="1632" d="M8 1231q0 53 44 89t98 36l559 -25q55 -4 55 -104q0 -20 -2 -60.5t-2 -62.5q0 -123 51 -186q33 -39 107.5 -112t165 -158t183.5 -172t163 -152l108 -115q23 -28 23 -55q0 -88 -97 -148h-577q-61 27 -62 103q0 12 3 37.5t7.5 53t7.5 51t3 34.5q0 68 -41 112 q-74 80 -126 140.5t-108.5 124t-130 143.5t-188.5 203q-16 16 -42 33.5t-65 41.5q-76 47 -106.5 78t-30.5 70zM29 109q12 49 61 94q63 47 122.5 94t108 84t83 59.5t51.5 22.5q31 0 60.5 -36t54 -85t40 -102t15.5 -88q0 -145 -148 -146h-254q0 -2 -4 -2q-10 0 -38.5 5 t-59.5 16.5t-57.5 32t-34.5 51.5zM983 1210q0 76 41 121h467q16 -16 16 -51q0 -41 -22.5 -72.5t-54 -57.5t-64.5 -50.5t-51 -48.5q-12 -12 -36 -37t-49.5 -51.5t-50 -46t-38.5 -19.5q-23 0 -49.5 28.5t-51 73.5t-41 101.5t-16.5 109.5z" />
<glyph unicode="Y" horiz-adv-x="1597" d="M-20 1159q0 84 98 152h438q10 0 29.5 1t41 3t41 3t31.5 1h44.5t38 -8t26.5 -25.5t10 -54.5q0 -29 -4 -82t-4 -82q0 -41 3 -66.5t15.5 -51t37 -56.5t67.5 -80q43 -47 66.5 -79t35 -55.5t13.5 -45t2 -45.5q0 -6 -1 -28.5t-3 -49.5t-3.5 -53.5t-1.5 -40.5q0 -137 113 -234 q10 -20 10 -53q0 -45 -22.5 -61.5t-93.5 -32.5l-121 -31h-185q-12 0 -37.5 -5t-53 -10t-53.5 -10.5t-38 -5.5q-63 0 -100 62v6q0 14 8 34.5t29 49.5q33 45 51 76.5t27.5 60.5t11.5 58.5t2 70.5q0 168 -123 307l-137 148l-82 82t-60 53q-14 8 -41.5 25.5t-55 41t-49 52 t-21.5 59.5zM1016 1223q0 166 139 166q14 0 39 -5.5t37 -5.5h274q43 -29 43 -80q0 -150 -389 -419q-29 20 -54.5 60t-46 88t-31.5 99.5t-11 96.5z" />
<glyph unicode="Z" horiz-adv-x="1607" d="M31 51q0 125 248 436q78 100 167 200.5t179 191t178 168t164.5 134t137 89.5t97.5 33h180q80 -1 80 -48q-2 -45 -60.5 -137t-180.5 -231q-33 -35 -114 -123t-212 -225q-20 -23 -66.5 -72t-102.5 -108.5t-116.5 -124t-112 -116.5t-86 -86t-38.5 -34h-248h-7t-9 -2h-17 q-61 0 -61 55zM68 899v348q37 80 127 80h458q25 -31 25 -84q0 -4 1 -8t1 -8t-3 -8.5t-15.5 -11.5t-35 -18t-59.5 -30q-68 -33 -99.5 -55.5t-50 -52t-35.5 -74.5t-54 -123q-45 -27 -117 -27q-115 0 -143 72zM827 96v10l140 97q41 29 70.5 57.5t52.5 52.5q12 14 30.5 46t37 67 t34.5 66.5t27 44.5q51 4 76.5 7t27.5 3q162 0 162 -150v-252q0 -51 -20.5 -90t-53.5 -67h-563q0 20 -10.5 55t-10.5 53z" />
<glyph unicode="[" horiz-adv-x="890" d="M248 66v1151q0 43 7 83.5t22.5 71.5t39 49.5t54.5 18.5q47 0 87 -13.5t89 -13.5q51 0 103 10.5t93 10.5q47 0 77 -25t30 -86q0 -55 -23.5 -87t-68.5 -32q-20 0 -34.5 3t-27 8.5t-27 8.5t-34.5 3q-74 0 -91.5 -48.5t-17.5 -152.5q0 -92 -4 -209t-10 -232.5t-10 -215 t-4 -156.5q0 -106 71 -107q29 0 46.5 3.5t35 8.5t40 8t63.5 3q43 0 64.5 -27.5t21.5 -74.5q0 -53 -26 -91t-87 -38q-18 0 -33.5 4t-33 10t-38 10t-51.5 4q-33 0 -54 -6t-41.5 -13t-43 -13.5t-55.5 -6.5q-43 0 -68.5 13.5t-39 37t-17.5 56.5t-4 72z" />
<glyph unicode="\" horiz-adv-x="1091" d="M-12 1507q0 10 13 20.5t30.5 17.5t35 12.5t27.5 5.5q123 0 283 -279q96 -147 171 -255.5t128 -180.5q29 -41 77 -124t98 -174t96 -171t71 -115l82 -114q45 -74 45 -123q0 -53 -66 -54q-41 0 -77.5 12.5t-77.5 49.5t-90.5 104.5t-116.5 179.5q-41 76 -78 131.5t-73 106.5 t-71.5 108.5t-74.5 135.5q-51 100 -87 168.5t-62.5 112.5t-45 69t-32.5 37l-103 123q-51 61 -76.5 108t-25.5 88z" />
<glyph unicode="]" horiz-adv-x="890" d="M45 1323q0 61 30 86t77 25q41 0 93 -10.5t103 -10.5q49 0 89 13.5t87 13.5q31 0 53.5 -18.5t38 -49.5t23.5 -71.5t8 -83.5v-1151q0 -39 -4 -72t-17.5 -56.5t-39 -37t-68.5 -13.5q-33 0 -55.5 6.5t-43 13.5t-42 13t-53.5 6q-31 0 -51.5 -4t-38 -10t-33 -10t-33.5 -4 q-61 0 -86 37.5t-25 91.5q0 47 20.5 74.5t65.5 27.5q41 0 63.5 -3t39 -8t34 -8.5t46.5 -3.5q72 0 71 107q0 57 -4 156.5t-10 215t-10 232.5t-4 209q0 51 -3.5 89t-13.5 62.5t-32.5 37t-59.5 12.5q-18 0 -32.5 -3t-28 -8.5t-27.5 -8.5t-35 -3q-43 0 -67.5 32t-24.5 87z" />
<glyph unicode="^" horiz-adv-x="980" d="M131 918q0 29 13.5 58.5t37.5 70.5q31 49 76 115.5t91 125t88 99t69 40.5q23 0 59.5 -28.5t79.5 -74.5t87 -104.5t79 -114.5t57.5 -107.5t22.5 -84.5q0 -92 -64 -92q-45 0 -110 101q-16 27 -48 78l-64 102t-59.5 90t-37.5 39q-12 0 -40 -35t-60.5 -82t-63.5 -95t-47 -75 q-37 -53 -62.5 -78.5t-48.5 -25.5q-55 0 -55 78z" />
<glyph unicode="_" horiz-adv-x="1212" d="M-2 -117q0 66 63 66h1076q66 0 65 -66v-45q0 -63 -65 -63h-1076q-63 0 -63 63v45z" />
<glyph unicode="`" horiz-adv-x="860" d="M113 1772q0 53 36.5 85.5t120.5 32.5q45 0 108.5 -16t132.5 -44t136.5 -62.5t120.5 -70.5t87 -69t34 -57q0 -29 -18.5 -39t-63.5 -10q-59 0 -152.5 18.5t-187.5 44t-174 51t-111 39.5q-70 33 -69 97z" />
<glyph unicode="a" d="M0 92q0 18 20.5 43t61.5 64q37 39 66.5 83t56 98t52.5 120.5t54 150.5l58 158q16 49 44.5 125t63.5 180q43 123 101.5 170t146.5 47h33t35 -2q-18 -182 -56 -319l-12 -36t-27.5 -78t-28 -79t-12.5 -41v-332l-67 -51q-39 -33 -39 -71q0 -16 12 -47t26.5 -66t27 -69 t12.5 -56q0 -102 -146 -102h-409q-16 0 -30.5 10t-24 26.5t-14.5 36t-5 37.5zM803 127l2 6q108 186 108 255q0 7 -11 31.5t-23.5 57.5t-23.5 70t-11 67v138l166 487q88 -57 159 -213q16 -37 32 -85t35 -111.5t47 -143.5t69 -184l168 -250q20 -41 20 -70q0 -31 -13.5 -54.5 t-36 -40.5t-51 -27.5t-57.5 -10.5l-534 -22q-45 51 -45 100z" />
<glyph unicode="b" horiz-adv-x="1687" d="M49 90q0 12 19.5 51t44 84t44 84t19.5 56v618q0 55 -20 78q-72 96 -72 166q0 37 17.5 61.5t44 39.5t57 21.5t57.5 6.5h199q94 0 156.5 -49.5t62.5 -145.5l-23 -985q0 -18 -12 -48t-30.5 -56.5t-41 -46t-45.5 -19.5h-360q-59 0 -88 31t-29 53zM831 86q0 14 35 55t76 92.5 t76 105.5t35 93q0 31 -33 69t-72 75.5t-72.5 71.5t-35.5 57q2 4 35.5 35.5t74.5 74.5t75 88t34 76q0 20 -31 57t-66.5 77t-66.5 75t-31 53q0 51 59.5 69.5t139.5 18.5q76 0 166 -23.5t165.5 -66.5t127 -102.5t51.5 -130.5q0 -92 -156 -281q2 -33 30 -84t61.5 -106.5 t61 -108.5t27.5 -86q0 -61 -31.5 -120.5t-81.5 -108t-114.5 -77t-130.5 -28.5h-321q-86 39 -87 80z" />
<glyph unicode="c" horiz-adv-x="1484" d="M31 508v301q0 4 6 15.5t12 29.5q37 104 104.5 191.5t149.5 151t167 99t157 35.5q18 0 31.5 -4t23.5 -17.5t15 -41t5 -76.5q0 -59 -13 -98t-36 -72q-23 -29 -35 -56.5t-19 -66.5t-9 -93t-2 -136q0 -43 6 -108.5t14 -127t14.5 -107.5t6.5 -48v-259q-28 -22 -68 -22h-4 q-72 0 -163 52t-172 130t-136 166t-55 162zM831 150q0 23 13 40l100 218q68 121 139.5 170t126.5 49q109 0 109 -164q0 -94 -35 -175t-91 -141.5t-126 -94.5t-137 -34q-45 0 -72 33t-27 99zM911 1235v17.5t2 17.5q20 2 65.5 10t96.5 17.5t98.5 16.5t71.5 7q59 0 99 -28.5 t40 -75.5v-254q0 -41 -15 -72t-37.5 -51.5t-48.5 -31.5t-46 -11q-51 0 -108.5 45t-105.5 111.5t-80 142t-32 139.5z" />
<glyph unicode="d" horiz-adv-x="1640" d="M51 104q0 20 18.5 69.5t42 105t42 105.5t18.5 73v542q0 14 -29 60q-23 29 -33 45t-15 40.5t-7 66.5t-6 120h471l76 -74v-1060q0 -25 -12.5 -59t-31 -62.5t-41 -49t-44.5 -20.5h-344l-16 5q-17 5 -36.5 16.5t-36 30t-16.5 46.5zM807 127q0 29 15.5 53.5t47.5 52.5 q51 43 80 74t46.5 63.5t29.5 75.5t31 113l8 33v178q0 18 -18 109q-10 53 -16.5 81.5t-14.5 45t-19.5 26.5t-31.5 25q-90 59 -124 106t-34 64q0 37 30.5 58.5t72.5 32.5t87 14t74 3q117 0 213 -47t165 -132t106.5 -202t37.5 -256q0 -145 -40 -269t-112.5 -214t-175 -142.5 t-227.5 -52.5q-109 0 -215 33q-16 35 -16 74z" />
<glyph unicode="e" horiz-adv-x="1691" d="M66 94q0 18 18 62.5t39.5 92.5t40 87t18.5 49v420q0 82 -2 135t-6 82q-2 8 -15.5 31.5t-28.5 54.5t-28.5 65.5t-13.5 69.5q0 59 80 84l20 4h445q-4 -31 -6 -89t-2 -146v-992q-33 -39 -107 -98h-393q-59 31 -59 88zM786 678q0 25 16.5 63.5t42 75.5t56.5 62.5t57 25.5 q70 0 70 -127q0 -80 -5 -132t-16.5 -81.5t-30 -42t-46.5 -12.5q-27 0 -52.5 16.5t-46 42t-33 55t-12.5 54.5zM807 117q0 59 47 75t129 17q61 0 100 36t69 86t54.5 104t59.5 93h290v-422q0 -37 -75 -100h-598q-35 0 -55.5 36t-20.5 75zM827 1202q37 131 111 132l565 -3 l78 -74v-395q-37 -37 -104.5 -60.5t-124.5 -23.5q-51 0 -75 28t-39 67.5t-30.5 85t-46.5 81.5q-20 25 -72.5 51.5t-108.5 50t-101 40t-52 20.5z" />
<glyph unicode="f" horiz-adv-x="1540" d="M4 86q0 16 19.5 57t42 85t42 83t19.5 54v166.5t2 93.5l18 284l-8 23q-8 24 -20.5 60t-27.5 78t-27.5 80t-20.5 66.5t-8 38.5q0 25 12 31q18 0 65.5 11.5t102.5 23.5t109.5 22.5t85.5 10.5t65.5 -10.5t64 -29t49 -45t19.5 -59.5l-24 -733q133 -254 133 -350 q0 -35 -10.5 -57.5t-42 -37t-93 -20.5t-161.5 -6h-342q-63 27 -64 80zM778 700q0 178 117 222q16 -12 34.5 -32t43.5 -44v-262q-49 -49 -99 -49q-96 0 -96 165zM788 1255q8 14 28 36t43.5 41.5t50 32.5t51.5 13h536v-426q-57 -82 -188 -82q-37 0 -60.5 2t-42 14.5t-39 40 t-53.5 79.5q-27 39 -42 64.5t-32.5 40.5t-43 24.5t-68.5 19.5q-45 10 -73 20.5t-42 22.5t-19.5 26.5t-5.5 30.5z" />
<glyph unicode="g" horiz-adv-x="1691" d="M29 647q0 139 45 258t127 206t196.5 136t253.5 49q25 0 45.5 -1t34.5 -9t22.5 -25.5t8.5 -50.5q0 -29 -8.5 -62.5t-28.5 -74.5l-57 -131q-16 -41 -54 -270v-137q0 -27 22.5 -91.5t63.5 -173.5q27 -61 39.5 -104t12.5 -66q0 -37 -19.5 -65.5t-56.5 -54.5q-145 2 -264 52 t-204 139t-132 211t-47 265zM944 90q0 18 15.5 58t34 83t33.5 81t15 53q0 16 -8 48.5t-19 68.5t-19.5 70t-8.5 52v6q20 12 48 23.5t67 19.5q59 16 90 22.5t29 6.5h211q59 -18 97 -31.5t63.5 -24t41 -20.5t27.5 -22q-4 -23 -16.5 -51.5t-32.5 -69.5q-25 -45 -37 -67.5 t-19.5 -52.5t-12.5 -81t-13 -151l-8 -60q-4 -18 -41 -26.5t-105.5 -11.5t-166 -4t-222.5 -7q-43 37 -43 88zM963 1180q0 14 9 31.5t22.5 33t28.5 25.5t28 10q14 0 40.5 -6t56.5 -14.5t56.5 -14.5t38.5 -6q14 0 43 4t58.5 9t57.5 9.5t42 4.5q76 0 103.5 -33t27.5 -107 q0 -98 -7 -161.5t-25.5 -102.5t-47.5 -54t-72 -15q-111 0 -172 30.5t-94 71.5t-46 79t-30 54l-75 68q-43 41 -43 84z" />
<glyph unicode="h" horiz-adv-x="1804" d="M51 135q0 47 37 82l62 53q36 54 36 349v16v106.5t-4 114.5l-4 111q0 12 -17.5 47t-38 74.5t-36.5 76.5t-16 52q0 16 11 35.5t28.5 36t38 26.5t38.5 10h461q72 0 119 -78q0 -113 -27 -147q-23 -8 -39 -23q-16 -12 -27 -33.5t-11 -50.5q0 -63 9 -94t24.5 -44t31.5 -16 t31.5 -8.5t25 -18.5t9.5 -50q0 -16 -1 -32.5t-4 -33.5q0 -6 -26.5 -42t-57 -83t-56 -97t-25.5 -87q0 -49 19.5 -85t42 -66.5t41.5 -59.5t19 -61q0 -16 -2 -35t-6 -41l-80 -39h-587q-8 55 -13.5 90t-5.5 45zM928 719v20q0 20 27.5 46t59.5 53.5t59.5 58.5t27.5 61 q0 98 -78 99q-14 0 -23 -4h-20q-47 0 -47 47q0 39 94 200h539h3q118 0 118 -83q0 -18 -17.5 -63.5t-39 -91.5t-39 -81t-17.5 -31q0 -39 -3 -118.5t-8 -169t-8.5 -169t-3.5 -118.5q0 -20 17.5 -64.5t39 -92.5t40 -90t18.5 -56q0 -53 -53 -97h-586l-74 56v10q0 27 22.5 83 t48.5 117.5t48.5 117t22.5 81.5q0 61 -23.5 101.5t-89.5 95.5q-39 33 -47 49t-8 33z" />
<glyph unicode="i" horiz-adv-x="915" d="M63 1239l19 41q25 33 114 46t210 13h333q6 -23 6 -47q0 -78 -92 -256v-694q0 -6 19.5 -41t43 -76t43 -77t19.5 -48q0 -25 -29.5 -58.5t-80.5 -33.5h-490q-47 0 -72.5 29t-25.5 49q0 14 14.5 45t31.5 62.5t31.5 56t14.5 29.5v682q0 4 -16.5 45t-37 90t-36.5 92t-19 51z " />
<glyph unicode="j" horiz-adv-x="1267" d="M48.5 376q19.5 38 51 66.5t70.5 47t76 18.5q57 0 97 -19.5t65.5 -63.5t37 -118t11.5 -180q0 -125 -111 -125q-39 0 -80 16q-237 84 -237 279q0 41 19.5 79zM465 1217q0 63 76 94h323q307 0 307 -121q0 -14 -14 -50t-30.5 -74t-31 -69.5t-14.5 -38.5v-626 q0 -51 -32.5 -110.5t-84 -110t-110.5 -84t-113 -33.5q-139 0 -139 205v731q0 6 -21.5 45t-47 86t-47 92t-21.5 64z" />
<glyph unicode="k" horiz-adv-x="1697" d="M43 1339h561q53 0 83 -32.5t30 -59.5q0 -16 -16.5 -52t-35 -72t-35 -62.5t-16.5 -24.5v-694q0 -12 12.5 -41t28 -59.5t28.5 -58t13 -40.5q0 -66 -90 -129h-461q-16 0 -24 1t-17.5 8.5t-21.5 21.5t-35 41l-2 10q2 20 8 52t25 75l49 127q4 18 6 44t2 57q0 18 -2 51t-2 51 v475q0 8 -13.5 39t-30.5 74t-30.5 94t-13.5 104zM774 727q0 27 21.5 80t47 108.5t47 102.5t21.5 63q0 14 -3 35t-7 43.5t-7 44t-3 33.5q0 47 40 75.5t95 28.5h506q33 -45 33 -75q0 -33 -29 -67t-71 -68.5t-92 -71.5t-92 -75t-70.5 -79t-28.5 -82q0 -45 26.5 -103t83.5 -126 l207 -242q109 -139 109 -231q0 -57 -39 -107h-582q-76 0 -76 154q0 8 1 24.5t1 33t1 31.5t1 24q0 53 -10 84q-49 98 -90 194t-41 168z" />
<glyph unicode="l" horiz-adv-x="1452" d="M31 1270q0 10 8 25.5t24.5 28.5t40 22.5t56.5 9.5h364q244 0 244 -70q0 -8 -21.5 -43t-47 -77t-47 -80.5t-21.5 -57.5v-852q0 -16 -13.5 -45t-33 -56.5t-42 -48t-40.5 -20.5h-246q-213 0 -213 105q0 18 16.5 59t37 83t37 74.5t16.5 37.5v634q0 20 -18.5 60.5t-41 83.5 t-41 80t-18.5 47zM819 147q0 16 37 54l53 51q27 29 43.5 47t26.5 37.5t17.5 47.5t17.5 77q10 37 22.5 63.5t30.5 44t46 24.5t69 7q84 0 153 -33q27 -41 39 -75.5t12 -63.5v-276q0 -39 -30.5 -83t-71.5 -63h-395q-10 12 -22.5 30.5t-22.5 38t-17.5 39t-7.5 33.5z" />
<glyph unicode="m" horiz-adv-x="2260" d="M178 1239q0 51 58 88h575q63 0 102 -47t75 -146.5t82 -254t124 -369.5q45 -123 65.5 -213t20.5 -143q0 -133 -131 -134q-47 0 -80 12.5t-65.5 54.5t-69.5 123t-90 218q-16 41 -39 93t-45.5 99.5t-44 80t-35.5 32.5q-25 0 -44.5 -26.5t-19.5 -55.5v-303q0 -4 17.5 -32.5 t38 -65.5t38 -73t17.5 -54q0 -68 -74 -125h-350q-117 47 -117 117q0 14 17.5 46t38 66.5t38 64.5t17.5 40v635q0 12 -18.5 51t-41 83t-41 84t-18.5 54zM1292 979q0 160 52.5 254t156.5 94h531l22 -6q90 -31 90 -98q0 -16 -17.5 -56.5t-36.5 -82.5t-36.5 -74.5t-17.5 -34.5 v-627q0 -4 18.5 -38t41 -77t40.5 -85t18 -62q0 -49 -30 -88h-537l-22 6q-66 25 -66 82q0 6 12.5 53t27.5 110.5t28.5 132.5t13.5 120q0 4 -8 56t-25 153q-16 -4 -40.5 -18.5t-49 -31t-46 -30t-30.5 -17.5q-18 20 -34.5 61.5t-28.5 91.5t-19.5 105.5t-7.5 106.5z" />
<glyph unicode="n" horiz-adv-x="1787" d="M39 1266q0 65 161 65h5h432q57 0 143 -33q61 -86 127 -190t130.5 -215t127 -223.5t115.5 -216t94 -192.5t66 -155q-98 -98 -199 -98q-111 0 -233 129q-20 23 -53 66t-72 96t-79 110.5t-75 106.5t-61.5 85t-34.5 46q-8 -2 -27.5 -17.5t-48.5 -45.5v-252q0 -2 15.5 -30 t33 -62.5t32.5 -67.5t15 -47q0 -72 -104 -121h-227q-240 0 -240 70q0 8 16.5 40.5t37 72.5t36.5 78t16 54v658q0 14 -23.5 57t-51 91.5t-51 89t-23.5 51.5zM1159 1303q16 14 46 26t60.5 21.5t58.5 16.5l44 11h211q25 0 46.5 -10t35.5 -25.5t22.5 -32t8.5 -28.5 q0 -14 -16.5 -50t-36 -75t-36 -70.5t-16.5 -37.5q0 -104 -1 -162t-3 -68l-51 -356q-53 47 -98 109.5t-80 140.5q-14 29 -31.5 78t-36 108t-38 122.5t-37 119t-31 98.5t-21.5 64z" />
<glyph unicode="o" horiz-adv-x="1593" d="M39 543v323q0 12 12 54q25 82 85.5 156.5t137 132t160.5 92t156 34.5q25 0 48.5 -2t41.5 -11t29.5 -25.5t11.5 -47.5q0 -37 -20.5 -107.5t-45 -147t-45 -144.5t-20.5 -98v-174q10 -72 33.5 -151t47 -146.5t42 -114.5t18.5 -55q0 -14 -4 -34t-16.5 -37t-33 -29.5 t-50.5 -12.5q-55 0 -120 26.5t-130.5 71.5t-126 102.5t-107.5 118t-75.5 119t-28.5 107.5zM922 84q0 41 16 109.5t34.5 158.5t35 201t16.5 238l-10 43q-32 123 -54 221q-20 90 -20 164v14l2 49q29 4 56.5 7t54.5 3q113 0 205 -51t157.5 -140t101 -208t35.5 -256 q0 -141 -37.5 -260t-107.5 -206t-169 -136t-224 -49q-49 0 -70.5 19.5t-21.5 78.5z" />
<glyph unicode="p" horiz-adv-x="1548" d="M20 106q0 18 16.5 62.5t37 91.5t37 84t16.5 41v567l-15 32q-16 32 -33.5 76t-32.5 90t-15 71q0 59 35 110h366q20 0 44 -9t45.5 -22.5t39 -31t23.5 -35.5v-647q0 -84 16 -158t51 -133l62 -100q49 -85 49 -91q0 -16 -10.5 -47.5t-10.5 -50.5h-608q-53 0 -83 33t-30 67z M774 1198q0 66 49 113h369q68 0 127 -27t103 -74t69 -111.5t25 -140.5q0 -66 -23 -133t-62.5 -122.5t-95 -90t-118.5 -34.5h-297q-14 0 -32 13t-34 31.5t-28.5 40t-18.5 39.5q4 12 31.5 47t58.5 76t56.5 79t25.5 57q0 23 -20.5 49t-79.5 75q-33 27 -53.5 44.5t-32 29.5 t-15.5 20.5t-4 18.5z" />
<glyph unicode="q" horiz-adv-x="1779" d="M29 539v288q0 53 28.5 111.5t76.5 117t110.5 111t132 93t141.5 64.5t137 24q29 0 36 -11.5t7 -31.5v-23q0 -31 -14 -91.5t-32.5 -119.5t-33 -103t-14.5 -40v-484q92 -178 92 -286q0 -133 -133 -133q-84 0 -177 48t-173 122.5t-132 166t-52 177.5zM907 1319q57 51 154 51 q92 0 189.5 -41t178 -111.5t132 -163.5t51.5 -198v-184q0 -29 -17.5 -87.5t-39 -120t-39 -111.5t-17.5 -64q0 -86 154 -88v-8q0 -264 -254 -265q-49 0 -110.5 12.5t-125 35t-124 52t-109.5 66.5q2 14 19.5 67.5t38 113t36.5 110.5t16 59v453l2 2q0 8 -19 55t-43 111.5 t-45.5 133.5t-27.5 120z" />
<glyph unicode="r" horiz-adv-x="1839" d="M39 1249q0 61 65 99h441l98 -72v-881l70 -174q23 -57 30 -101t13 -75q0 -16 -2 -22h-584q-31 0 -53.5 10t-39 25.5t-24.5 33t-8 31.5t18.5 51t42 77t42 70.5t18.5 32.5v613q0 6 -19.5 43t-44 84t-44 92t-19.5 63zM827 1274v10t2 16l252 19q63 4 109.5 6t79.5 2 q31 0 87 -30.5t112.5 -82t98.5 -116t42 -131.5q0 -82 -80 -156l-100 -94q12 -41 27.5 -110.5t47 -145.5t86 -146.5t142.5 -115.5q-4 -113 -87 -177.5t-214 -64.5q-225 0 -322 160q-12 20 -18.5 41.5t-13.5 55.5t-18 82t-34 122q-10 18 -42 50t-65.5 69.5t-61.5 79.5t-28 81 v25.5t2 24.5q78 43 125.5 72.5t72 53t31.5 48t7 59.5q0 31 -38 68.5t-82 76.5t-82 78t-38 70z" />
<glyph unicode="s" horiz-adv-x="1529" d="M35 885q0 78 40 156.5t103.5 143t142 104.5t156.5 40q84 0 107 -147q10 -68 18 -110t20.5 -67.5t30 -40t45.5 -26.5q16 -8 56.5 -18.5t91.5 -22.5t107.5 -24.5t105.5 -23.5t85 -19.5t46 -12.5q121 -49 185.5 -157.5t64.5 -241.5q0 -90 -44 -165t-109.5 -129t-140.5 -85 t-136 -31q-33 0 -51.5 32t-28.5 95q-29 139 -70 206t-103.5 97.5t-152.5 43t-215 42.5q-57 14 -119.5 47t-115 81t-86 107.5t-33.5 125.5zM66 180q0 78 29.5 131.5t82.5 53.5q25 0 68 -18.5t93 -48.5t103.5 -67.5t98.5 -75.5t75.5 -72t38.5 -58h-98q-98 0 -207.5 -5.5 t-232.5 -17.5q-25 27 -38 70t-13 108zM823 1217v81q94 -4 145.5 -6t61.5 -2q37 0 72 4t69 9q2 0 30 6t38 6q59 0 95 -52t36 -126q0 -72 -45 -104t-100 -32q-35 0 -72 14.5t-83 42t-105.5 67.5t-141.5 92z" />
<glyph unicode="t" horiz-adv-x="1650" d="M0 997v226q0 49 54.5 83.5t131.5 34.5q119 0 181 -65v-379q-63 -70 -174 -70q-80 0 -136.5 45.5t-56.5 124.5zM428 115q0 14 19.5 48t42 72.5t42 72.5t19.5 46v871q49 114 216 114h3q49 0 91 -10t75 -27.5t52.5 -38t19.5 -38.5l22 -805q2 -29 24.5 -81t50.5 -104.5 t50.5 -95.5t22.5 -51q0 -55 -103 -82l-33 -8h-505q-109 53 -109 117zM1178 1188q0 57 14 90t43 49t70 20.5t94 4.5q188 0 188 -152q0 -8 -3 -24.5t-4 -22.5v-168q-16 -80 -75 -139h-239q-18 25 -33.5 63.5t-28 85.5t-19.5 97.5t-7 95.5z" />
<glyph unicode="u" horiz-adv-x="1624" d="M37 1188q0 29 8 66.5t27 84.5h512q70 0 105.5 -33.5t35.5 -66.5q0 -16 -20.5 -58t-45 -88t-45 -84t-20.5 -44v-508q0 -10 20.5 -54.5t46 -98.5t46 -105.5t20.5 -71.5q0 -82 -72 -131h-22q-37 0 -88 17.5t-106.5 45t-110 65.5t-97.5 79t-69.5 83t-26.5 81v501 q0 53 -15.5 101.5t-33.5 89.5t-33.5 73.5t-15.5 55.5zM915 150q0 29 29 68.5t63.5 90.5t63.5 111.5t29 132.5v293q0 27 -12.5 65.5t-31 81.5t-41 86t-41 78t-30.5 57l-12 21q0 84 344 84h229q25 -47 25 -98q0 -25 -14.5 -69t-31 -88t-30.5 -80t-14 -42v-551 q0 -55 -45 -120.5t-110.5 -123t-140.5 -95.5t-134 -38q-49 0 -72 30t-23 106z" />
<glyph unicode="v" horiz-adv-x="1585" d="M2 1214q6 25 27.5 44.5t53.5 33t71 20.5t82 7h415q57 -20 58 -92q0 -18 -7.5 -56t-16.5 -79t-16 -78t-7 -56q0 -35 38.5 -155.5t116.5 -323.5q111 -292 111 -413q-20 -16 -54 -29.5t-72 -25t-77 -17.5t-68 -6q-41 0 -72.5 11t-57 40t-51 75t-54.5 117q-94 272 -200.5 519 t-219.5 464zM940 1286q49 53 123 53h391q49 -47 49 -137q0 -20 -23.5 -63t-51 -88t-52 -80t-24.5 -37q-18 -41 -48 -125t-63 -177t-61.5 -177t-46.5 -123q-150 82 -150 342q0 55 12 147l15 152q0 12 -11.5 48t-23.5 82t-23.5 95t-11.5 88z" />
<glyph unicode="w" horiz-adv-x="2263" d="M70 1274q63 74 211 74h354l98 -127l-59 -246l215 -975h-258q-43 0 -79 49t-76 154.5t-90 271.5t-122 399q-2 4 -27.5 52.5t-59.5 113t-64.5 130t-42.5 104.5zM915 1223q0 8 14.5 37.5t14.5 46.5q0 12 -2 16h393q84 0 144 -74v-24q0 -25 -9.5 -68t-19.5 -89t-19.5 -87 t-9.5 -61q0 -41 34 -155t106 -304q104 -281 104 -400q0 -29 -21.5 -45t-50 -25t-55.5 -12.5t-39 -3.5q-82 0 -141 84q-4 4 -16.5 29t-30 60.5t-38 75.5t-42 75t-42 57.5t-36.5 22.5q-20 0 -58 -4t-59 -4q-29 27 -98 164v227q0 12 7 42t15.5 63.5t15.5 64.5t7 47q0 33 -25 88 q-16 33 -24 52.5t-12 32.5t-5.5 28.5t-1.5 42.5zM1694 1188q0 76 51 115h373q37 0 58.5 -42.5t21.5 -99.5q0 -29 -19.5 -64.5t-44.5 -67.5t-46.5 -56.5t-23.5 -30.5q-20 -43 -42.5 -106.5t-44 -132t-41 -137t-35 -123t-23.5 -87.5l-8 -34q-39 27 -71 62.5t-55.5 74.5 t-35.5 80t-12 79q0 23 9 65t20.5 88t20.5 87t9 62q0 8 -9 44.5t-21.5 79.5t-21.5 84t-9 60z" />
<glyph unicode="x" horiz-adv-x="1632" d="M8 1231q0 53 44 89t98 36l559 -25q55 -4 55 -104q0 -20 -2 -60.5t-2 -62.5q0 -123 51 -186q33 -39 107.5 -112t165 -158t183.5 -172t163 -152l108 -115q23 -28 23 -55q0 -88 -97 -148h-577q-61 27 -62 103q0 12 3 37.5t7.5 53t7.5 51t3 34.5q0 68 -41 112 q-74 80 -126 140.5t-108.5 124t-130 143.5t-188.5 203q-16 16 -42 33.5t-65 41.5q-76 47 -106.5 78t-30.5 70zM29 109q12 49 61 94q63 47 122.5 94t108 84t83 59.5t51.5 22.5q31 0 60.5 -36t54 -85t40 -102t15.5 -88q0 -145 -148 -146h-254q0 -2 -4 -2q-10 0 -38.5 5 t-59.5 16.5t-57.5 32t-34.5 51.5zM983 1210q0 76 41 121h467q16 -16 16 -51q0 -41 -22.5 -72.5t-54 -57.5t-64.5 -50.5t-51 -48.5q-12 -12 -36 -37t-49.5 -51.5t-50 -46t-38.5 -19.5q-23 0 -49.5 28.5t-51 73.5t-41 101.5t-16.5 109.5z" />
<glyph unicode="y" horiz-adv-x="1597" d="M-20 1159q0 84 98 152h438q10 0 29.5 1t41 3t41 3t31.5 1h44.5t38 -8t26.5 -25.5t10 -54.5q0 -29 -4 -82t-4 -82q0 -41 3 -66.5t15.5 -51t37 -56.5t67.5 -80q43 -47 66.5 -79t35 -55.5t13.5 -45t2 -45.5q0 -6 -1 -28.5t-3 -49.5t-3.5 -53.5t-1.5 -40.5q0 -137 113 -234 q10 -20 10 -53q0 -45 -22.5 -61.5t-93.5 -32.5l-121 -31h-185q-12 0 -37.5 -5t-53 -10t-53.5 -10.5t-38 -5.5q-63 0 -100 62v6q0 14 8 34.5t29 49.5q33 45 51 76.5t27.5 60.5t11.5 58.5t2 70.5q0 168 -123 307l-137 148l-82 82t-60 53q-14 8 -41.5 25.5t-55 41t-49 52 t-21.5 59.5zM1016 1223q0 166 139 166q14 0 39 -5.5t37 -5.5h274q43 -29 43 -80q0 -150 -389 -419q-29 20 -54.5 60t-46 88t-31.5 99.5t-11 96.5z" />
<glyph unicode="z" horiz-adv-x="1607" d="M31 51q0 125 248 436q78 100 167 200.5t179 191t178 168t164.5 134t137 89.5t97.5 33h180q80 -1 80 -48q-2 -45 -60.5 -137t-180.5 -231q-33 -35 -114 -123t-212 -225q-20 -23 -66.5 -72t-102.5 -108.5t-116.5 -124t-112 -116.5t-86 -86t-38.5 -34h-248h-7t-9 -2h-17 q-61 0 -61 55zM68 899v348q37 80 127 80h458q25 -31 25 -84q0 -4 1 -8t1 -8t-3 -8.5t-15.5 -11.5t-35 -18t-59.5 -30q-68 -33 -99.5 -55.5t-50 -52t-35.5 -74.5t-54 -123q-45 -27 -117 -27q-115 0 -143 72zM827 96v10l140 97q41 29 70.5 57.5t52.5 52.5q12 14 30.5 46t37 67 t34.5 66.5t27 44.5q51 4 76.5 7t27.5 3q162 0 162 -150v-252q0 -51 -20.5 -90t-53.5 -67h-563q0 20 -10.5 55t-10.5 53z" />
<glyph unicode="{" horiz-adv-x="849" d="M88 645q0 53 18.5 83t47 45t60.5 20.5t60.5 9.5t47 11t18.5 26q0 29 -7 54.5t-15.5 53t-15.5 63.5t-7 85q0 94 22.5 152.5t70.5 90t123 42t179 10.5q57 0 99 -24t42 -99q0 -43 -19 -65.5t-50 -33t-64.5 -14.5t-64.5 -10t-50.5 -19.5t-19.5 -42.5t7.5 -57.5t16.5 -57 t16 -58t7 -60.5q0 -47 -15 -80t-34.5 -55.5t-35 -36.5t-15.5 -25q0 -10 16.5 -19t35 -25.5t34.5 -42t16 -68.5q0 -35 -10 -66t-22.5 -58.5t-22.5 -54t-10 -53.5q0 -47 20.5 -70.5t51 -37t65.5 -20.5t65.5 -19.5t51 -35t20.5 -65.5q0 -127 -164 -127q-102 0 -172.5 27 t-113.5 67t-62.5 88t-19.5 89q0 35 8 65.5t19.5 59t19.5 56.5t8 56q0 43 -19.5 64.5t-47 34t-61.5 18.5t-61.5 19.5t-47 38t-19.5 71.5z" />
<glyph unicode="|" horiz-adv-x="636" d="M188 -4q0 82 1 147.5t1 137t1.5 164t1.5 229.5v231t-1.5 162t-1.5 120v105q0 72 38 99.5t85 27.5q23 0 44.5 -5t38 -18.5t26.5 -40t10 -69.5q0 -55 -2 -99t-4 -103.5t-4 -149.5t-2 -238q0 -147 2 -243.5t5 -172t5 -142t2 -154.5q0 -41 -24.5 -68t-106.5 -27 q-51 0 -83 22.5t-32 84.5z" />
<glyph unicode="}" horiz-adv-x="849" d="M20 1268q0 76 42.5 99.5t99.5 23.5q104 0 179 -10.5t124 -42t71.5 -90t22.5 -152.5q0 -49 -7 -85t-15.5 -63.5t-15.5 -53.5t-7 -54q0 -18 18.5 -25.5t46 -11.5t60.5 -9.5t60.5 -20.5t46 -45t18.5 -83q0 -47 -19.5 -71.5t-47 -38t-61.5 -19.5t-61.5 -18.5t-47 -34 t-19.5 -64.5q0 -29 8 -56.5t19.5 -56t19.5 -59t8 -65.5q0 -41 -18.5 -89t-61.5 -88t-113.5 -67t-174.5 -27q-164 0 -164 127q0 43 20.5 65.5t51 35t65.5 19.5t65.5 20.5t51 37t20.5 70.5q0 27 -10 53.5t-22.5 54t-22.5 58.5t-10 66q0 43 16 68.5t34.5 42t35 25.5t16.5 19 t-15.5 24.5t-35 37t-34.5 55.5t-15 80q0 31 7 60.5t16 58t16.5 57.5t7.5 57q0 29 -19.5 42.5t-50.5 19.5t-64.5 10t-64.5 14.5t-50.5 33t-19.5 65.5z" />
<glyph unicode="~" horiz-adv-x="1292" d="M78 584q0 55 26.5 101t66.5 78t89 50t94 18q111 0 183.5 -20t125 -44t91.5 -44.5t82 -20.5q63 0 95 17.5t52.5 38t39.5 38t58 17.5q66 0 91.5 -40t25.5 -99q0 -66 -28.5 -111t-71.5 -72.5t-94.5 -39t-96.5 -11.5q-106 0 -169.5 18.5t-109.5 42t-87 42t-105 18.5 q-55 0 -90 -16.5t-58.5 -37t-43 -36.5t-43.5 -16q-51 0 -87 28.5t-36 100.5z" />
<glyph unicode="&#xa1;" horiz-adv-x="612" d="M76 92q0 41 7 92t19.5 108.5t27 117t28.5 114.5q4 31 12 88t22.5 113.5t34 98.5t46.5 42q23 0 38 -13.5t30.5 -49t32.5 -98t40 -161.5l59 -180q18 -55 28.5 -101t10.5 -85q0 -55 -15 -104.5t-43 -87t-67 -59t-86 -21.5q-102 0 -163.5 51t-61.5 135zM123 1120 q0 154 139 154q172 0 172 -152q0 -27 -18 -53.5t-44 -49t-55.5 -37t-54.5 -14.5q-27 0 -52 13.5t-44.5 35t-31 49t-11.5 54.5z" />
<glyph unicode="&#xa2;" horiz-adv-x="1259" d="M51 604v137q0 104 50.5 195.5t125 161t162.5 109.5t164 40q16 0 29.5 -3t23.5 -13t16.5 -32.5t6.5 -59.5q0 -55 -16.5 -82t-35 -60.5t-35 -93t-16.5 -176.5q0 -31 6.5 -81t12.5 -99t12 -86t6 -39v-203q-29 -16 -63 -16q-59 0 -137 41t-147 102.5t-117 131t-48 126.5z M561 1354q0 35 39 60.5t90 25.5q57 0 95 -25.5t38 -60.5q0 -37 -39 -62.5t-94 -25.5q-51 0 -90 24.5t-39 63.5zM594 74q0 43 35 74.5t82 31.5t79.5 -31.5t32.5 -74.5q0 -47 -32.5 -78t-79.5 -31t-82 31t-35 78zM737 324q0 12 10.5 37.5t25.5 54t30.5 58.5t25.5 50 q61 96 122 133t110 37q90 0 90 -127q0 -92 -36 -157.5t-88 -108.5t-108.5 -63.5t-99.5 -20.5q-37 0 -59.5 26.5t-22.5 80.5zM803 1174v13t2 11q16 0 54 7t81 14.5t84 13.5t66 6q57 0 88.5 -24.5t31.5 -57.5v-196q0 -29 -13 -53.5t-32.5 -42t-42 -28t-39.5 -10.5 q-47 0 -96 36t-90 88.5t-67.5 112.5t-26.5 110z" />
<glyph unicode="&#xa3;" horiz-adv-x="1214" d="M23 109q0 55 17 89.5t52 53t90.5 25t130.5 6.5q39 0 85 -7.5t90 -16.5t84 -16t65 -7q55 0 94 10t73 21.5t67.5 21.5t78.5 10q84 0 120 -52t36 -153q0 -72 -52.5 -94.5t-125.5 -22.5q-98 0 -195.5 17.5t-202.5 17.5q-20 0 -63 -6t-95.5 -14t-104.5 -14.5t-89 -6.5 q-25 0 -51.5 5.5t-50 19.5t-38.5 42t-15 71zM74 608q0 31 6 58.5t20.5 50t39 36t61.5 13.5q43 0 58 -7t32 -7q10 0 13 32.5t5 59.5t4 77t16.5 110.5t46.5 122t93 110.5q41 33 86 56t82 23q29 0 61.5 -17t32.5 -58q0 -55 -20.5 -105.5t-45 -102.5t-45 -106.5t-20.5 -117.5 q0 -43 9 -67t38 -24q23 0 65 12.5t95 12.5q49 0 92 -40t43 -97q0 -59 -28.5 -106.5t-104.5 -47.5q-29 0 -45 5t-31.5 10.5t-34 10.5t-53.5 5q-31 0 -48 -21.5t-38.5 -47t-55.5 -47t-97 -21.5q-47 0 -84 23.5t-37 60.5q0 20 -33 24t-73 13.5t-72.5 32t-32.5 81.5zM866 1225 q0 49 7.5 75.5t16.5 40t20.5 15.5t21.5 2q63 -10 106 -30.5t69 -46.5t36 -53.5t10 -49.5q0 -10 -6 -33t-23.5 -46.5t-50.5 -42t-86 -18.5q-35 0 -58.5 16.5t-37.5 43t-19.5 59.5t-5.5 68z" />
<glyph unicode="&#xa5;" horiz-adv-x="1671" d="M74 1159q0 84 98 152h434q12 0 31.5 1t41 3t42 3t33.5 1q23 0 44 -1t37.5 -8t26.5 -25.5t10 -53.5q0 -29 -4 -82t-4 -82q0 -41 2 -66.5t13.5 -50t36 -55.5t69.5 -82q39 -43 61.5 -72.5t35 -52t15.5 -41t3 -39.5q321 -6 321 -133q0 -63 -327 -82q2 -35 16 -80l61 6 q35 2 63 1t46 4q125 0 125 -72q0 -78 -188 -113v-10q0 -33 -18.5 -51.5t-50.5 -30.5t-75 -20.5t-94 -22.5h-182q-12 0 -38 -5t-54.5 -10t-54 -10.5t-38.5 -5.5q-66 0 -98 62v6q0 27 35 84l2 4h-184q-45 0 -78 42t-33 95q0 55 348 56h33q2 16 4 32.5t2 34.5h-29 q-80 -2 -139 -2h-100q-121 0 -121 74q0 141 324 155q-12 23 -27.5 42.5t-32.5 39.5q-63 72 -105 118t-73 77t-54.5 50.5t-47.5 37.5l-136 102q-29 33 -28 76zM1108 1223q0 166 137 166q14 0 40 -5.5t38 -5.5h274q41 -29 41 -80q0 -150 -389 -419q-29 20 -53.5 60t-45 88 t-31.5 100.5t-11 95.5z" />
<glyph unicode="&#xa6;" horiz-adv-x="636" d="M188 -68q0 35 1 61.5t1 56.5t1.5 69t1.5 96v96t-1.5 68t-1.5 50.5v43.5q0 29 38 40t85 11q45 0 82 -9t37 -46q0 -23 -2 -41t-4 -43t-4 -62.5t-2 -99.5q0 -61 2 -101t5 -71t5 -58.5t2 -64.5q0 -16 -24.5 -27.5t-106.5 -11.5q-51 0 -83 8.5t-32 34.5zM188 827q0 35 1 61.5 t1 56.5t1.5 69t1.5 96v96t-1.5 68t-1.5 50.5v43.5q0 29 38 40t85 11q45 0 82 -9t37 -46q0 -23 -2 -41t-4 -43t-4 -62.5t-2 -99.5q0 -61 2 -101t5 -71t5 -58.5t2 -64.5q0 -16 -24.5 -27.5t-106.5 -11.5q-51 0 -83 8.5t-32 34.5z" />
<glyph unicode="&#xa7;" horiz-adv-x="1300" d="M135 362q0 57 29 115t75 105t103 76.5t113 29.5q63 0 75 -108q8 -51 14.5 -82t15.5 -49.5t21.5 -27.5t32.5 -18q18 -10 71.5 -23t112 -26.5t108.5 -25t61 -17.5q88 -35 135 -112.5t47 -175.5q0 -66 -32 -120.5t-79 -94t-101 -62t-97 -22.5t-60 94q-20 100 -50 148 t-74 70.5t-108.5 32t-156.5 31.5q-41 10 -86 34t-83 58.5t-62.5 77.5t-24.5 92zM158 -152q0 59 22.5 96.5t59.5 37.5q27 0 81 -29t109 -69t100 -81t54 -67h-74q-70 0 -147.5 -3t-165.5 -14q-39 39 -39 129zM178 1004q0 57 30 114.5t76 104.5t103 76.5t113 29.5q59 0 78 -106 q6 -49 12 -80t14 -49.5t21.5 -29.5t31.5 -20q18 -8 72.5 -21t113 -26.5t108.5 -24.5t63 -16q86 -37 133 -115.5t47 -174.5q0 -66 -32 -120t-80 -94t-101 -62.5t-96 -22.5q-45 0 -60 92q-23 102 -51.5 150t-73.5 70.5t-109.5 31t-154.5 30.5q-41 10 -87 35t-84 59.5 t-62.5 77.5t-24.5 91zM748 1247v60q70 -4 105.5 -4h43.5q49 0 102 6q2 0 22.5 6t27.5 6q43 0 67.5 -39t24.5 -92t-32 -76.5t-71 -23.5q-25 0 -51 10t-59 30.5t-77 50t-103 66.5z" />
<glyph unicode="&#xa8;" horiz-adv-x="1226" d="M90 1720q0 45 17.5 72t47 39t68.5 15t82 3q45 0 85 -3t71 -15t48 -39t17 -72t-5 -88t-26.5 -76.5t-65.5 -55t-124 -21.5q-78 0 -122 19.5t-64.5 53t-24.5 77.5t-4 91zM700 1720q0 45 17.5 72t47.5 39t70 15t85 3t84.5 -3t69.5 -15t47.5 -39t17.5 -72t-5.5 -88t-27 -76.5 t-65.5 -55t-121 -21.5q-78 0 -122 19.5t-65.5 53t-27 77.5t-5.5 91z" />
<glyph unicode="&#xaa;" horiz-adv-x="911" d="M59 674q0 10 9.5 21.5t31.5 31.5q37 41 60.5 91t54.5 136l27 80q10 23 24.5 61t30.5 89q23 61 51.5 84.5t71.5 23.5h35q-4 -47 -11.5 -86t-15.5 -73q-12 -31 -20 -56q-8 -23 -14.5 -41t-6.5 -20v-166l-35 -25q-8 -10 -13 -18t-5 -19q0 -8 6 -23l13 -32.5t13.5 -34 t6.5 -28.5q0 -51 -72 -52h-207q-16 0 -25.5 19.5t-9.5 36.5zM459 692l2 2q55 94 55 129q0 2 -6 14.5t-12 29t-12.5 35t-6.5 34.5v68l84 243q43 -31 80 -106q16 -39 32.5 -98.5t59.5 -163.5l84 -125q8 -17 8 -35q0 -31 -24.5 -48.5t-54.5 -17.5l-267 -10q-10 10 -16 22.5 t-6 26.5z" />
<glyph unicode="&#xab;" horiz-adv-x="909" d="M82 645q0 33 23.5 83t59.5 96t79 79t82 33q72 0 71 -64q0 -20 -24.5 -50.5t-55 -63.5t-55 -62.5t-24.5 -48.5q0 -23 26.5 -54.5t57 -64t57.5 -62.5t27 -46q0 -53 -64 -53q-29 0 -49.5 12t-52.5 39q-80 63 -119 115.5t-39 111.5zM537 645q0 33 23.5 83t59.5 96t79 79 t82 33q72 0 71 -64q0 -20 -24.5 -50.5t-55 -63.5t-55 -62.5t-24.5 -48.5q0 -23 26.5 -54.5t57 -64t57.5 -62.5t27 -46q0 -53 -64 -53q-29 0 -49.5 12t-52.5 39q-80 63 -119 115.5t-39 111.5z" />
<glyph unicode="&#xad;" horiz-adv-x="888" d="M90 768q0 174 277 174q41 0 127 -6q90 -8 157.5 -12t111.5 -17.5t65.5 -41.5t21.5 -83q0 -66 -170 -82t-508 -16q-82 0 -82 84z" />
<glyph unicode="&#xaf;" horiz-adv-x="1226" d="M143 1688q0 53 46.5 90t111.5 37q53 0 89 -3.5t66.5 -6.5t62.5 -5t77 -2q61 0 104 2t80 5t72 6.5t82 3.5q37 0 66.5 -13.5t49 -33t30 -44t10.5 -49.5q0 -29 -9.5 -56.5t-32 -49t-59.5 -34.5t-92 -13q-41 0 -76 3t-68.5 6t-70.5 6t-86 3q-53 0 -83 -3t-54.5 -6t-53 -6 t-79.5 -3q-31 0 -63 6t-58.5 24.5t-44 50t-17.5 85.5z" />
<glyph unicode="&#xb0;" horiz-adv-x="825" d="M63 1110q0 63 20.5 120.5t56.5 101.5t85 76t107 44h10q18 0 30.5 -29.5t12.5 -119.5q0 -10 -10 -23.5t-21 -15.5q-45 -16 -73.5 -57.5t-28.5 -94.5t29.5 -93t74.5 -58q6 -2 11.5 -8.5t9.5 -22t6 -44t2 -73.5q0 -43 -39 -43q-10 0 -14 4q-59 12 -108.5 43t-84.5 76 t-55.5 100.5t-20.5 116.5zM442 922q0 12 10.5 24t20.5 17q41 18 69.5 59t28.5 90t-28.5 90t-71.5 62q-6 2 -11 7t-9.5 20.5t-6.5 43t-2 74.5q0 20 12.5 31.5t28.5 11.5q4 0 7.5 -1t7.5 -1q55 -14 103 -46t83 -77t54.5 -100.5t19.5 -116.5q0 -59 -19.5 -113.5t-55.5 -98.5 t-83 -75.5t-102 -46.5q-4 -2 -13 -2q-16 0 -29.5 28.5t-13.5 119.5z" />
<glyph unicode="&#xb1;" horiz-adv-x="1140" d="M90 -138q0 178 277 179h360q92 0 153.5 -5.5t100.5 -21.5t55.5 -48t16.5 -87q0 -39 -81 -63.5t-235 -24.5h-329q-47 0 -108.5 -4t-127.5 -4q-82 0 -82 79zM90 618q0 178 277 179h106q2 41 2 73.5v44.5q0 23 -5 68t-5 68q0 41 23.5 61.5t84.5 20.5q29 0 49.5 -18.5 t33 -47.5t17.5 -66.5t5 -74.5v-129h49q92 0 153.5 -5.5t100.5 -21.5t55.5 -48t16.5 -87q0 -39 -81 -63.5t-235 -24.5h-59v-295q0 -31 -48 -53.5t-104 -22.5q-61 0 -61 230v52t4 89h-61q-47 0 -108.5 -4t-127.5 -4q-82 0 -82 79z" />
<glyph unicode="&#xb2;" horiz-adv-x="684" d="M31 1219q0 4 2 17t6 36q2 41 158 102q57 -24 57 -55q0 -12 -5 -31.5t-13 -42.5q-16 -47 -35 -71.5t-64 -24.5q-106 0 -106 70zM35 746.5v17.5q0 45 13 89t34.5 83t48.5 67.5t55 41.5l95 32q45 16 76.5 57.5t31.5 88.5q0 8 -3 23.5t-8 31.5t-8 31.5t-3 23.5q0 25 14 31 t31 6q31 0 65.5 -20.5t63 -50t47 -65.5t18.5 -67q0 -39 -34.5 -67.5t-69.5 -44.5q-2 0 -27.5 -8.5l-58.5 -19.5t-67 -24.5t-52 -27.5q39 -82 137 -82q72 0 148 41v-12q0 -104 -43 -160.5t-129 -56.5q-16 0 -48 8t-68 19t-67.5 19.5t-48.5 8.5q-37 0 -71.5 -8.5t-69.5 -22.5 q-2 10 -2 17.5z" />
<glyph unicode="&#xb3;" horiz-adv-x="720" d="M29 840q0 53 27.5 83.5t78.5 30.5q37 0 65.5 -17t48 -48t31 -70t11.5 -82q0 -12 -14.5 -21t-28.5 -9q-41 0 -81 10t-70.5 28.5t-49 42t-18.5 52.5zM59 1253q0 25 18.5 49.5t44 44t54.5 33t51 13.5h27q16 0 24.5 -5t8.5 -30q0 -33 -11.5 -68t-30 -63.5t-42 -47 t-47.5 -18.5q-12 0 -29.5 9.5t-32 22.5t-25 29.5t-10.5 30.5zM221 1067q0 20 6 39q76 0 129.5 23.5t53.5 64.5v147q14 43 61 44q27 0 54.5 -15.5t50 -38t38 -52.5t15.5 -56q0 -18 -9.5 -37t-25.5 -41l-55 -68q0 -2 15 -21.5t33.5 -47t34 -57.5t15.5 -48q0 -31 -16.5 -62.5 t-41 -57t-56 -43t-62.5 -17.5q-33 0 -51 20v138q0 29 -14.5 55.5t-36 47t-50 32.5t-55.5 12h-27q-6 12 -6 39z" />
<glyph unicode="&#xb4;" horiz-adv-x="862" d="M-27 1571q0 25 33 57.5t87 68.5t121 70.5t135.5 62.5t131 44t107.5 16q86 0 123 -32.5t37 -85.5q0 -63 -70 -97q-31 -14 -111 -39.5t-174 -51t-187 -44t-153 -18.5q-43 0 -61.5 10t-18.5 39z" />
<glyph unicode="&#xb6;" horiz-adv-x="1064" d="M49 1133q0 74 41 117.5t110.5 67t159 32t187.5 8.5q94 0 186 -3t178 -3q35 0 67 -16.5t32 -45.5t-19.5 -49t-42 -43.5t-42 -57.5t-19.5 -91q0 -131 1 -241t3 -215.5t3 -213t1 -236.5q0 -74 -33 -117.5t-114 -43.5q-74 0 -96.5 44t-22.5 121q0 70 3 122.5t6 117t6 154.5 t3 237q0 74 -16.5 109t-69.5 35t-69.5 -47.5t-16.5 -165.5q0 -184 13.5 -318.5t13.5 -218.5q0 -47 -4 -83t-18.5 -59.5t-41 -35.5t-69.5 -12q-63 0 -96 40.5t-33 116.5v496q0 102 -14.5 163.5t-35 97.5t-46 56.5t-46 42t-35 51t-14.5 87.5z" />
<glyph unicode="&#xb7;" horiz-adv-x="561" d="M106 639q0 70 48.5 115t115.5 45q70 0 118 -45t48 -115q0 -66 -48 -112t-118 -46q-68 0 -116 46t-48 112z" />
<glyph unicode="&#xb8;" horiz-adv-x="567" d="M113 -182q0 29 13 54.5t34.5 43.5t46 29.5t47.5 11.5q86 0 132 -46t46 -112q0 -84 -53 -151.5t-139 -89.5q-6 4 -7.5 22.5t-5.5 52.5q-4 41 -21.5 70t-39 49.5t-37.5 35.5t-16 30z" />
<glyph unicode="&#xb9;" horiz-adv-x="497" d="M51 748q0 8 11.5 29.5t24.5 46t24.5 46t11.5 33.5v260q0 2 -8.5 21.5t-18.5 42t-19 43t-9 24.5l88 58q57 31 96 30q23 0 38 -14t15 -41v-436q0 -8 9.5 -29.5t21.5 -47t23.5 -50.5t13.5 -37h-316q-6 6 -6 21z" />
<glyph unicode="&#xba;" horiz-adv-x="911" d="M94 918v161q0 8 8 27q12 41 42 78t69 65.5t81 46t77 17.5q27 0 46 -6.5t19 -36.5q0 -18 -10 -53t-22.5 -73t-22.5 -73t-10 -49v-88q6 -35 17 -75t23.5 -73.5t20.5 -57.5t8 -28q0 -14 -9 -34.5t-42 -20.5q-41 0 -92 28.5t-96 70.5t-76 89.5t-31 84.5zM539 688q0 20 7 54 t16 79t17.5 101.5t8.5 119.5l-4 21q-16 61 -27.5 110.5t-9.5 88.5v24q31 6 57 6q55 0 101.5 -25.5t79 -69.5t50 -104t17.5 -128q0 -70 -18.5 -129.5t-54.5 -103.5t-85 -68.5t-110 -24.5q-27 0 -36 10t-9 39z" />
<glyph unicode="&#xbb;" horiz-adv-x="985" d="M82 864q0 33 15.5 50.5t54.5 17.5q37 0 82 -31t84.5 -74t66.5 -90t27 -80q0 -53 -33 -111.5t-111 -125.5q-31 -27 -53 -42.5t-43 -15.5q-31 0 -49.5 10.5t-18.5 39.5q0 16 24 46.5t52.5 64.5t52 67t23.5 55q0 20 -27.5 50t-59.5 60.5t-59.5 60.5t-27.5 48zM576 864 q0 33 15.5 50.5t54.5 17.5q37 0 82 -31t84.5 -74t66.5 -90t27 -80q0 -53 -33 -111.5t-111 -125.5q-31 -27 -53 -42.5t-43 -15.5q-31 0 -49.5 10.5t-18.5 39.5q0 16 24 46.5t52.5 64.5t52 67t23.5 55q0 20 -27.5 50t-59.5 60.5t-59.5 60.5t-27.5 48z" />
<glyph unicode="&#xbc;" horiz-adv-x="1587" d="M63 748q0 8 11.5 29.5t24.5 46t24.5 46t11.5 33.5v260q0 2 -8.5 21.5t-18.5 42t-19 43t-9 24.5l88 58q57 31 96 30q23 0 38 -14t15 -41v-436q0 -8 9.5 -29.5t21.5 -47t23.5 -50.5t13.5 -37h-316q-6 6 -6 21zM184 14q0 37 37 90l60 86q25 33 54.5 87.5t70.5 132.5 q51 92 115.5 191t135 200.5t142 204t137.5 204.5q117 205 209 205q18 0 48 -12.5t30 -28.5q0 -31 -19.5 -65.5t-56.5 -77.5l-76 -94q-10 -12 -51 -71.5t-94 -140.5t-107.5 -172t-93.5 -165q-31 -57 -56.5 -100.5t-51 -81t-53 -78.5t-60.5 -97l-74 -120q-35 -59 -91 -98.5 t-105 -39.5t-50 41zM880 252q0 49 70 127l111 113q10 -25 10 -41q0 -6 -4 -21.5t-9.5 -31t-9.5 -31t-4 -21.5q0 -4 3 -18.5t8.5 -30.5t8.5 -32.5t3 -24.5q0 -10 -1 -17.5t-3 -17.5h-154q-29 14 -29 47zM1132 39q0 12 7.5 34.5t16.5 47t16 46t7 32.5v381q14 35 49 60.5 t76 25.5q59 0 60 -52q0 -4 -1 -8t-1 -6v-221q0 -12 11 -26.5t25.5 -30l29 -31t22.5 -25.5q-2 -12 -12.5 -29.5t-21.5 -35t-21.5 -33.5t-12.5 -29q2 -10 7 -26.5t11.5 -33t12.5 -28.5t6 -14q-10 -10 -39 -24.5t-43 -14.5l-203 14q-2 8 -2 27z" />
<glyph unicode="&#xbd;" horiz-adv-x="1650" d="M63 748q0 8 11.5 29.5t24.5 46t24.5 46t11.5 33.5v260q0 2 -8.5 21.5t-18.5 42t-19 43t-9 24.5l88 58q57 31 96 30q23 0 38 -14t15 -41v-436q0 -8 9.5 -29.5t21.5 -47t23.5 -50.5t13.5 -37h-316q-6 6 -6 21zM184 14q0 37 37 90l60 86q25 33 54.5 87.5t70.5 132.5 q51 92 115.5 191t135 200.5t142 204t137.5 204.5q117 205 209 205q18 0 48 -12.5t30 -28.5q0 -31 -19.5 -65.5t-56.5 -77.5l-76 -94q-10 -12 -51 -71.5t-94 -140.5t-107.5 -172t-93.5 -165q-31 -57 -56.5 -100.5t-51 -81t-53 -78.5t-60.5 -97l-74 -120q-35 -59 -91 -98.5 t-105 -39.5t-50 41zM938 496q0 4 2 17t6 36q2 41 158 102q57 -24 57 -55q0 -12 -5 -31.5t-13 -42.5q-16 -47 -35 -71.5t-64 -24.5q-106 0 -106 70zM942 23.5v17.5q0 45 13 89t34.5 83t48.5 67.5t55 41.5l95 32q45 16 76.5 57.5t31.5 88.5q0 8 -3 23.5t-8 31.5t-8 31.5 t-3 23.5q0 25 14 31t31 6q31 0 65.5 -20.5t63 -50t47 -65.5t18.5 -67q0 -39 -34.5 -67.5t-69.5 -44.5q-2 0 -27.5 -8.5l-58.5 -19.5t-67 -24.5t-52 -27.5q39 -82 137 -82q72 0 148 41v-12q0 -104 -43 -160.5t-129 -56.5q-16 0 -48 8t-68 19t-67.5 19.5t-48.5 8.5 q-37 0 -71.5 -8.5t-69.5 -22.5q-2 10 -2 17.5z" />
<glyph unicode="&#xbe;" horiz-adv-x="1785" d="M64 840q0 53 27.5 83.5t78.5 30.5q37 0 65.5 -17t48 -48t31 -70t11.5 -82q0 -12 -14.5 -21t-28.5 -9q-41 0 -81 10t-70.5 28.5t-49 42t-18.5 52.5zM94 1253q0 25 18.5 49.5t44 44t54.5 33t51 13.5h27q16 0 24.5 -5t8.5 -30q0 -33 -11.5 -68t-30 -63.5t-42 -47 t-47.5 -18.5q-12 0 -29.5 9.5t-32 22.5t-25 29.5t-10.5 30.5zM256 1067q0 20 6 39q76 0 129.5 23.5t53.5 64.5v147q14 43 61 44q27 0 54.5 -15.5t50 -38t38 -52.5t15.5 -56q0 -18 -9.5 -37t-25.5 -41l-55 -68q0 -2 15 -21.5t33.5 -47t34 -57.5t15.5 -48q0 -31 -16.5 -62.5 t-41 -57t-56 -43t-62.5 -17.5q-33 0 -51 20v138q0 29 -14.5 55.5t-36 47t-50 32.5t-55.5 12h-27q-6 12 -6 39zM432 14q0 37 37 90l60 86q25 33 54.5 87.5t70.5 132.5q51 92 115.5 191t135 200.5t142 204t137.5 204.5q117 205 209 205q18 0 48 -12.5t30 -28.5 q0 -31 -19.5 -65.5t-56.5 -77.5l-76 -94q-10 -12 -51 -71.5t-94 -140.5t-107.5 -172t-93.5 -165q-31 -57 -56.5 -100.5t-51 -81t-53 -78.5t-60.5 -97l-74 -120q-35 -59 -91 -98.5t-105 -39.5t-50 41zM1079 252q0 49 70 127l111 113q10 -25 10 -41q0 -6 -4 -21.5t-9.5 -31 t-9.5 -31t-4 -21.5q0 -4 3 -18.5t8.5 -30.5t8.5 -32.5t3 -24.5q0 -10 -1 -17.5t-3 -17.5h-154q-29 14 -29 47zM1331 39q0 12 7.5 34.5t16.5 47t16 46t7 32.5v381q14 35 49 60.5t76 25.5q59 0 60 -52q0 -4 -1 -8t-1 -6v-221q0 -12 11 -26.5t25.5 -30l29 -31t22.5 -25.5 q-2 -12 -12.5 -29.5t-21.5 -35t-21.5 -33.5t-12.5 -29q2 -10 7 -26.5t11.5 -33t12.5 -28.5t6 -14q-10 -10 -39 -24.5t-43 -14.5l-203 14q-2 8 -2 27z" />
<glyph unicode="&#xbf;" horiz-adv-x="1005" d="M13 239q0 74 32.5 116t77.5 72.5t93.5 56t80.5 64.5q29 37 37 47.5t8 16.5q0 2 -1 14.5t-3 28.5t-3 32.5t-1 28.5q0 84 109 176q0 6 -10.5 31t-22.5 55.5t-21.5 61.5t-9.5 49q0 70 58 127q190 -57 190 -125q0 -8 -14.5 -33.5t-31.5 -54.5t-31.5 -56.5t-14.5 -43.5 q0 -12 4 -25q35 -10 65.5 -46t52 -85t34 -105.5t12.5 -111.5q0 -98 -41 -143l-35 -17q-35 -18 -78 -42.5t-84 -51.5t-55 -43q-20 -31 -21 -254q-82 2 -151.5 20.5t-119.5 52.5t-77.5 82t-27.5 105zM613 26q0 301 200 301q59 0 99.5 -31.5t40.5 -85.5q0 -47 -22.5 -90 t-57.5 -74.5t-80 -51t-90 -19.5q-90 0 -90 51z" />
<glyph unicode="&#xc0;" d="M0 92q0 18 20.5 43t61.5 64q37 39 66.5 83t56 98t52.5 120.5t54 150.5l58 158q16 49 44.5 125t63.5 180q43 123 101.5 170t146.5 47h33t35 -2q-18 -182 -56 -319l-12 -36t-27.5 -78t-28 -79t-12.5 -41v-332l-67 -51q-39 -33 -39 -71q0 -16 12 -47t26.5 -66t27 -69 t12.5 -56q0 -102 -146 -102h-409q-16 0 -30.5 10t-24 26.5t-14.5 36t-5 37.5zM424 1772q0 53 36.5 85.5t120.5 32.5q45 0 108.5 -16t132.5 -44t136.5 -62.5t120.5 -70.5t87 -69t34 -57q0 -29 -18.5 -39t-63.5 -10q-59 0 -152.5 18.5t-187.5 44t-174 51t-111 39.5 q-70 33 -69 97zM803 127l2 6q109 188 108 256q0 6 -11 30.5t-23.5 57.5t-23.5 70t-11 67v138l166 487q88 -57 159 -213q16 -37 32 -85t35 -111.5t47 -143.5t69 -184l168 -250q20 -41 20 -70q0 -31 -13.5 -54.5t-36 -40.5t-51 -27.5t-57.5 -10.5l-534 -22q-45 51 -45 100z " />
<glyph unicode="&#xc1;" d="M0 92q0 18 20.5 43t61.5 64q37 39 66.5 83t56 98t52.5 120.5t54 150.5l58 158q16 49 44.5 125t63.5 180q43 123 101.5 170t146.5 47h33t35 -2q-18 -182 -56 -319l-12 -36t-27.5 -78t-28 -79t-12.5 -41v-332l-67 -51q-39 -33 -39 -71q0 -16 12 -47t26.5 -66t27 -69 t12.5 -56q0 -102 -146 -102h-409q-16 0 -30.5 10t-24 26.5t-14.5 36t-5 37.5zM426 1571q0 25 33 57.5t87 68.5t121 70.5t135.5 62.5t131 44t107.5 16q86 0 123 -32.5t37 -85.5q0 -63 -70 -97q-31 -14 -111 -39.5t-174 -51t-187 -44t-153 -18.5q-43 0 -61.5 10t-18.5 39z M803 127l2 6q109 188 108 256q0 6 -11 30.5t-23.5 57.5t-23.5 70t-11 67v138l166 487q88 -57 159 -213q16 -37 32 -85t35 -111.5t47 -143.5t69 -184l168 -250q20 -41 20 -70q0 -31 -13.5 -54.5t-36 -40.5t-51 -27.5t-57.5 -10.5l-534 -22q-45 51 -45 100z" />
<glyph unicode="&#xc2;" d="M0 92q0 18 20.5 43t61.5 64q37 39 66.5 83t56 98t52.5 120.5t54 150.5l58 158q16 49 44.5 125t63.5 180q43 123 101.5 170t146.5 47h33t35 -2q-18 -182 -56 -319l-12 -36t-27.5 -78t-28 -79t-12.5 -41v-332l-67 -51q-39 -33 -39 -71q0 -16 12 -47t26.5 -66t27 -69 t12.5 -56q0 -102 -146 -102h-409q-16 0 -30.5 10t-24 26.5t-14.5 36t-5 37.5zM360 1587q0 27 26 58.5t67 63.5t92 61.5t100 52t93 37t73 14.5q37 0 112.5 -29.5t151.5 -75t133.5 -97.5t57.5 -97q0 -27 -39 -55.5t-115 -28.5q-45 0 -89 25.5t-84 55.5t-75 55.5t-59 25.5 q-25 0 -52.5 -25.5t-63.5 -55.5t-83 -55.5t-110 -25.5q-18 0 -42 5t-44.5 16.5t-35 30t-14.5 44.5zM803 127l2 6q109 188 108 256q0 6 -11 30.5t-23.5 57.5t-23.5 70t-11 67v138l166 487q88 -57 159 -213q16 -37 32 -85t35 -111.5t47 -143.5t69 -184l168 -250q20 -41 20 -70 q0 -31 -13.5 -54.5t-36 -40.5t-51 -27.5t-57.5 -10.5l-534 -22q-45 51 -45 100z" />
<glyph unicode="&#xc3;" d="M0 92q0 18 20.5 43t61.5 64q37 39 66.5 83t56 98t52.5 120.5t54 150.5l58 158q16 49 44.5 125t63.5 180q43 123 101.5 170t146.5 47h33t35 -2q-18 -182 -56 -319l-12 -36t-27.5 -78t-28 -79t-12.5 -41v-332l-67 -51q-39 -33 -39 -71q0 -16 12 -47t26.5 -66t27 -69 t12.5 -56q0 -102 -146 -102h-409q-16 0 -30.5 10t-24 26.5t-14.5 36t-5 37.5zM326 1589q0 49 19.5 90t51 70t70.5 45t78 16q72 0 128 -17t102.5 -38.5t86 -39t76.5 -17.5q39 0 56.5 19.5t37 42t52 42t106.5 19.5q45 0 79 -29t34 -88q0 -49 -31 -89t-75 -67.5t-95 -42 t-92 -14.5q-53 0 -103.5 13.5t-98.5 30.5t-96 30.5t-97 13.5q-43 0 -68.5 -15.5t-45 -33t-39 -32.5t-50.5 -15q-86 0 -86 106zM803 127l2 6q109 188 108 256q0 6 -11 30.5t-23.5 57.5t-23.5 70t-11 67v138l166 487q88 -57 159 -213q16 -37 32 -85t35 -111.5t47 -143.5 t69 -184l168 -250q20 -41 20 -70q0 -31 -13.5 -54.5t-36 -40.5t-51 -27.5t-57.5 -10.5l-534 -22q-45 51 -45 100z" />
<glyph unicode="&#xc4;" d="M0 92q0 18 20.5 43t61.5 64q37 39 66.5 83t56 98t52.5 120.5t54 150.5l58 158q16 49 44.5 125t63.5 180q43 123 101.5 170t146.5 47h33t35 -2q-18 -182 -56 -319l-12 -36t-27.5 -78t-28 -79t-12.5 -41v-332l-67 -51q-39 -33 -39 -71q0 -16 12 -47t26.5 -66t27 -69 t12.5 -56q0 -102 -146 -102h-409q-16 0 -30.5 10t-24 26.5t-14.5 36t-5 37.5zM289 1720q0 45 17.5 72t47 39t68.5 15t82 3q45 0 85 -3t71 -15t48 -39t17 -72t-5 -88t-26.5 -76.5t-65.5 -55t-124 -21.5q-78 0 -122 19.5t-64.5 53t-24.5 77.5t-4 91zM803 127l2 6 q109 188 108 256q0 6 -11 30.5t-23.5 57.5t-23.5 70t-11 67v138l166 487q88 -57 159 -213q16 -37 32 -85t35 -111.5t47 -143.5t69 -184l168 -250q20 -41 20 -70q0 -31 -13.5 -54.5t-36 -40.5t-51 -27.5t-57.5 -10.5l-534 -22q-45 51 -45 100zM899 1720q0 45 17.5 72t47.5 39 t70 15t85 3t84.5 -3t69.5 -15t47.5 -39t17.5 -72t-5.5 -88t-27 -76.5t-65.5 -55t-121 -21.5q-78 0 -122 19.5t-65.5 53t-27 77.5t-5.5 91z" />
<glyph unicode="&#xc5;" d="M0 92q0 18 20.5 43t61.5 64q37 39 66.5 83t56 98t52.5 120.5t54 150.5l58 158q16 49 44.5 125t63.5 180q43 123 101.5 170t146.5 47h33t35 -2q-18 -182 -56 -319l-12 -36t-27.5 -78t-28 -79t-12.5 -41v-332l-67 -51q-39 -33 -39 -71q0 -16 12 -47t26.5 -66t27 -69 t12.5 -56q0 -102 -146 -102h-409q-16 0 -30.5 10t-24 26.5t-14.5 36t-5 37.5zM506 1692q0 100 64.5 155.5t173.5 59.5q37 4 48 -10.5t11 -67.5q0 -45 -9 -58.5t-42 -17.5q-10 -4 -23.5 -18.5t-13.5 -42.5q0 -18 12.5 -42t47.5 -28q16 -4 22 -17.5t6 -56.5t-11 -56t-44 -9 q-45 4 -89 19.5t-78 41t-54.5 62.5t-20.5 86zM803 127l2 6q109 188 108 256q0 6 -11 30.5t-23.5 57.5t-23.5 70t-11 67v138l166 487q88 -57 159 -213q16 -37 32 -85t35 -111.5t47 -143.5t69 -184l168 -250q20 -41 20 -70q0 -31 -13.5 -54.5t-36 -40.5t-51 -27.5t-57.5 -10.5 l-534 -22q-45 51 -45 100zM828 1507v95q0 4 7 12t13 10q29 10 37 30.5t8 37.5q0 49 -45 61q-6 2 -13 9t-7 16v110q0 8 8 16.5t19 6.5q82 -4 134 -21.5t81.5 -46t41 -70t11.5 -94.5q0 -31 -21.5 -63.5t-58.5 -60t-85 -47t-101 -25.5q-10 -2 -19.5 6t-9.5 18z" />
<glyph unicode="&#xc6;" horiz-adv-x="2332" d="M-29 92q0 18 19.5 42t60.5 65q37 37 65.5 78.5t54.5 96t51.5 122t58.5 155.5q16 47 27 75t26.5 69t41 112.5t73.5 206.5q39 117 98 167t147 50h34t36 -2q-12 -98 -25.5 -177t-29.5 -142q0 2 -12.5 -33t-28 -78t-27.5 -81t-12 -42v-332q-39 -25 -73 -55.5t-34 -66.5 q0 -16 12.5 -47t26.5 -66t26.5 -69t12.5 -56q0 -102 -145 -102h-410q-16 0 -30.5 10t-23.5 26.5t-14.5 36t-5.5 37.5zM774 127l2 6q106 190 107 256q0 6 -11.5 31.5t-23.5 59.5t-23.5 71t-11.5 63v138l135 389q-20 43 -20 102q0 27 24.5 57.5t73.5 30.5h272 q-14 -57 -14 -176v-858q51 -78 51 -115q0 -41 -39 -77.5t-116 -98.5h-222q-23 12 -32 25l-107 -4q-45 47 -45 100zM1450 678q0 25 16.5 63.5t42 75.5t55 62.5t58.5 25.5q41 0 56.5 -38t15.5 -144q0 -213 -103 -213q-29 0 -53.5 16.5t-44.5 41t-31.5 54t-11.5 56.5zM1470 117 q0 57 46.5 74.5t130.5 17.5q57 0 97 35t70.5 85t57 104t57.5 95h291v-422q0 -39 -76 -100h-600q-35 0 -54.5 36t-19.5 75zM1493 1202q33 131 109 131l565 -2l74 -74v-395q-76 -84 -226 -84q-47 0 -72.5 28t-43 68.5t-33 86t-39.5 79.5q-23 25 -75 52.5t-108.5 50t-100.5 39 t-50 20.5z" />
<glyph unicode="&#xc7;" horiz-adv-x="1484" d="M31 508v301q0 4 6 15.5t12 29.5q37 104 104.5 191.5t149.5 151t167 99t157 35.5q18 0 31.5 -4t23.5 -17.5t15 -41t5 -76.5q0 -59 -13 -98t-36 -72q-23 -29 -35 -56.5t-19 -66.5t-9 -93t-2 -136q0 -43 6 -108.5t14 -127t14.5 -107.5t6.5 -48v-259q-29 -23 -72 -22 q-72 0 -163 52t-172 130t-136 166t-55 162zM584 -182q0 29 13 54.5t34.5 43.5t46 29.5t47.5 11.5q86 0 132 -46t46 -112q0 -84 -53 -151.5t-139 -89.5q-6 4 -7.5 22.5t-5.5 52.5q-4 41 -21.5 70t-39 49.5t-37.5 35.5t-16 30zM831 150q0 23 13 40l100 218q68 121 139.5 170 t126.5 49q109 0 109 -164q0 -94 -35 -175t-91 -141.5t-126 -94.5t-137 -34q-45 0 -72 33t-27 99zM911 1235v17.5t2 17.5q20 2 65.5 10t96.5 17.5t98.5 16.5t71.5 7q59 0 99 -28.5t40 -75.5v-254q0 -41 -15 -72t-37.5 -51.5t-48.5 -31.5t-46 -11q-51 0 -108.5 45 t-105.5 111.5t-80 142t-32 139.5z" />
<glyph unicode="&#xc8;" horiz-adv-x="1691" d="M66 94q0 18 18 62.5t39.5 92.5t40 87t18.5 49v420q0 82 -2 135t-6 82q-2 8 -15.5 31.5t-28.5 54.5t-28.5 65.5t-13.5 69.5q0 59 80 84l20 4h445q-4 -31 -6 -89t-2 -146v-992q-33 -39 -107 -98h-393q-59 31 -59 88zM457 1772q0 53 36.5 85.5t120.5 32.5q45 0 108.5 -16 t132.5 -44t136.5 -62.5t120.5 -70.5t87 -69t34 -57q0 -29 -18.5 -39t-63.5 -10q-59 0 -152.5 18.5t-187.5 44t-174 51t-111 39.5q-70 33 -69 97zM786 678q0 25 16.5 63.5t42 75.5t56.5 62.5t57 25.5q70 0 70 -127q0 -80 -5 -132t-16.5 -81.5t-30 -42t-46.5 -12.5 q-27 0 -52.5 16.5t-46 42t-33 55t-12.5 54.5zM807 117q0 59 47 75.5t129 16.5q61 0 100 36t69 86t54.5 104t59.5 93h290v-422q0 -37 -75 -100h-598q-35 0 -55.5 36t-20.5 75zM827 1202q37 131 111 131l565 -2l78 -74v-395q-37 -37 -104.5 -60.5t-124.5 -23.5q-51 0 -75 28 t-39 67.5t-30.5 85t-46.5 81.5q-20 25 -72.5 51.5t-108.5 50t-101 40t-52 20.5z" />
<glyph unicode="&#xc9;" horiz-adv-x="1691" d="M66 94q0 18 18 62.5t39.5 92.5t40 87t18.5 49v420q0 82 -2 135t-6 82q-2 8 -15.5 31.5t-28.5 54.5t-28.5 65.5t-13.5 69.5q0 59 80 84l20 4h445q-4 -31 -6 -89t-2 -146v-992q-33 -39 -107 -98h-393q-59 31 -59 88zM456 1571q0 25 33 57.5t87 68.5t121 70.5t135.5 62.5 t131 44t107.5 16q86 0 123 -32.5t37 -85.5q0 -63 -70 -97q-31 -14 -111 -39.5t-174 -51t-187 -44t-153 -18.5q-43 0 -61.5 10t-18.5 39zM786 678q0 25 16.5 63.5t42 75.5t56.5 62.5t57 25.5q70 0 70 -127q0 -80 -5 -132t-16.5 -81.5t-30 -42t-46.5 -12.5q-27 0 -52.5 16.5 t-46 42t-33 55t-12.5 54.5zM807 117q0 59 47 75.5t129 16.5q61 0 100 36t69 86t54.5 104t59.5 93h290v-422q0 -37 -75 -100h-598q-35 0 -55.5 36t-20.5 75zM827 1202q37 131 111 131l565 -2l78 -74v-395q-37 -37 -104.5 -60.5t-124.5 -23.5q-51 0 -75 28t-39 67.5t-30.5 85 t-46.5 81.5q-20 25 -72.5 51.5t-108.5 50t-101 40t-52 20.5z" />
<glyph unicode="&#xca;" horiz-adv-x="1691" d="M66 94q0 18 18 62.5t39.5 92.5t40 87t18.5 49v420q0 82 -2 135t-6 82q-2 8 -15.5 31.5t-28.5 54.5t-28.5 65.5t-13.5 69.5q0 59 80 84l20 4h445q-4 -31 -6 -89t-2 -146v-992q-33 -39 -107 -98h-393q-59 31 -59 88zM391 1587q0 27 26 58.5t67 63.5t92 61.5t100 52t93 37 t73 14.5q37 0 112.5 -29.5t151.5 -75t133.5 -97.5t57.5 -97q0 -27 -39 -55.5t-115 -28.5q-45 0 -89 25.5t-84 55.5t-75 55.5t-59 25.5q-25 0 -52.5 -25.5t-63.5 -55.5t-83 -55.5t-110 -25.5q-18 0 -42 5t-44.5 16.5t-35 30t-14.5 44.5zM786 678q0 25 16.5 63.5t42 75.5 t56.5 62.5t57 25.5q70 0 70 -127q0 -80 -5 -132t-16.5 -81.5t-30 -42t-46.5 -12.5q-27 0 -52.5 16.5t-46 42t-33 55t-12.5 54.5zM807 117q0 59 47 75.5t129 16.5q61 0 100 36t69 86t54.5 104t59.5 93h290v-422q0 -37 -75 -100h-598q-35 0 -55.5 36t-20.5 75zM827 1202 q37 131 111 131l565 -2l78 -74v-395q-37 -37 -104.5 -60.5t-124.5 -23.5q-51 0 -75 28t-39 67.5t-30.5 85t-46.5 81.5q-20 25 -72.5 51.5t-108.5 50t-101 40t-52 20.5z" />
<glyph unicode="&#xcb;" horiz-adv-x="1691" d="M66 94q0 18 18 62.5t39.5 92.5t40 87t18.5 49v420q0 82 -2 135t-6 82q-2 8 -15.5 31.5t-28.5 54.5t-28.5 65.5t-13.5 69.5q0 59 80 84l20 4h445q-4 -31 -6 -89t-2 -146v-992q-33 -39 -107 -98h-393q-59 31 -59 88zM321 1720q0 45 17.5 72t47 39t68.5 15t82 3q45 0 85 -3 t71 -15t48 -39t17 -72t-5 -88t-26.5 -76.5t-65.5 -55t-124 -21.5q-78 0 -122 19.5t-64.5 53t-24.5 77.5t-4 91zM786 678q0 25 16.5 63.5t42 75.5t56.5 62.5t57 25.5q70 0 70 -127q0 -80 -5 -132t-16.5 -81.5t-30 -42t-46.5 -12.5q-27 0 -52.5 16.5t-46 42t-33 55t-12.5 54.5 zM807 117q0 59 47 75.5t129 16.5q61 0 100 36t69 86t54.5 104t59.5 93h290v-422q0 -37 -75 -100h-598q-35 0 -55.5 36t-20.5 75zM827 1202q37 131 111 131l565 -2l78 -74v-395q-37 -37 -104.5 -60.5t-124.5 -23.5q-51 0 -75 28t-39 67.5t-30.5 85t-46.5 81.5 q-20 25 -72.5 51.5t-108.5 50t-101 40t-52 20.5zM931 1720q0 45 17.5 72t47.5 39t70 15t85 3t84.5 -3t69.5 -15t47.5 -39t17.5 -72t-5.5 -88t-27 -76.5t-65.5 -55t-121 -21.5q-78 0 -122 19.5t-65.5 53t-27 77.5t-5.5 91z" />
<glyph unicode="&#xcc;" horiz-adv-x="915" d="M63 1239l19 41q25 33 114 46t210 13h333q6 -23 6 -47q0 -78 -92 -256v-694q0 -6 19.5 -41t43 -76t43 -77t19.5 -48q0 -25 -29.5 -58.5t-80.5 -33.5h-490q-47 0 -72.5 29t-25.5 49q0 14 14.5 45t31.5 62.5t31.5 56t14.5 29.5v682q0 4 -16.5 45t-37 90t-36.5 92t-19 51z M72 1772q0 53 36.5 85.5t120.5 32.5q45 0 108.5 -16t132.5 -44t136.5 -62.5t120.5 -70.5t87 -69t34 -57q0 -29 -18.5 -39t-63.5 -10q-59 0 -152.5 18.5t-187.5 44t-174 51t-111 39.5q-70 33 -69 97z" />
<glyph unicode="&#xcd;" horiz-adv-x="915" d="M63 1239l19 41q25 33 114 46t210 13h333q6 -23 6 -47q0 -78 -92 -256v-694q0 -6 19.5 -41t43 -76t43 -77t19.5 -48q0 -25 -29.5 -58.5t-80.5 -33.5h-490q-47 0 -72.5 29t-25.5 49q0 14 14.5 45t31.5 62.5t31.5 56t14.5 29.5v682q0 4 -16.5 45t-37 90t-36.5 92t-19 51z M69 1571q0 25 33 57.5t87 68.5t121 70.5t135.5 62.5t131 44t107.5 16q86 0 123 -32.5t37 -85.5q0 -63 -70 -97q-31 -14 -111 -39.5t-174 -51t-187 -44t-153 -18.5q-43 0 -61.5 10t-18.5 39z" />
<glyph unicode="&#xce;" horiz-adv-x="915" d="M8 1587q0 27 26 58.5t67 63.5t92 61.5t100 52t93 37t73 14.5q37 0 112.5 -29.5t151.5 -75t133.5 -97.5t57.5 -97q0 -27 -39 -55.5t-115 -28.5q-45 0 -89 25.5t-84 55.5t-75 55.5t-59 25.5q-25 0 -52.5 -25.5t-63.5 -55.5t-83 -55.5t-110 -25.5q-18 0 -42 5t-44.5 16.5 t-35 30t-14.5 44.5zM63 1239l19 41q25 33 114 46t210 13h333q6 -23 6 -47q0 -78 -92 -256v-694q0 -6 19.5 -41t43 -76t43 -77t19.5 -48q0 -25 -29.5 -58.5t-80.5 -33.5h-490q-47 0 -72.5 29t-25.5 49q0 14 14.5 45t31.5 62.5t31.5 56t14.5 29.5v682q0 4 -16.5 45t-37 90 t-36.5 92t-19 51z" />
<glyph unicode="&#xcf;" horiz-adv-x="915" d="M-64 1720q0 45 17.5 72t47 39t68.5 15t82 3q45 0 85 -3t71 -15t48 -39t17 -72t-5 -88t-26.5 -76.5t-65.5 -55t-124 -21.5q-78 0 -122 19.5t-64.5 53t-24.5 77.5t-4 91zM63 1239l19 41q25 33 114 46t210 13h333q6 -23 6 -47q0 -78 -92 -256v-694q0 -6 19.5 -41t43 -76 t43 -77t19.5 -48q0 -25 -29.5 -58.5t-80.5 -33.5h-490q-47 0 -72.5 29t-25.5 49q0 14 14.5 45t31.5 62.5t31.5 56t14.5 29.5v682q0 4 -16.5 45t-37 90t-36.5 92t-19 51zM546 1720q0 45 17.5 72t47.5 39t70 15t85 3t84.5 -3t69.5 -15t47.5 -39t17.5 -72t-5.5 -88t-27 -76.5 t-65.5 -55t-121 -21.5q-78 0 -122 19.5t-65.5 53t-27 77.5t-5.5 91z" />
<glyph unicode="&#xd0;" horiz-adv-x="1781" d="M57 659q0 139 189 168v172q0 12 -33 62q-20 27 -29.5 43t-14.5 40.5t-7 66.5t-6 120h473l73 -74v-434q187 -18 187 -145q0 -63 -187 -88v-393q0 -25 -11 -59t-29.5 -62.5t-41 -49t-42.5 -20.5h-347q-2 0 -18 6t-35.5 17.5t-35 30t-15.5 44.5q0 20 18.5 69.5t41 105 t41 105.5t18.5 73v121h-101q-88 0 -88 81zM879 127q0 29 15 53.5t48 52.5q53 43 83 74t47.5 63.5t28.5 75.5t29 113l9 33v182q0 10 -5.5 37t-15.5 68q-10 53 -16 82.5t-13.5 46t-17.5 25.5t-31 24q-90 61 -125.5 108t-35.5 62q0 37 29.5 58.5t72.5 32.5t89 14t77 3 q117 0 214 -48t165.5 -133t106.5 -202t38 -254q0 -141 -40 -265t-112.5 -215t-176 -144.5t-230.5 -53.5q-104 0 -217 33q-16 43 -16 74z" />
<glyph unicode="&#xd1;" horiz-adv-x="1787" d="M39 1266q0 66 166 65h432q57 0 143 -33q61 -86 127 -190t130.5 -215t127 -223.5t115.5 -216t94 -192.5t66 -155q-98 -98 -199 -98q-111 0 -233 129q-20 23 -53 66t-72 96t-79 110.5t-75 106.5t-61.5 85t-34.5 46q-8 -2 -27.5 -17.5t-48.5 -45.5v-252q0 -2 15.5 -30 t33 -62.5t32.5 -67.5t15 -47q0 -72 -104 -121h-227q-240 0 -240 70q0 8 16.5 40.5t37 72.5t36.5 78t16 54v658q0 14 -23.5 57t-51 91.5t-51 89t-23.5 51.5zM406 1589q0 49 19.5 90t51 70t70.5 45t78 16q72 0 128 -17t102.5 -38.5t86 -39t76.5 -17.5q39 0 56.5 19.5t37 42 t52 42t106.5 19.5q45 0 79 -29t34 -88q0 -49 -31 -89t-75 -67.5t-95 -42t-92 -14.5q-53 0 -103.5 13.5t-98.5 30.5t-96 30.5t-97 13.5q-43 0 -68.5 -15.5t-45 -33t-39 -32.5t-50.5 -15q-86 0 -86 106zM1159 1303q16 14 46 26t60.5 21.5t58.5 16.5l44 11h211q25 0 46.5 -10 t35.5 -25.5t22.5 -32t8.5 -28.5q0 -14 -16.5 -50t-36 -75t-36 -70.5t-16.5 -37.5q0 -104 -1 -162t-3 -68l-51 -356q-53 47 -98 109.5t-80 140.5q-14 29 -31.5 78t-36 108t-38 122.5t-37 119t-31 98.5t-21.5 64z" />
<glyph unicode="&#xd2;" horiz-adv-x="1593" d="M39 543v323q0 12 12 54q25 82 85.5 156.5t137 132t160.5 92t156 34.5q25 0 48.5 -2t41.5 -11t29.5 -25.5t11.5 -47.5q0 -37 -20.5 -107.5t-45 -147t-45 -144.5t-20.5 -98v-174q10 -72 33.5 -151t47 -146.5t42 -114.5t18.5 -55q0 -14 -4 -34t-16.5 -37t-33 -29.5 t-50.5 -12.5q-55 0 -120 26.5t-130.5 71.5t-126 102.5t-107.5 118t-75.5 119t-28.5 107.5zM410 1772q0 53 36.5 85.5t120.5 32.5q45 0 108.5 -16t132.5 -44t136.5 -62.5t120.5 -70.5t87 -69t34 -57q0 -29 -18.5 -39t-63.5 -10q-59 0 -152.5 18.5t-187.5 44t-174 51 t-111 39.5q-70 33 -69 97zM922 84q0 41 16 109.5t34.5 158.5t35 201t16.5 238l-10 43q-33 123 -54.5 221t-19.5 178l2 49q29 4 56.5 7t54.5 3q113 0 205 -51t157.5 -140t101 -208t35.5 -256q0 -141 -37.5 -260t-107.5 -206t-169 -136t-224 -49q-49 0 -70.5 19.5t-21.5 78.5z " />
<glyph unicode="&#xd3;" horiz-adv-x="1593" d="M39 543v323q0 12 12 54q25 82 85.5 156.5t137 132t160.5 92t156 34.5q25 0 48.5 -2t41.5 -11t29.5 -25.5t11.5 -47.5q0 -37 -20.5 -107.5t-45 -147t-45 -144.5t-20.5 -98v-174q10 -72 33.5 -151t47 -146.5t42 -114.5t18.5 -55q0 -14 -4 -34t-16.5 -37t-33 -29.5 t-50.5 -12.5q-55 0 -120 26.5t-130.5 71.5t-126 102.5t-107.5 118t-75.5 119t-28.5 107.5zM409 1571q0 25 33 57.5t87 68.5t121 70.5t135.5 62.5t131 44t107.5 16q86 0 123 -32.5t37 -85.5q0 -63 -70 -97q-31 -14 -111 -39.5t-174 -51t-187 -44t-153 -18.5q-43 0 -61.5 10 t-18.5 39zM922 84q0 41 16 109.5t34.5 158.5t35 201t16.5 238l-10 43q-33 123 -54.5 221t-19.5 178l2 49q29 4 56.5 7t54.5 3q113 0 205 -51t157.5 -140t101 -208t35.5 -256q0 -141 -37.5 -260t-107.5 -206t-169 -136t-224 -49q-49 0 -70.5 19.5t-21.5 78.5z" />
<glyph unicode="&#xd4;" horiz-adv-x="1593" d="M39 543v323q0 12 12 54q25 82 85.5 156.5t137 132t160.5 92t156 34.5q25 0 48.5 -2t41.5 -11t29.5 -25.5t11.5 -47.5q0 -37 -20.5 -107.5t-45 -147t-45 -144.5t-20.5 -98v-174q10 -72 33.5 -151t47 -146.5t42 -114.5t18.5 -55q0 -14 -4 -34t-16.5 -37t-33 -29.5 t-50.5 -12.5q-55 0 -120 26.5t-130.5 71.5t-126 102.5t-107.5 118t-75.5 119t-28.5 107.5zM344 1587q0 27 26 58.5t67 63.5t92 61.5t100 52t93 37t73 14.5q37 0 112.5 -29.5t151.5 -75t133.5 -97.5t57.5 -97q0 -27 -39 -55.5t-115 -28.5q-45 0 -89 25.5t-84 55.5t-75 55.5 t-59 25.5q-25 0 -52.5 -25.5t-63.5 -55.5t-83 -55.5t-110 -25.5q-18 0 -42 5t-44.5 16.5t-35 30t-14.5 44.5zM922 84q0 41 16 109.5t34.5 158.5t35 201t16.5 238l-10 43q-33 123 -54.5 221t-19.5 178l2 49q29 4 56.5 7t54.5 3q113 0 205 -51t157.5 -140t101 -208t35.5 -256 q0 -141 -37.5 -260t-107.5 -206t-169 -136t-224 -49q-49 0 -70.5 19.5t-21.5 78.5z" />
<glyph unicode="&#xd5;" horiz-adv-x="1593" d="M39 543v323q0 12 12 54q25 82 85.5 156.5t137 132t160.5 92t156 34.5q25 0 48.5 -2t41.5 -11t29.5 -25.5t11.5 -47.5q0 -37 -20.5 -107.5t-45 -147t-45 -144.5t-20.5 -98v-174q10 -72 33.5 -151t47 -146.5t42 -114.5t18.5 -55q0 -14 -4 -34t-16.5 -37t-33 -29.5 t-50.5 -12.5q-55 0 -120 26.5t-130.5 71.5t-126 102.5t-107.5 118t-75.5 119t-28.5 107.5zM307 1589q0 49 19.5 90t51 70t70.5 45t78 16q72 0 128 -17t102.5 -38.5t86 -39t76.5 -17.5q39 0 56.5 19.5t37 42t52 42t106.5 19.5q45 0 79 -29t34 -88q0 -49 -31 -89t-75 -67.5 t-95 -42t-92 -14.5q-53 0 -103.5 13.5t-98.5 30.5t-96 30.5t-97 13.5q-43 0 -68.5 -15.5t-45 -33t-39 -32.5t-50.5 -15q-86 0 -86 106zM922 84q0 41 16 109.5t34.5 158.5t35 201t16.5 238l-10 43q-33 123 -54.5 221t-19.5 178l2 49q29 4 56.5 7t54.5 3q113 0 205 -51 t157.5 -140t101 -208t35.5 -256q0 -141 -37.5 -260t-107.5 -206t-169 -136t-224 -49q-49 0 -70.5 19.5t-21.5 78.5z" />
<glyph unicode="&#xd6;" horiz-adv-x="1593" d="M39 543v323q0 12 12 54q25 82 85.5 156.5t137 132t160.5 92t156 34.5q25 0 48.5 -2t41.5 -11t29.5 -25.5t11.5 -47.5q0 -37 -20.5 -107.5t-45 -147t-45 -144.5t-20.5 -98v-174q10 -72 33.5 -151t47 -146.5t42 -114.5t18.5 -55q0 -14 -4 -34t-16.5 -37t-33 -29.5 t-50.5 -12.5q-55 0 -120 26.5t-130.5 71.5t-126 102.5t-107.5 118t-75.5 119t-28.5 107.5zM270 1720q0 45 17.5 72t47 39t68.5 15t82 3q45 0 85 -3t71 -15t48 -39t17 -72t-5 -88t-26.5 -76.5t-65.5 -55t-124 -21.5q-78 0 -122 19.5t-64.5 53t-24.5 77.5t-4 91zM880 1720 q0 45 17.5 72t47.5 39t70 15t85 3t84.5 -3t69.5 -15t47.5 -39t17.5 -72t-5.5 -88t-27 -76.5t-65.5 -55t-121 -21.5q-78 0 -122 19.5t-65.5 53t-27 77.5t-5.5 91zM922 84q0 41 16 109.5t34.5 158.5t35 201t16.5 238l-10 43q-33 123 -54.5 221t-19.5 178l2 49q29 4 56.5 7 t54.5 3q113 0 205 -51t157.5 -140t101 -208t35.5 -256q0 -141 -37.5 -260t-107.5 -206t-169 -136t-224 -49q-49 0 -70.5 19.5t-21.5 78.5z" />
<glyph unicode="&#xd7;" horiz-adv-x="1140" d="M188 911q0 16 10.5 36.5t37.5 47.5q23 20 51 21q41 2 85 -28t83 -68l92 -91l35 35q84 84 139 127t102 43q8 0 27.5 -6t38 -16.5t33 -25.5t14.5 -36q0 -39 -50 -109.5t-165 -187.5l211 -211q10 -10 10 -30q0 -10 -7 -33t-19.5 -45.5t-29 -40t-34.5 -17.5 q-39 0 -101.5 53.5t-177.5 174.5q-33 -33 -69.5 -75t-72.5 -80t-66.5 -63.5t-53.5 -25.5q-20 0 -39.5 14.5t-34 35t-23.5 44t-9 43.5q0 23 9 48.5t30.5 59.5t59.5 77t95 100q-12 14 -47 47t-71.5 69t-64.5 67.5t-28 45.5z" />
<glyph unicode="&#xd8;" horiz-adv-x="1593" d="M66 543v323q0 16 14 54q25 82 85 156.5t137 132t160 92t154 34.5q25 0 48.5 -2t42 -11t30 -25.5t11.5 -47.5q0 -37 -20.5 -107.5t-45.5 -147t-45.5 -144.5t-20.5 -98v-82q12 -14 21.5 -24.5t15.5 -10.5t15 12q27 45 56.5 84t61 82t67.5 95.5t77 121.5q25 45 29 95.5 t8 107.5l4 49q29 4 55.5 7t54.5 3h25q92 106 164 107q14 0 32.5 -4t35 -12.5t27.5 -17.5t11 -19q0 -31 -13 -63t-38 -66q119 -84 187.5 -237t68.5 -343q0 -141 -38 -260t-108.5 -206t-170 -136t-224.5 -49q-49 0 -69.5 19.5t-20.5 78.5q0 37 12.5 94.5t30 134t33.5 171 t23 200.5q0 18 -6.5 37.5t-22.5 19.5q-14 0 -29 -22l-43 -82q-35 -66 -72.5 -124t-70.5 -108.5t-53.5 -89.5t-20.5 -63q0 -31 13.5 -59.5t13.5 -81.5q0 -14 -4 -34t-16.5 -37t-33 -29.5t-51.5 -12.5q-20 0 -42.5 3t-45.5 13l-12 -18q-27 -39 -58.5 -73t-67.5 -59.5 t-72 -39.5t-68 -14q-66 0 -66 55q0 31 5 48t19.5 39.5t42 60.5t74.5 112q-59 45 -113 98t-95 109.5t-64.5 111t-23.5 99.5z" />
<glyph unicode="&#xd9;" horiz-adv-x="1624" d="M37 1188q0 29 8 66.5t27 84.5h512q70 0 105.5 -33.5t35.5 -66.5q0 -16 -20.5 -58t-45 -88t-45 -84t-20.5 -44v-508q0 -10 20.5 -54.5t46 -98.5t46 -105.5t20.5 -71.5q0 -82 -72 -131h-22q-37 0 -88 17.5t-106.5 45t-110 65.5t-97.5 79t-69.5 83t-26.5 81v501 q0 53 -15.5 101.5t-33.5 89.5t-33.5 73.5t-15.5 55.5zM422 1772q0 53 36.5 85.5t120.5 32.5q45 0 108.5 -16t132.5 -44t136.5 -62.5t120.5 -70.5t87 -69t34 -57q0 -29 -18.5 -39t-63.5 -10q-59 0 -152.5 18.5t-187.5 44t-174 51t-111 39.5q-70 33 -69 97zM915 150 q0 29 29 68.5t63.5 90.5t63.5 111.5t29 132.5v293q0 27 -12.5 65.5t-31 81.5t-41 86t-41 78t-30.5 57l-12 21q0 84 344 84h229q25 -47 25 -98q0 -25 -14.5 -69t-31 -88t-30.5 -80t-14 -42v-551q0 -55 -45 -120.5t-110.5 -123t-140.5 -95.5t-134 -38q-49 0 -72 30t-23 106z " />
<glyph unicode="&#xda;" horiz-adv-x="1624" d="M37 1188q0 29 8 66.5t27 84.5h512q70 0 105.5 -33.5t35.5 -66.5q0 -16 -20.5 -58t-45 -88t-45 -84t-20.5 -44v-508q0 -10 20.5 -54.5t46 -98.5t46 -105.5t20.5 -71.5q0 -82 -72 -131h-22q-37 0 -88 17.5t-106.5 45t-110 65.5t-97.5 79t-69.5 83t-26.5 81v501 q0 53 -15.5 101.5t-33.5 89.5t-33.5 73.5t-15.5 55.5zM424 1571q0 25 33 57.5t87 68.5t121 70.5t135.5 62.5t131 44t107.5 16q86 0 123 -32.5t37 -85.5q0 -63 -70 -97q-31 -14 -111 -39.5t-174 -51t-187 -44t-153 -18.5q-43 0 -61.5 10t-18.5 39zM915 150q0 29 29 68.5 t63.5 90.5t63.5 111.5t29 132.5v293q0 27 -12.5 65.5t-31 81.5t-41 86t-41 78t-30.5 57l-12 21q0 84 344 84h229q25 -47 25 -98q0 -25 -14.5 -69t-31 -88t-30.5 -80t-14 -42v-551q0 -55 -45 -120.5t-110.5 -123t-140.5 -95.5t-134 -38q-49 0 -72 30t-23 106z" />
<glyph unicode="&#xdb;" horiz-adv-x="1624" d="M37 1188q0 29 8 66.5t27 84.5h512q70 0 105.5 -33.5t35.5 -66.5q0 -16 -20.5 -58t-45 -88t-45 -84t-20.5 -44v-508q0 -10 20.5 -54.5t46 -98.5t46 -105.5t20.5 -71.5q0 -82 -72 -131h-22q-37 0 -88 17.5t-106.5 45t-110 65.5t-97.5 79t-69.5 83t-26.5 81v501 q0 53 -15.5 101.5t-33.5 89.5t-33.5 73.5t-15.5 55.5zM358 1587q0 27 26 58.5t67 63.5t92 61.5t100 52t93 37t73 14.5q37 0 112.5 -29.5t151.5 -75t133.5 -97.5t57.5 -97q0 -27 -39 -55.5t-115 -28.5q-45 0 -89 25.5t-84 55.5t-75 55.5t-59 25.5q-25 0 -52.5 -25.5 t-63.5 -55.5t-83 -55.5t-110 -25.5q-18 0 -42 5t-44.5 16.5t-35 30t-14.5 44.5zM915 150q0 29 29 68.5t63.5 90.5t63.5 111.5t29 132.5v293q0 27 -12.5 65.5t-31 81.5t-41 86t-41 78t-30.5 57l-12 21q0 84 344 84h229q25 -47 25 -98q0 -25 -14.5 -69t-31 -88t-30.5 -80 t-14 -42v-551q0 -55 -45 -120.5t-110.5 -123t-140.5 -95.5t-134 -38q-49 0 -72 30t-23 106z" />
<glyph unicode="&#xdc;" horiz-adv-x="1624" d="M37 1188q0 29 8 66.5t27 84.5h512q70 0 105.5 -33.5t35.5 -66.5q0 -16 -20.5 -58t-45 -88t-45 -84t-20.5 -44v-508q0 -10 20.5 -54.5t46 -98.5t46 -105.5t20.5 -71.5q0 -82 -72 -131h-22q-37 0 -88 17.5t-106.5 45t-110 65.5t-97.5 79t-69.5 83t-26.5 81v501 q0 53 -15.5 101.5t-33.5 89.5t-33.5 73.5t-15.5 55.5zM287 1720q0 45 17.5 72t47 39t68.5 15t82 3q45 0 85 -3t71 -15t48 -39t17 -72t-5 -88t-26.5 -76.5t-65.5 -55t-124 -21.5q-78 0 -122 19.5t-64.5 53t-24.5 77.5t-4 91zM897 1720q0 45 17.5 72t47.5 39t70 15t85 3 t84.5 -3t69.5 -15t47.5 -39t17.5 -72t-5.5 -88t-27 -76.5t-65.5 -55t-121 -21.5q-78 0 -122 19.5t-65.5 53t-27 77.5t-5.5 91zM915 150q0 29 29 68.5t63.5 90.5t63.5 111.5t29 132.5v293q0 27 -12.5 65.5t-31 81.5t-41 86t-41 78t-30.5 57l-12 21q0 84 344 84h229 q25 -47 25 -98q0 -25 -14.5 -69t-31 -88t-30.5 -80t-14 -42v-551q0 -55 -45 -120.5t-110.5 -123t-140.5 -95.5t-134 -38q-49 0 -72 30t-23 106z" />
<glyph unicode="&#xdd;" horiz-adv-x="1597" d="M-20 1159q0 84 98 152h438q10 0 29.5 1t41 3t41 3t31.5 1h44.5t38 -8t26.5 -25.5t10 -54.5q0 -29 -4 -82t-4 -82q0 -41 3 -66.5t15.5 -51t37 -56.5t67.5 -80q43 -47 66.5 -79t35 -55.5t13.5 -45t2 -45.5q0 -6 -1 -28.5t-3 -49.5t-3.5 -53.5t-1.5 -40.5q0 -137 113 -234 q10 -20 10 -53q0 -45 -22.5 -61.5t-93.5 -32.5l-121 -31h-185q-12 0 -37.5 -5t-53 -10t-53.5 -10.5t-38 -5.5q-63 0 -100 62v6q0 14 8 34.5t29 49.5q33 45 51 76.5t27.5 60.5t11.5 58.5t2 70.5q0 168 -123 307l-137 148l-82 82t-60 53q-14 8 -41.5 25.5t-55 41t-49 52 t-21.5 59.5zM411 1571q0 25 33 57.5t87 68.5t121 70.5t135.5 62.5t131 44t107.5 16q86 0 123 -32.5t37 -85.5q0 -63 -70 -97q-31 -14 -111 -39.5t-174 -51t-187 -44t-153 -18.5q-43 0 -61.5 10t-18.5 39zM1016 1223q0 166 139 166q14 0 39 -5.5t37 -5.5h274q43 -29 43 -80 q0 -150 -389 -419q-29 20 -54.5 60t-46 88t-31.5 99.5t-11 96.5z" />
<glyph unicode="&#xde;" horiz-adv-x="1585" d="M63 1239l19 41q25 33 114 46t210 13h333q6 -23 6 -47q0 -78 -92 -256v-694q0 -6 19.5 -41t43 -76t43 -77t19.5 -48q0 -25 -29.5 -58.5t-80.5 -33.5h-490q-47 0 -72.5 29t-25.5 49q0 14 14.5 45t31.5 62.5t31.5 56t14.5 29.5v682q0 4 -16.5 45t-37 90t-36.5 92t-19 51z M760 938q0 63 49 113h371q70 0 129 -27t102 -75t66.5 -112.5t23.5 -138.5q0 -63 -22.5 -130.5t-62.5 -123t-94 -91.5t-120 -36h-295q-14 0 -31.5 12.5t-34 32t-29.5 41t-19 39.5q4 12 31.5 48t59 77t57.5 79t26 54q-2 16 -20.5 45t-80.5 82q-33 27 -53 44.5t-32.5 28.5 t-16.5 19.5t-4 18.5z" />
<glyph unicode="&#xdf;" horiz-adv-x="3061" d="M35 885q0 78 40 156.5t103.5 143t142 104.5t156.5 40q84 0 107 -147q10 -68 18 -110t20.5 -67.5t30 -40t45.5 -26.5q16 -8 56.5 -18.5t91.5 -22.5t107.5 -24.5t105.5 -23.5t85 -19.5t46 -12.5q121 -49 185.5 -157.5t64.5 -241.5q0 -90 -44 -165t-109.5 -129t-140.5 -85 t-136 -31q-33 0 -51.5 32t-28.5 95q-29 139 -70 206t-103.5 97.5t-152.5 43t-215 42.5q-57 14 -119.5 47t-115 81t-86 107.5t-33.5 125.5zM66 180q0 78 29.5 131.5t82.5 53.5q25 0 68 -18.5t93 -48.5t103.5 -67.5t98.5 -75.5t75.5 -72t38.5 -58h-98q-98 0 -207.5 -5.5 t-232.5 -17.5q-25 27 -38 70t-13 108zM823 1217v81q94 -4 145.5 -6t61.5 -2q37 0 72 4t69 9q2 0 30 6t38 6q59 0 95 -52t36 -126q0 -72 -45 -104t-100 -32q-35 0 -72 14.5t-83 42t-105.5 67.5t-141.5 92zM1565 885q0 78 40 156.5t103.5 143t142 104.5t156.5 40 q84 0 107 -147q10 -68 18 -110t20.5 -67.5t30 -40t45.5 -26.5q16 -8 56.5 -18.5t91.5 -22.5t107.5 -24.5t105.5 -23.5t85 -19.5t46 -12.5q121 -49 185.5 -157.5t64.5 -241.5q0 -90 -44 -165t-109.5 -129t-140.5 -85t-136 -31q-33 0 -51.5 32t-28.5 95q-29 139 -70 206 t-103.5 97.5t-152.5 43t-215 42.5q-57 14 -119.5 47t-115 81t-86 107.5t-33.5 125.5zM1596 180q0 78 29.5 131.5t82.5 53.5q25 0 68 -18.5t93 -48.5t103.5 -67.5t98.5 -75.5t75.5 -72t38.5 -58h-98q-98 0 -207.5 -5.5t-232.5 -17.5q-25 27 -38 70t-13 108zM2353 1217v81 q94 -4 145.5 -6t61.5 -2q37 0 72 4t69 9q2 0 30 6t38 6q59 0 95 -52t36 -126q0 -72 -45 -104t-100 -32q-35 0 -72 14.5t-83 42t-105.5 67.5t-141.5 92z" />
<glyph unicode="&#xe0;" d="M0 92q0 18 20.5 43t61.5 64q37 39 66.5 83t56 98t52.5 120.5t54 150.5l58 158q16 49 44.5 125t63.5 180q43 123 101.5 170t146.5 47h33t35 -2q-18 -182 -56 -319l-12 -36t-27.5 -78t-28 -79t-12.5 -41v-332l-67 -51q-39 -33 -39 -71q0 -16 12 -47t26.5 -66t27 -69 t12.5 -56q0 -102 -146 -102h-409q-16 0 -30.5 10t-24 26.5t-14.5 36t-5 37.5zM424 1772q0 53 36.5 85.5t120.5 32.5q45 0 108.5 -16t132.5 -44t136.5 -62.5t120.5 -70.5t87 -69t34 -57q0 -29 -18.5 -39t-63.5 -10q-59 0 -152.5 18.5t-187.5 44t-174 51t-111 39.5 q-70 33 -69 97zM803 127l2 6q109 188 108 256q0 6 -11 30.5t-23.5 57.5t-23.5 70t-11 67v138l166 487q88 -57 159 -213q16 -37 32 -85t35 -111.5t47 -143.5t69 -184l168 -250q20 -41 20 -70q0 -31 -13.5 -54.5t-36 -40.5t-51 -27.5t-57.5 -10.5l-534 -22q-45 51 -45 100z " />
<glyph unicode="&#xe1;" d="M0 92q0 18 20.5 43t61.5 64q37 39 66.5 83t56 98t52.5 120.5t54 150.5l58 158q16 49 44.5 125t63.5 180q43 123 101.5 170t146.5 47h33t35 -2q-18 -182 -56 -319l-12 -36t-27.5 -78t-28 -79t-12.5 -41v-332l-67 -51q-39 -33 -39 -71q0 -16 12 -47t26.5 -66t27 -69 t12.5 -56q0 -102 -146 -102h-409q-16 0 -30.5 10t-24 26.5t-14.5 36t-5 37.5zM426 1571q0 25 33 57.5t87 68.5t121 70.5t135.5 62.5t131 44t107.5 16q86 0 123 -32.5t37 -85.5q0 -63 -70 -97q-31 -14 -111 -39.5t-174 -51t-187 -44t-153 -18.5q-43 0 -61.5 10t-18.5 39z M803 127l2 6q109 188 108 256q0 6 -11 30.5t-23.5 57.5t-23.5 70t-11 67v138l166 487q88 -57 159 -213q16 -37 32 -85t35 -111.5t47 -143.5t69 -184l168 -250q20 -41 20 -70q0 -31 -13.5 -54.5t-36 -40.5t-51 -27.5t-57.5 -10.5l-534 -22q-45 51 -45 100z" />
<glyph unicode="&#xe2;" d="M0 92q0 18 20.5 43t61.5 64q37 39 66.5 83t56 98t52.5 120.5t54 150.5l58 158q16 49 44.5 125t63.5 180q43 123 101.5 170t146.5 47h33t35 -2q-18 -182 -56 -319l-12 -36t-27.5 -78t-28 -79t-12.5 -41v-332l-67 -51q-39 -33 -39 -71q0 -16 12 -47t26.5 -66t27 -69 t12.5 -56q0 -102 -146 -102h-409q-16 0 -30.5 10t-24 26.5t-14.5 36t-5 37.5zM360 1587q0 27 26 58.5t67 63.5t92 61.5t100 52t93 37t73 14.5q37 0 112.5 -29.5t151.5 -75t133.5 -97.5t57.5 -97q0 -27 -39 -55.5t-115 -28.5q-45 0 -89 25.5t-84 55.5t-75 55.5t-59 25.5 q-25 0 -52.5 -25.5t-63.5 -55.5t-83 -55.5t-110 -25.5q-18 0 -42 5t-44.5 16.5t-35 30t-14.5 44.5zM803 127l2 6q109 188 108 256q0 6 -11 30.5t-23.5 57.5t-23.5 70t-11 67v138l166 487q88 -57 159 -213q16 -37 32 -85t35 -111.5t47 -143.5t69 -184l168 -250q20 -41 20 -70 q0 -31 -13.5 -54.5t-36 -40.5t-51 -27.5t-57.5 -10.5l-534 -22q-45 51 -45 100z" />
<glyph unicode="&#xe3;" d="M0 92q0 18 20.5 43t61.5 64q37 39 66.5 83t56 98t52.5 120.5t54 150.5l58 158q16 49 44.5 125t63.5 180q43 123 101.5 170t146.5 47h33t35 -2q-18 -182 -56 -319l-12 -36t-27.5 -78t-28 -79t-12.5 -41v-332l-67 -51q-39 -33 -39 -71q0 -16 12 -47t26.5 -66t27 -69 t12.5 -56q0 -102 -146 -102h-409q-16 0 -30.5 10t-24 26.5t-14.5 36t-5 37.5zM326 1589q0 49 19.5 90t51 70t70.5 45t78 16q72 0 128 -17t102.5 -38.5t86 -39t76.5 -17.5q39 0 56.5 19.5t37 42t52 42t106.5 19.5q45 0 79 -29t34 -88q0 -49 -31 -89t-75 -67.5t-95 -42 t-92 -14.5q-53 0 -103.5 13.5t-98.5 30.5t-96 30.5t-97 13.5q-43 0 -68.5 -15.5t-45 -33t-39 -32.5t-50.5 -15q-86 0 -86 106zM803 127l2 6q109 188 108 256q0 6 -11 30.5t-23.5 57.5t-23.5 70t-11 67v138l166 487q88 -57 159 -213q16 -37 32 -85t35 -111.5t47 -143.5 t69 -184l168 -250q20 -41 20 -70q0 -31 -13.5 -54.5t-36 -40.5t-51 -27.5t-57.5 -10.5l-534 -22q-45 51 -45 100z" />
<glyph unicode="&#xe4;" d="M0 92q0 18 20.5 43t61.5 64q37 39 66.5 83t56 98t52.5 120.5t54 150.5l58 158q16 49 44.5 125t63.5 180q43 123 101.5 170t146.5 47h33t35 -2q-18 -182 -56 -319l-12 -36t-27.5 -78t-28 -79t-12.5 -41v-332l-67 -51q-39 -33 -39 -71q0 -16 12 -47t26.5 -66t27 -69 t12.5 -56q0 -102 -146 -102h-409q-16 0 -30.5 10t-24 26.5t-14.5 36t-5 37.5zM289 1720q0 45 17.5 72t47 39t68.5 15t82 3q45 0 85 -3t71 -15t48 -39t17 -72t-5 -88t-26.5 -76.5t-65.5 -55t-124 -21.5q-78 0 -122 19.5t-64.5 53t-24.5 77.5t-4 91zM803 127l2 6 q109 188 108 256q0 6 -11 30.5t-23.5 57.5t-23.5 70t-11 67v138l166 487q88 -57 159 -213q16 -37 32 -85t35 -111.5t47 -143.5t69 -184l168 -250q20 -41 20 -70q0 -31 -13.5 -54.5t-36 -40.5t-51 -27.5t-57.5 -10.5l-534 -22q-45 51 -45 100zM899 1720q0 45 17.5 72t47.5 39 t70 15t85 3t84.5 -3t69.5 -15t47.5 -39t17.5 -72t-5.5 -88t-27 -76.5t-65.5 -55t-121 -21.5q-78 0 -122 19.5t-65.5 53t-27 77.5t-5.5 91z" />
<glyph unicode="&#xe5;" d="M0 92q0 18 20.5 43t61.5 64q37 39 66.5 83t56 98t52.5 120.5t54 150.5l58 158q16 49 44.5 125t63.5 180q43 123 101.5 170t146.5 47h33t35 -2q-18 -182 -56 -319l-12 -36t-27.5 -78t-28 -79t-12.5 -41v-332l-67 -51q-39 -33 -39 -71q0 -16 12 -47t26.5 -66t27 -69 t12.5 -56q0 -102 -146 -102h-409q-16 0 -30.5 10t-24 26.5t-14.5 36t-5 37.5zM506 1692q0 100 64.5 155.5t173.5 59.5q37 4 48 -10.5t11 -67.5q0 -45 -9 -58.5t-42 -17.5q-10 -4 -23.5 -18.5t-13.5 -42.5q0 -18 12.5 -42t47.5 -28q16 -4 22 -17.5t6 -56.5t-11 -56t-44 -9 q-45 4 -89 19.5t-78 41t-54.5 62.5t-20.5 86zM803 127l2 6q109 188 108 256q0 6 -11 30.5t-23.5 57.5t-23.5 70t-11 67v138l166 487q88 -57 159 -213q16 -37 32 -85t35 -111.5t47 -143.5t69 -184l168 -250q20 -41 20 -70q0 -31 -13.5 -54.5t-36 -40.5t-51 -27.5t-57.5 -10.5 l-534 -22q-45 51 -45 100zM828 1507v95q0 4 7 12t13 10q29 10 37 30.5t8 37.5q0 49 -45 61q-6 2 -13 9t-7 16v110q0 8 8 16.5t19 6.5q82 -4 134 -21.5t81.5 -46t41 -70t11.5 -94.5q0 -31 -21.5 -63.5t-58.5 -60t-85 -47t-101 -25.5q-10 -2 -19.5 6t-9.5 18z" />
<glyph unicode="&#xe6;" horiz-adv-x="2332" d="M-29 92q0 18 19.5 42t60.5 65q37 37 65.5 78.5t54.5 96t51.5 122t58.5 155.5q16 47 27 75t26.5 69t41 112.5t73.5 206.5q39 117 98 167t147 50h34t36 -2q-12 -98 -25.5 -177t-29.5 -142q0 2 -12.5 -33t-28 -78t-27.5 -81t-12 -42v-332q-39 -25 -73 -55.5t-34 -66.5 q0 -16 12.5 -47t26.5 -66t26.5 -69t12.5 -56q0 -102 -145 -102h-410q-16 0 -30.5 10t-23.5 26.5t-14.5 36t-5.5 37.5zM774 127l2 6q106 190 107 256q0 6 -11.5 31.5t-23.5 59.5t-23.5 71t-11.5 63v138l135 389q-20 43 -20 102q0 27 24.5 57.5t73.5 30.5h272 q-14 -57 -14 -176v-858q51 -78 51 -115q0 -41 -39 -77.5t-116 -98.5h-222q-23 12 -32 25l-107 -4q-45 47 -45 100zM1450 678q0 25 16.5 63.5t42 75.5t55 62.5t58.5 25.5q41 0 56.5 -38t15.5 -144q0 -213 -103 -213q-29 0 -53.5 16.5t-44.5 41t-31.5 54t-11.5 56.5zM1470 117 q0 57 46.5 74.5t130.5 17.5q57 0 97 35t70.5 85t57 104t57.5 95h291v-422q0 -39 -76 -100h-600q-35 0 -54.5 36t-19.5 75zM1493 1202q33 131 109 131l565 -2l74 -74v-395q-76 -84 -226 -84q-47 0 -72.5 28t-43 68.5t-33 86t-39.5 79.5q-23 25 -75 52.5t-108.5 50t-100.5 39 t-50 20.5z" />
<glyph unicode="&#xe7;" horiz-adv-x="1484" d="M31 508v301q0 4 6 15.5t12 29.5q37 104 104.5 191.5t149.5 151t167 99t157 35.5q18 0 31.5 -4t23.5 -17.5t15 -41t5 -76.5q0 -59 -13 -98t-36 -72q-23 -29 -35 -56.5t-19 -66.5t-9 -93t-2 -136q0 -43 6 -108.5t14 -127t14.5 -107.5t6.5 -48v-259q-29 -23 -72 -22 q-72 0 -163 52t-172 130t-136 166t-55 162zM584 -182q0 29 13 54.5t34.5 43.5t46 29.5t47.5 11.5q86 0 132 -46t46 -112q0 -84 -53 -151.5t-139 -89.5q-6 4 -7.5 22.5t-5.5 52.5q-4 41 -21.5 70t-39 49.5t-37.5 35.5t-16 30zM831 150q0 23 13 40l100 218q68 121 139.5 170 t126.5 49q109 0 109 -164q0 -94 -35 -175t-91 -141.5t-126 -94.5t-137 -34q-45 0 -72 33t-27 99zM911 1235v17.5t2 17.5q20 2 65.5 10t96.5 17.5t98.5 16.5t71.5 7q59 0 99 -28.5t40 -75.5v-254q0 -41 -15 -72t-37.5 -51.5t-48.5 -31.5t-46 -11q-51 0 -108.5 45 t-105.5 111.5t-80 142t-32 139.5z" />
<glyph unicode="&#xe8;" horiz-adv-x="1691" d="M66 94q0 18 18 62.5t39.5 92.5t40 87t18.5 49v420q0 82 -2 135t-6 82q-2 8 -15.5 31.5t-28.5 54.5t-28.5 65.5t-13.5 69.5q0 59 80 84l20 4h445q-4 -31 -6 -89t-2 -146v-992q-33 -39 -107 -98h-393q-59 31 -59 88zM457 1772q0 53 36.5 85.5t120.5 32.5q45 0 108.5 -16 t132.5 -44t136.5 -62.5t120.5 -70.5t87 -69t34 -57q0 -29 -18.5 -39t-63.5 -10q-59 0 -152.5 18.5t-187.5 44t-174 51t-111 39.5q-70 33 -69 97zM786 678q0 25 16.5 63.5t42 75.5t56.5 62.5t57 25.5q70 0 70 -127q0 -80 -5 -132t-16.5 -81.5t-30 -42t-46.5 -12.5 q-27 0 -52.5 16.5t-46 42t-33 55t-12.5 54.5zM807 117q0 59 47 75.5t129 16.5q61 0 100 36t69 86t54.5 104t59.5 93h290v-422q0 -37 -75 -100h-598q-35 0 -55.5 36t-20.5 75zM827 1202q37 131 111 131l565 -2l78 -74v-395q-37 -37 -104.5 -60.5t-124.5 -23.5q-51 0 -75 28 t-39 67.5t-30.5 85t-46.5 81.5q-20 25 -72.5 51.5t-108.5 50t-101 40t-52 20.5z" />
<glyph unicode="&#xe9;" horiz-adv-x="1691" d="M66 94q0 18 18 62.5t39.5 92.5t40 87t18.5 49v420q0 82 -2 135t-6 82q-2 8 -15.5 31.5t-28.5 54.5t-28.5 65.5t-13.5 69.5q0 59 80 84l20 4h445q-4 -31 -6 -89t-2 -146v-992q-33 -39 -107 -98h-393q-59 31 -59 88zM456 1571q0 25 33 57.5t87 68.5t121 70.5t135.5 62.5 t131 44t107.5 16q86 0 123 -32.5t37 -85.5q0 -63 -70 -97q-31 -14 -111 -39.5t-174 -51t-187 -44t-153 -18.5q-43 0 -61.5 10t-18.5 39zM786 678q0 25 16.5 63.5t42 75.5t56.5 62.5t57 25.5q70 0 70 -127q0 -80 -5 -132t-16.5 -81.5t-30 -42t-46.5 -12.5q-27 0 -52.5 16.5 t-46 42t-33 55t-12.5 54.5zM807 117q0 59 47 75.5t129 16.5q61 0 100 36t69 86t54.5 104t59.5 93h290v-422q0 -37 -75 -100h-598q-35 0 -55.5 36t-20.5 75zM827 1202q37 131 111 131l565 -2l78 -74v-395q-37 -37 -104.5 -60.5t-124.5 -23.5q-51 0 -75 28t-39 67.5t-30.5 85 t-46.5 81.5q-20 25 -72.5 51.5t-108.5 50t-101 40t-52 20.5z" />
<glyph unicode="&#xea;" horiz-adv-x="1691" d="M66 94q0 18 18 62.5t39.5 92.5t40 87t18.5 49v420q0 82 -2 135t-6 82q-2 8 -15.5 31.5t-28.5 54.5t-28.5 65.5t-13.5 69.5q0 59 80 84l20 4h445q-4 -31 -6 -89t-2 -146v-992q-33 -39 -107 -98h-393q-59 31 -59 88zM391 1587q0 27 26 58.5t67 63.5t92 61.5t100 52t93 37 t73 14.5q37 0 112.5 -29.5t151.5 -75t133.5 -97.5t57.5 -97q0 -27 -39 -55.5t-115 -28.5q-45 0 -89 25.5t-84 55.5t-75 55.5t-59 25.5q-25 0 -52.5 -25.5t-63.5 -55.5t-83 -55.5t-110 -25.5q-18 0 -42 5t-44.5 16.5t-35 30t-14.5 44.5zM786 678q0 25 16.5 63.5t42 75.5 t56.5 62.5t57 25.5q70 0 70 -127q0 -80 -5 -132t-16.5 -81.5t-30 -42t-46.5 -12.5q-27 0 -52.5 16.5t-46 42t-33 55t-12.5 54.5zM807 117q0 59 47 75.5t129 16.5q61 0 100 36t69 86t54.5 104t59.5 93h290v-422q0 -37 -75 -100h-598q-35 0 -55.5 36t-20.5 75zM827 1202 q37 131 111 131l565 -2l78 -74v-395q-37 -37 -104.5 -60.5t-124.5 -23.5q-51 0 -75 28t-39 67.5t-30.5 85t-46.5 81.5q-20 25 -72.5 51.5t-108.5 50t-101 40t-52 20.5z" />
<glyph unicode="&#xeb;" horiz-adv-x="1691" d="M66 94q0 18 18 62.5t39.5 92.5t40 87t18.5 49v420q0 82 -2 135t-6 82q-2 8 -15.5 31.5t-28.5 54.5t-28.5 65.5t-13.5 69.5q0 59 80 84l20 4h445q-4 -31 -6 -89t-2 -146v-992q-33 -39 -107 -98h-393q-59 31 -59 88zM321 1720q0 45 17.5 72t47 39t68.5 15t82 3q45 0 85 -3 t71 -15t48 -39t17 -72t-5 -88t-26.5 -76.5t-65.5 -55t-124 -21.5q-78 0 -122 19.5t-64.5 53t-24.5 77.5t-4 91zM786 678q0 25 16.5 63.5t42 75.5t56.5 62.5t57 25.5q70 0 70 -127q0 -80 -5 -132t-16.5 -81.5t-30 -42t-46.5 -12.5q-27 0 -52.5 16.5t-46 42t-33 55t-12.5 54.5 zM807 117q0 59 47 75.5t129 16.5q61 0 100 36t69 86t54.5 104t59.5 93h290v-422q0 -37 -75 -100h-598q-35 0 -55.5 36t-20.5 75zM827 1202q37 131 111 131l565 -2l78 -74v-395q-37 -37 -104.5 -60.5t-124.5 -23.5q-51 0 -75 28t-39 67.5t-30.5 85t-46.5 81.5 q-20 25 -72.5 51.5t-108.5 50t-101 40t-52 20.5zM931 1720q0 45 17.5 72t47.5 39t70 15t85 3t84.5 -3t69.5 -15t47.5 -39t17.5 -72t-5.5 -88t-27 -76.5t-65.5 -55t-121 -21.5q-78 0 -122 19.5t-65.5 53t-27 77.5t-5.5 91z" />
<glyph unicode="&#xec;" horiz-adv-x="915" d="M63 1239l19 41q25 33 114 46t210 13h333q6 -23 6 -47q0 -78 -92 -256v-694q0 -6 19.5 -41t43 -76t43 -77t19.5 -48q0 -25 -29.5 -58.5t-80.5 -33.5h-490q-47 0 -72.5 29t-25.5 49q0 14 14.5 45t31.5 62.5t31.5 56t14.5 29.5v682q0 4 -16.5 45t-37 90t-36.5 92t-19 51z M72 1772q0 53 36.5 85.5t120.5 32.5q45 0 108.5 -16t132.5 -44t136.5 -62.5t120.5 -70.5t87 -69t34 -57q0 -29 -18.5 -39t-63.5 -10q-59 0 -152.5 18.5t-187.5 44t-174 51t-111 39.5q-70 33 -69 97z" />
<glyph unicode="&#xed;" horiz-adv-x="915" d="M63 1239l19 41q25 33 114 46t210 13h333q6 -23 6 -47q0 -78 -92 -256v-694q0 -6 19.5 -41t43 -76t43 -77t19.5 -48q0 -25 -29.5 -58.5t-80.5 -33.5h-490q-47 0 -72.5 29t-25.5 49q0 14 14.5 45t31.5 62.5t31.5 56t14.5 29.5v682q0 4 -16.5 45t-37 90t-36.5 92t-19 51z M69 1571q0 25 33 57.5t87 68.5t121 70.5t135.5 62.5t131 44t107.5 16q86 0 123 -32.5t37 -85.5q0 -63 -70 -97q-31 -14 -111 -39.5t-174 -51t-187 -44t-153 -18.5q-43 0 -61.5 10t-18.5 39z" />
<glyph unicode="&#xee;" horiz-adv-x="915" d="M8 1587q0 27 26 58.5t67 63.5t92 61.5t100 52t93 37t73 14.5q37 0 112.5 -29.5t151.5 -75t133.5 -97.5t57.5 -97q0 -27 -39 -55.5t-115 -28.5q-45 0 -89 25.5t-84 55.5t-75 55.5t-59 25.5q-25 0 -52.5 -25.5t-63.5 -55.5t-83 -55.5t-110 -25.5q-18 0 -42 5t-44.5 16.5 t-35 30t-14.5 44.5zM63 1239l19 41q25 33 114 46t210 13h333q6 -23 6 -47q0 -78 -92 -256v-694q0 -6 19.5 -41t43 -76t43 -77t19.5 -48q0 -25 -29.5 -58.5t-80.5 -33.5h-490q-47 0 -72.5 29t-25.5 49q0 14 14.5 45t31.5 62.5t31.5 56t14.5 29.5v682q0 4 -16.5 45t-37 90 t-36.5 92t-19 51z" />
<glyph unicode="&#xef;" horiz-adv-x="915" d="M-64 1720q0 45 17.5 72t47 39t68.5 15t82 3q45 0 85 -3t71 -15t48 -39t17 -72t-5 -88t-26.5 -76.5t-65.5 -55t-124 -21.5q-78 0 -122 19.5t-64.5 53t-24.5 77.5t-4 91zM63 1239l19 41q25 33 114 46t210 13h333q6 -23 6 -47q0 -78 -92 -256v-694q0 -6 19.5 -41t43 -76 t43 -77t19.5 -48q0 -25 -29.5 -58.5t-80.5 -33.5h-490q-47 0 -72.5 29t-25.5 49q0 14 14.5 45t31.5 62.5t31.5 56t14.5 29.5v682q0 4 -16.5 45t-37 90t-36.5 92t-19 51zM546 1720q0 45 17.5 72t47.5 39t70 15t85 3t84.5 -3t69.5 -15t47.5 -39t17.5 -72t-5.5 -88t-27 -76.5 t-65.5 -55t-121 -21.5q-78 0 -122 19.5t-65.5 53t-27 77.5t-5.5 91z" />
<glyph unicode="&#xf0;" horiz-adv-x="1781" d="M57 659q0 139 189 168v172q0 12 -33 62q-20 27 -29.5 43t-14.5 40.5t-7 66.5t-6 120h473l73 -74v-434q187 -18 187 -145q0 -63 -187 -88v-393q0 -25 -11 -59t-29.5 -62.5t-41 -49t-42.5 -20.5h-347q-2 0 -18 6t-35.5 17.5t-35 30t-15.5 44.5q0 20 18.5 69.5t41 105 t41 105.5t18.5 73v121h-101q-88 0 -88 81zM879 127q0 29 15 53.5t48 52.5q53 43 83 74t47.5 63.5t28.5 75.5t29 113l9 33v182q0 10 -5.5 37t-15.5 68q-10 53 -16 82.5t-13.5 46t-17.5 25.5t-31 24q-90 61 -125.5 108t-35.5 62q0 37 29.5 58.5t72.5 32.5t89 14t77 3 q117 0 214 -48t165.5 -133t106.5 -202t38 -254q0 -141 -40 -265t-112.5 -215t-176 -144.5t-230.5 -53.5q-104 0 -217 33q-16 43 -16 74z" />
<glyph unicode="&#xf1;" horiz-adv-x="1787" d="M39 1266q0 66 166 65h432q57 0 143 -33q61 -86 127 -190t130.5 -215t127 -223.5t115.5 -216t94 -192.5t66 -155q-98 -98 -199 -98q-111 0 -233 129q-20 23 -53 66t-72 96t-79 110.5t-75 106.5t-61.5 85t-34.5 46q-8 -2 -27.5 -17.5t-48.5 -45.5v-252q0 -2 15.5 -30 t33 -62.5t32.5 -67.5t15 -47q0 -72 -104 -121h-227q-240 0 -240 70q0 8 16.5 40.5t37 72.5t36.5 78t16 54v658q0 14 -23.5 57t-51 91.5t-51 89t-23.5 51.5zM406 1589q0 49 19.5 90t51 70t70.5 45t78 16q72 0 128 -17t102.5 -38.5t86 -39t76.5 -17.5q39 0 56.5 19.5t37 42 t52 42t106.5 19.5q45 0 79 -29t34 -88q0 -49 -31 -89t-75 -67.5t-95 -42t-92 -14.5q-53 0 -103.5 13.5t-98.5 30.5t-96 30.5t-97 13.5q-43 0 -68.5 -15.5t-45 -33t-39 -32.5t-50.5 -15q-86 0 -86 106zM1159 1303q16 14 46 26t60.5 21.5t58.5 16.5l44 11h211q25 0 46.5 -10 t35.5 -25.5t22.5 -32t8.5 -28.5q0 -14 -16.5 -50t-36 -75t-36 -70.5t-16.5 -37.5q0 -104 -1 -162t-3 -68l-51 -356q-53 47 -98 109.5t-80 140.5q-14 29 -31.5 78t-36 108t-38 122.5t-37 119t-31 98.5t-21.5 64z" />
<glyph unicode="&#xf2;" horiz-adv-x="1593" d="M39 543v323q0 12 12 54q25 82 85.5 156.5t137 132t160.5 92t156 34.5q25 0 48.5 -2t41.5 -11t29.5 -25.5t11.5 -47.5q0 -37 -20.5 -107.5t-45 -147t-45 -144.5t-20.5 -98v-174q10 -72 33.5 -151t47 -146.5t42 -114.5t18.5 -55q0 -14 -4 -34t-16.5 -37t-33 -29.5 t-50.5 -12.5q-55 0 -120 26.5t-130.5 71.5t-126 102.5t-107.5 118t-75.5 119t-28.5 107.5zM410 1772q0 53 36.5 85.5t120.5 32.5q45 0 108.5 -16t132.5 -44t136.5 -62.5t120.5 -70.5t87 -69t34 -57q0 -29 -18.5 -39t-63.5 -10q-59 0 -152.5 18.5t-187.5 44t-174 51 t-111 39.5q-70 33 -69 97zM922 84q0 41 16 109.5t34.5 158.5t35 201t16.5 238l-10 43q-33 123 -54.5 221t-19.5 178l2 49q29 4 56.5 7t54.5 3q113 0 205 -51t157.5 -140t101 -208t35.5 -256q0 -141 -37.5 -260t-107.5 -206t-169 -136t-224 -49q-49 0 -70.5 19.5t-21.5 78.5z " />
<glyph unicode="&#xf3;" horiz-adv-x="1593" d="M39 543v323q0 12 12 54q25 82 85.5 156.5t137 132t160.5 92t156 34.5q25 0 48.5 -2t41.5 -11t29.5 -25.5t11.5 -47.5q0 -37 -20.5 -107.5t-45 -147t-45 -144.5t-20.5 -98v-174q10 -72 33.5 -151t47 -146.5t42 -114.5t18.5 -55q0 -14 -4 -34t-16.5 -37t-33 -29.5 t-50.5 -12.5q-55 0 -120 26.5t-130.5 71.5t-126 102.5t-107.5 118t-75.5 119t-28.5 107.5zM409 1571q0 25 33 57.5t87 68.5t121 70.5t135.5 62.5t131 44t107.5 16q86 0 123 -32.5t37 -85.5q0 -63 -70 -97q-31 -14 -111 -39.5t-174 -51t-187 -44t-153 -18.5q-43 0 -61.5 10 t-18.5 39zM922 84q0 41 16 109.5t34.5 158.5t35 201t16.5 238l-10 43q-33 123 -54.5 221t-19.5 178l2 49q29 4 56.5 7t54.5 3q113 0 205 -51t157.5 -140t101 -208t35.5 -256q0 -141 -37.5 -260t-107.5 -206t-169 -136t-224 -49q-49 0 -70.5 19.5t-21.5 78.5z" />
<glyph unicode="&#xf4;" horiz-adv-x="1593" d="M39 543v323q0 12 12 54q25 82 85.5 156.5t137 132t160.5 92t156 34.5q25 0 48.5 -2t41.5 -11t29.5 -25.5t11.5 -47.5q0 -37 -20.5 -107.5t-45 -147t-45 -144.5t-20.5 -98v-174q10 -72 33.5 -151t47 -146.5t42 -114.5t18.5 -55q0 -14 -4 -34t-16.5 -37t-33 -29.5 t-50.5 -12.5q-55 0 -120 26.5t-130.5 71.5t-126 102.5t-107.5 118t-75.5 119t-28.5 107.5zM344 1587q0 27 26 58.5t67 63.5t92 61.5t100 52t93 37t73 14.5q37 0 112.5 -29.5t151.5 -75t133.5 -97.5t57.5 -97q0 -27 -39 -55.5t-115 -28.5q-45 0 -89 25.5t-84 55.5t-75 55.5 t-59 25.5q-25 0 -52.5 -25.5t-63.5 -55.5t-83 -55.5t-110 -25.5q-18 0 -42 5t-44.5 16.5t-35 30t-14.5 44.5zM922 84q0 41 16 109.5t34.5 158.5t35 201t16.5 238l-10 43q-33 123 -54.5 221t-19.5 178l2 49q29 4 56.5 7t54.5 3q113 0 205 -51t157.5 -140t101 -208t35.5 -256 q0 -141 -37.5 -260t-107.5 -206t-169 -136t-224 -49q-49 0 -70.5 19.5t-21.5 78.5z" />
<glyph unicode="&#xf5;" horiz-adv-x="1593" d="M39 543v323q0 12 12 54q25 82 85.5 156.5t137 132t160.5 92t156 34.5q25 0 48.5 -2t41.5 -11t29.5 -25.5t11.5 -47.5q0 -37 -20.5 -107.5t-45 -147t-45 -144.5t-20.5 -98v-174q10 -72 33.5 -151t47 -146.5t42 -114.5t18.5 -55q0 -14 -4 -34t-16.5 -37t-33 -29.5 t-50.5 -12.5q-55 0 -120 26.5t-130.5 71.5t-126 102.5t-107.5 118t-75.5 119t-28.5 107.5zM307 1589q0 49 19.5 90t51 70t70.5 45t78 16q72 0 128 -17t102.5 -38.5t86 -39t76.5 -17.5q39 0 56.5 19.5t37 42t52 42t106.5 19.5q45 0 79 -29t34 -88q0 -49 -31 -89t-75 -67.5 t-95 -42t-92 -14.5q-53 0 -103.5 13.5t-98.5 30.5t-96 30.5t-97 13.5q-43 0 -68.5 -15.5t-45 -33t-39 -32.5t-50.5 -15q-86 0 -86 106zM922 84q0 41 16 109.5t34.5 158.5t35 201t16.5 238l-10 43q-33 123 -54.5 221t-19.5 178l2 49q29 4 56.5 7t54.5 3q113 0 205 -51 t157.5 -140t101 -208t35.5 -256q0 -141 -37.5 -260t-107.5 -206t-169 -136t-224 -49q-49 0 -70.5 19.5t-21.5 78.5z" />
<glyph unicode="&#xf6;" horiz-adv-x="1593" d="M39 543v323q0 12 12 54q25 82 85.5 156.5t137 132t160.5 92t156 34.5q25 0 48.5 -2t41.5 -11t29.5 -25.5t11.5 -47.5q0 -37 -20.5 -107.5t-45 -147t-45 -144.5t-20.5 -98v-174q10 -72 33.5 -151t47 -146.5t42 -114.5t18.5 -55q0 -14 -4 -34t-16.5 -37t-33 -29.5 t-50.5 -12.5q-55 0 -120 26.5t-130.5 71.5t-126 102.5t-107.5 118t-75.5 119t-28.5 107.5zM270 1720q0 45 17.5 72t47 39t68.5 15t82 3q45 0 85 -3t71 -15t48 -39t17 -72t-5 -88t-26.5 -76.5t-65.5 -55t-124 -21.5q-78 0 -122 19.5t-64.5 53t-24.5 77.5t-4 91zM880 1720 q0 45 17.5 72t47.5 39t70 15t85 3t84.5 -3t69.5 -15t47.5 -39t17.5 -72t-5.5 -88t-27 -76.5t-65.5 -55t-121 -21.5q-78 0 -122 19.5t-65.5 53t-27 77.5t-5.5 91zM922 84q0 41 16 109.5t34.5 158.5t35 201t16.5 238l-10 43q-33 123 -54.5 221t-19.5 178l2 49q29 4 56.5 7 t54.5 3q113 0 205 -51t157.5 -140t101 -208t35.5 -256q0 -141 -37.5 -260t-107.5 -206t-169 -136t-224 -49q-49 0 -70.5 19.5t-21.5 78.5z" />
<glyph unicode="&#xf7;" horiz-adv-x="1140" d="M90 618q0 178 277 179h360q92 0 153.5 -5.5t100.5 -21.5t55.5 -48t16.5 -87q0 -39 -81 -63.5t-235 -24.5h-329q-47 0 -108.5 -4t-127.5 -4q-82 0 -82 79zM403 266q0 68 49 114t117 46t116 -46t48 -114q0 -66 -48 -111.5t-116 -45.5t-117 46t-49 111zM403 1065 q0 68 49 114t117 46t116 -46t48 -114q0 -66 -48 -111.5t-116 -45.5t-117 46t-49 111z" />
<glyph unicode="&#xf8;" horiz-adv-x="1593" d="M66 543v323q0 16 14 54q25 82 85 156.5t137 132t160 92t154 34.5q25 0 48.5 -2t42 -11t30 -25.5t11.5 -47.5q0 -37 -20.5 -107.5t-45.5 -147t-45.5 -144.5t-20.5 -98v-82q12 -14 21.5 -24.5t15.5 -10.5t15 12q27 45 56.5 84t61 82t67.5 95.5t77 121.5q25 45 29 95.5 t8 107.5l4 49q29 4 55.5 7t54.5 3h25q92 106 164 107q14 0 32.5 -4t35 -12.5t27.5 -17.5t11 -19q0 -31 -13 -63t-38 -66q119 -84 187.5 -237t68.5 -343q0 -141 -38 -260t-108.5 -206t-170 -136t-224.5 -49q-49 0 -69.5 19.5t-20.5 78.5q0 37 12.5 94.5t30 134t33.5 171 t23 200.5q0 18 -6.5 37.5t-22.5 19.5q-14 0 -29 -22l-43 -82q-35 -66 -72.5 -124t-70.5 -108.5t-53.5 -89.5t-20.5 -63q0 -31 13.5 -59.5t13.5 -81.5q0 -14 -4 -34t-16.5 -37t-33 -29.5t-51.5 -12.5q-20 0 -42.5 3t-45.5 13l-12 -18q-27 -39 -58.5 -73t-67.5 -59.5 t-72 -39.5t-68 -14q-66 0 -66 55q0 31 5 48t19.5 39.5t42 60.5t74.5 112q-59 45 -113 98t-95 109.5t-64.5 111t-23.5 99.5z" />
<glyph unicode="&#xf9;" horiz-adv-x="1624" d="M37 1188q0 29 8 66.5t27 84.5h512q70 0 105.5 -33.5t35.5 -66.5q0 -16 -20.5 -58t-45 -88t-45 -84t-20.5 -44v-508q0 -10 20.5 -54.5t46 -98.5t46 -105.5t20.5 -71.5q0 -82 -72 -131h-22q-37 0 -88 17.5t-106.5 45t-110 65.5t-97.5 79t-69.5 83t-26.5 81v501 q0 53 -15.5 101.5t-33.5 89.5t-33.5 73.5t-15.5 55.5zM422 1772q0 53 36.5 85.5t120.5 32.5q45 0 108.5 -16t132.5 -44t136.5 -62.5t120.5 -70.5t87 -69t34 -57q0 -29 -18.5 -39t-63.5 -10q-59 0 -152.5 18.5t-187.5 44t-174 51t-111 39.5q-70 33 -69 97zM915 150 q0 29 29 68.5t63.5 90.5t63.5 111.5t29 132.5v293q0 27 -12.5 65.5t-31 81.5t-41 86t-41 78t-30.5 57l-12 21q0 84 344 84h229q25 -47 25 -98q0 -25 -14.5 -69t-31 -88t-30.5 -80t-14 -42v-551q0 -55 -45 -120.5t-110.5 -123t-140.5 -95.5t-134 -38q-49 0 -72 30t-23 106z " />
<glyph unicode="&#xfa;" horiz-adv-x="1624" d="M37 1188q0 29 8 66.5t27 84.5h512q70 0 105.5 -33.5t35.5 -66.5q0 -16 -20.5 -58t-45 -88t-45 -84t-20.5 -44v-508q0 -10 20.5 -54.5t46 -98.5t46 -105.5t20.5 -71.5q0 -82 -72 -131h-22q-37 0 -88 17.5t-106.5 45t-110 65.5t-97.5 79t-69.5 83t-26.5 81v501 q0 53 -15.5 101.5t-33.5 89.5t-33.5 73.5t-15.5 55.5zM424 1571q0 25 33 57.5t87 68.5t121 70.5t135.5 62.5t131 44t107.5 16q86 0 123 -32.5t37 -85.5q0 -63 -70 -97q-31 -14 -111 -39.5t-174 -51t-187 -44t-153 -18.5q-43 0 -61.5 10t-18.5 39zM915 150q0 29 29 68.5 t63.5 90.5t63.5 111.5t29 132.5v293q0 27 -12.5 65.5t-31 81.5t-41 86t-41 78t-30.5 57l-12 21q0 84 344 84h229q25 -47 25 -98q0 -25 -14.5 -69t-31 -88t-30.5 -80t-14 -42v-551q0 -55 -45 -120.5t-110.5 -123t-140.5 -95.5t-134 -38q-49 0 -72 30t-23 106z" />
<glyph unicode="&#xfb;" horiz-adv-x="1624" d="M37 1188q0 29 8 66.5t27 84.5h512q70 0 105.5 -33.5t35.5 -66.5q0 -16 -20.5 -58t-45 -88t-45 -84t-20.5 -44v-508q0 -10 20.5 -54.5t46 -98.5t46 -105.5t20.5 -71.5q0 -82 -72 -131h-22q-37 0 -88 17.5t-106.5 45t-110 65.5t-97.5 79t-69.5 83t-26.5 81v501 q0 53 -15.5 101.5t-33.5 89.5t-33.5 73.5t-15.5 55.5zM358 1587q0 27 26 58.5t67 63.5t92 61.5t100 52t93 37t73 14.5q37 0 112.5 -29.5t151.5 -75t133.5 -97.5t57.5 -97q0 -27 -39 -55.5t-115 -28.5q-45 0 -89 25.5t-84 55.5t-75 55.5t-59 25.5q-25 0 -52.5 -25.5 t-63.5 -55.5t-83 -55.5t-110 -25.5q-18 0 -42 5t-44.5 16.5t-35 30t-14.5 44.5zM915 150q0 29 29 68.5t63.5 90.5t63.5 111.5t29 132.5v293q0 27 -12.5 65.5t-31 81.5t-41 86t-41 78t-30.5 57l-12 21q0 84 344 84h229q25 -47 25 -98q0 -25 -14.5 -69t-31 -88t-30.5 -80 t-14 -42v-551q0 -55 -45 -120.5t-110.5 -123t-140.5 -95.5t-134 -38q-49 0 -72 30t-23 106z" />
<glyph unicode="&#xfc;" horiz-adv-x="1624" d="M37 1188q0 29 8 66.5t27 84.5h512q70 0 105.5 -33.5t35.5 -66.5q0 -16 -20.5 -58t-45 -88t-45 -84t-20.5 -44v-508q0 -10 20.5 -54.5t46 -98.5t46 -105.5t20.5 -71.5q0 -82 -72 -131h-22q-37 0 -88 17.5t-106.5 45t-110 65.5t-97.5 79t-69.5 83t-26.5 81v501 q0 53 -15.5 101.5t-33.5 89.5t-33.5 73.5t-15.5 55.5zM287 1720q0 45 17.5 72t47 39t68.5 15t82 3q45 0 85 -3t71 -15t48 -39t17 -72t-5 -88t-26.5 -76.5t-65.5 -55t-124 -21.5q-78 0 -122 19.5t-64.5 53t-24.5 77.5t-4 91zM897 1720q0 45 17.5 72t47.5 39t70 15t85 3 t84.5 -3t69.5 -15t47.5 -39t17.5 -72t-5.5 -88t-27 -76.5t-65.5 -55t-121 -21.5q-78 0 -122 19.5t-65.5 53t-27 77.5t-5.5 91zM915 150q0 29 29 68.5t63.5 90.5t63.5 111.5t29 132.5v293q0 27 -12.5 65.5t-31 81.5t-41 86t-41 78t-30.5 57l-12 21q0 84 344 84h229 q25 -47 25 -98q0 -25 -14.5 -69t-31 -88t-30.5 -80t-14 -42v-551q0 -55 -45 -120.5t-110.5 -123t-140.5 -95.5t-134 -38q-49 0 -72 30t-23 106z" />
<glyph unicode="&#xfd;" horiz-adv-x="1597" d="M-20 1159q0 84 98 152h438q10 0 29.5 1t41 3t41 3t31.5 1h44.5t38 -8t26.5 -25.5t10 -54.5q0 -29 -4 -82t-4 -82q0 -41 3 -66.5t15.5 -51t37 -56.5t67.5 -80q43 -47 66.5 -79t35 -55.5t13.5 -45t2 -45.5q0 -6 -1 -28.5t-3 -49.5t-3.5 -53.5t-1.5 -40.5q0 -137 113 -234 q10 -20 10 -53q0 -45 -22.5 -61.5t-93.5 -32.5l-121 -31h-185q-12 0 -37.5 -5t-53 -10t-53.5 -10.5t-38 -5.5q-63 0 -100 62v6q0 14 8 34.5t29 49.5q33 45 51 76.5t27.5 60.5t11.5 58.5t2 70.5q0 168 -123 307l-137 148l-82 82t-60 53q-14 8 -41.5 25.5t-55 41t-49 52 t-21.5 59.5zM411 1571q0 25 33 57.5t87 68.5t121 70.5t135.5 62.5t131 44t107.5 16q86 0 123 -32.5t37 -85.5q0 -63 -70 -97q-31 -14 -111 -39.5t-174 -51t-187 -44t-153 -18.5q-43 0 -61.5 10t-18.5 39zM1016 1223q0 166 139 166q14 0 39 -5.5t37 -5.5h274q43 -29 43 -80 q0 -150 -389 -419q-29 20 -54.5 60t-46 88t-31.5 99.5t-11 96.5z" />
<glyph unicode="&#xfe;" horiz-adv-x="1585" d="M63 1239l19 41q25 33 114 46t210 13h333q6 -23 6 -47q0 -78 -92 -256v-694q0 -6 19.5 -41t43 -76t43 -77t19.5 -48q0 -25 -29.5 -58.5t-80.5 -33.5h-490q-47 0 -72.5 29t-25.5 49q0 14 14.5 45t31.5 62.5t31.5 56t14.5 29.5v682q0 4 -16.5 45t-37 90t-36.5 92t-19 51z M760 938q0 63 49 113h371q70 0 129 -27t102 -75t66.5 -112.5t23.5 -138.5q0 -63 -22.5 -130.5t-62.5 -123t-94 -91.5t-120 -36h-295q-14 0 -31.5 12.5t-34 32t-29.5 41t-19 39.5q4 12 31.5 48t59 77t57.5 79t26 54q-2 16 -20.5 45t-80.5 82q-33 27 -53 44.5t-32.5 28.5 t-16.5 19.5t-4 18.5z" />
<glyph unicode="&#xff;" horiz-adv-x="1597" d="M-20 1159q0 84 98 152h438q10 0 29.5 1t41 3t41 3t31.5 1h44.5t38 -8t26.5 -25.5t10 -54.5q0 -29 -4 -82t-4 -82q0 -41 3 -66.5t15.5 -51t37 -56.5t67.5 -80q43 -47 66.5 -79t35 -55.5t13.5 -45t2 -45.5q0 -6 -1 -28.5t-3 -49.5t-3.5 -53.5t-1.5 -40.5q0 -137 113 -234 q10 -20 10 -53q0 -45 -22.5 -61.5t-93.5 -32.5l-121 -31h-185q-12 0 -37.5 -5t-53 -10t-53.5 -10.5t-38 -5.5q-63 0 -100 62v6q0 14 8 34.5t29 49.5q33 45 51 76.5t27.5 60.5t11.5 58.5t2 70.5q0 168 -123 307l-137 148l-82 82t-60 53q-14 8 -41.5 25.5t-55 41t-49 52 t-21.5 59.5zM272 1720q0 45 17.5 72t47 39t68.5 15t82 3q45 0 85 -3t71 -15t48 -39t17 -72t-5 -88t-26.5 -76.5t-65.5 -55t-124 -21.5q-78 0 -122 19.5t-64.5 53t-24.5 77.5t-4 91zM882 1720q0 45 17.5 72t47.5 39t70 15t85 3t84.5 -3t69.5 -15t47.5 -39t17.5 -72t-5.5 -88 t-27 -76.5t-65.5 -55t-121 -21.5q-78 0 -122 19.5t-65.5 53t-27 77.5t-5.5 91zM1016 1223q0 166 139 166q14 0 39 -5.5t37 -5.5h274q43 -29 43 -80q0 -150 -389 -419q-29 20 -54.5 60t-46 88t-31.5 99.5t-11 96.5z" />
<glyph unicode="&#x152;" horiz-adv-x="2457" d="M29 543v323q0 4 4 17.5t10 36.5q23 78 80 152.5t133 133t161 94t165 35.5q70 0 129 -30q2 -14 2 -27.5v-28.5q0 -37 -20.5 -106.5t-45 -144t-45 -143.5t-20.5 -103v-174q0 -8 8 -50q16 -78 39.5 -149.5t45 -128.5t36 -94t14.5 -45q0 -14 -5 -34t-17.5 -37t-33 -29.5 t-53.5 -12.5q-55 0 -120.5 27.5t-131 71.5t-126 102.5t-107.5 119t-74.5 119t-27.5 105.5zM913 84q0 41 16.5 109.5t36 158.5t36 201t16.5 235q-4 4 -18.5 59.5t-29 128.5t-25.5 146.5t-11 114.5v45l31 6q37 43 84 43h360q-27 -133 -27 -418q0 -37 1 -101t3.5 -142t3.5 -163 t3 -163t3 -141.5t1 -98.5q-16 -18 -41 -43.5t-66 -54.5h-137q0 -2 -45 -11t-104 -9q-49 0 -70 19.5t-21 78.5zM1540 678q0 6 18.5 42t47 78t62.5 74.5t65 32.5q41 0 56 -36.5t15 -145.5q0 -213 -102 -213q-29 0 -58.5 23.5t-52 52t-37 56.5t-14.5 36zM1581 117v16 q20 37 57 52.5t76 21.5t77 10t62 21q27 18 56.5 63t56.5 93t47.5 87t26.5 47h291v-422q0 -39 -74 -100h-600q-35 0 -55.5 36t-20.5 75zM1604 1202q33 131 108 131l567 -2l74 -74v-395q-76 -84 -225 -84q-49 0 -74.5 29t-42 68.5t-32 85t-44.5 79.5q-23 25 -75 52.5t-107 51 t-99 39t-50 19.5z" />
<glyph unicode="&#x153;" horiz-adv-x="2457" d="M29 543v323q0 4 4 17.5t10 36.5q23 78 80 152.5t133 133t161 94t165 35.5q70 0 129 -30q2 -14 2 -27.5v-28.5q0 -37 -20.5 -106.5t-45 -144t-45 -143.5t-20.5 -103v-174q0 -8 8 -50q16 -78 39.5 -149.5t45 -128.5t36 -94t14.5 -45q0 -14 -5 -34t-17.5 -37t-33 -29.5 t-53.5 -12.5q-55 0 -120.5 27.5t-131 71.5t-126 102.5t-107.5 119t-74.5 119t-27.5 105.5zM913 84q0 41 16.5 109.5t36 158.5t36 201t16.5 235q-4 4 -18.5 59.5t-29 128.5t-25.5 146.5t-11 114.5v45l31 6q37 43 84 43h360q-27 -133 -27 -418q0 -37 1 -101t3.5 -142t3.5 -163 t3 -163t3 -141.5t1 -98.5q-16 -18 -41 -43.5t-66 -54.5h-137q0 -2 -45 -11t-104 -9q-49 0 -70 19.5t-21 78.5zM1540 678q0 6 18.5 42t47 78t62.5 74.5t65 32.5q41 0 56 -36.5t15 -145.5q0 -213 -102 -213q-29 0 -58.5 23.5t-52 52t-37 56.5t-14.5 36zM1581 117v16 q20 37 57 52.5t76 21.5t77 10t62 21q27 18 56.5 63t56.5 93t47.5 87t26.5 47h291v-422q0 -39 -74 -100h-600q-35 0 -55.5 36t-20.5 75zM1604 1202q33 131 108 131l567 -2l74 -74v-395q-76 -84 -225 -84q-49 0 -74.5 29t-42 68.5t-32 85t-44.5 79.5q-23 25 -75 52.5t-107 51 t-99 39t-50 19.5z" />
<glyph unicode="&#x178;" horiz-adv-x="1597" d="M-20 1159q0 84 98 152h438q10 0 29.5 1t41 3t41 3t31.5 1h44.5t38 -8t26.5 -25.5t10 -54.5q0 -29 -4 -82t-4 -82q0 -41 3 -66.5t15.5 -51t37 -56.5t67.5 -80q43 -47 66.5 -79t35 -55.5t13.5 -45t2 -45.5q0 -6 -1 -28.5t-3 -49.5t-3.5 -53.5t-1.5 -40.5q0 -137 113 -234 q10 -20 10 -53q0 -45 -22.5 -61.5t-93.5 -32.5l-121 -31h-185q-12 0 -37.5 -5t-53 -10t-53.5 -10.5t-38 -5.5q-63 0 -100 62v6q0 14 8 34.5t29 49.5q33 45 51 76.5t27.5 60.5t11.5 58.5t2 70.5q0 168 -123 307l-137 148l-82 82t-60 53q-14 8 -41.5 25.5t-55 41t-49 52 t-21.5 59.5zM272 1720q0 45 17.5 72t47 39t68.5 15t82 3q45 0 85 -3t71 -15t48 -39t17 -72t-5 -88t-26.5 -76.5t-65.5 -55t-124 -21.5q-78 0 -122 19.5t-64.5 53t-24.5 77.5t-4 91zM882 1720q0 45 17.5 72t47.5 39t70 15t85 3t84.5 -3t69.5 -15t47.5 -39t17.5 -72t-5.5 -88 t-27 -76.5t-65.5 -55t-121 -21.5q-78 0 -122 19.5t-65.5 53t-27 77.5t-5.5 91zM1016 1223q0 166 139 166q14 0 39 -5.5t37 -5.5h274q43 -29 43 -80q0 -150 -389 -419q-29 20 -54.5 60t-46 88t-31.5 99.5t-11 96.5z" />
<glyph unicode="&#x2c6;" horiz-adv-x="1024" d="M59 1587q0 27 26 58.5t67 63.5t92 61.5t100 52t93 37t73 14.5q37 0 112.5 -29.5t151.5 -75t133.5 -97.5t57.5 -97q0 -27 -39 -55.5t-115 -28.5q-45 0 -89 25.5t-84 55.5t-75 55.5t-59 25.5q-25 0 -52.5 -25.5t-63.5 -55.5t-83 -55.5t-110 -25.5q-18 0 -42 5t-44.5 16.5 t-35 30t-14.5 44.5z" />
<glyph unicode="&#x2dc;" horiz-adv-x="1138" d="M84 1589q0 49 19.5 90t51 70t70.5 45t78 16q72 0 128 -17t102.5 -38.5t86 -39t76.5 -17.5q39 0 56.5 19.5t37 42t52 42t106.5 19.5q45 0 79 -29t34 -88q0 -49 -31 -89t-75 -67.5t-95 -42t-92 -14.5q-53 0 -103.5 13.5t-98.5 30.5t-96 30.5t-97 13.5q-43 0 -68.5 -15.5 t-45 -33t-39 -32.5t-50.5 -15q-86 0 -86 106z" />
<glyph unicode="&#x2000;" horiz-adv-x="955" />
<glyph unicode="&#x2001;" horiz-adv-x="1911" />
<glyph unicode="&#x2002;" horiz-adv-x="955" />
<glyph unicode="&#x2003;" horiz-adv-x="1911" />
<glyph unicode="&#x2004;" horiz-adv-x="637" />
<glyph unicode="&#x2005;" horiz-adv-x="477" />
<glyph unicode="&#x2006;" horiz-adv-x="318" />
<glyph unicode="&#x2007;" horiz-adv-x="318" />
<glyph unicode="&#x2008;" horiz-adv-x="238" />
<glyph unicode="&#x2009;" horiz-adv-x="382" />
<glyph unicode="&#x200a;" horiz-adv-x="106" />
<glyph unicode="&#x2010;" horiz-adv-x="888" d="M90 768q0 174 277 174q41 0 127 -6q90 -8 157.5 -12t111.5 -17.5t65.5 -41.5t21.5 -83q0 -66 -170 -82t-508 -16q-82 0 -82 84z" />
<glyph unicode="&#x2011;" horiz-adv-x="888" d="M90 768q0 174 277 174q41 0 127 -6q90 -8 157.5 -12t111.5 -17.5t65.5 -41.5t21.5 -83q0 -66 -170 -82t-508 -16q-82 0 -82 84z" />
<glyph unicode="&#x2012;" horiz-adv-x="888" d="M90 768q0 174 277 174q41 0 127 -6q90 -8 157.5 -12t111.5 -17.5t65.5 -41.5t21.5 -83q0 -66 -170 -82t-508 -16q-82 0 -82 84z" />
<glyph unicode="&#x2013;" horiz-adv-x="1333" d="M66 653q-4 63 61 68l1073 43q61 4 66 -64l2 -45q4 -59 -60 -63l-1077 -43q-61 -2 -63 59z" />
<glyph unicode="&#x2014;" horiz-adv-x="1585" d="M49 653l4 62q4 25 17.5 42t42.5 13l1357 -61q53 -10 54 -60v-14l-4 -49q-4 -33 -21.5 -45.5t-46.5 -12.5l-1346 66q-27 6 -43 19.5t-14 39.5z" />
<glyph unicode="&#x2018;" horiz-adv-x="450" d="M49 1309q0 92 46 151.5t132 59.5q23 0 47.5 -15.5t46 -41t36 -60.5t14.5 -74q0 -16 -17.5 -35.5t-38 -46t-40 -64.5t-21.5 -91q-2 -43 -3 -69t-7 -32q-86 29 -140.5 119t-54.5 199z" />
<glyph unicode="&#x2019;" horiz-adv-x="450" d="M49 1329q0 39 14.5 74t36 60.5t46 41t47.5 15.5q86 0 132 -59.5t46 -151.5q0 -109 -54.5 -199t-140.5 -119q-4 6 -5 32t-3 69q-4 53 -22.5 91t-40 64.5t-39 46t-17.5 35.5z" />
<glyph unicode="&#x201a;" horiz-adv-x="452" d="M59 104q0 37 12.5 70t33 59.5t46 42t50.5 15.5q178 0 178 -209q0 -53 -14.5 -104.5t-40 -93.5t-60.5 -73.5t-78 -43.5q-2 0 -4 25.5t-5 58t-9 64.5t-14 44l-54 70q-41 53 -41 75z" />
<glyph unicode="&#x201c;" horiz-adv-x="899" d="M49 1309q0 92 46 151.5t132 59.5q23 0 47.5 -15.5t46 -41t36 -60.5t14.5 -74q0 -16 -17.5 -35.5t-38 -46t-40 -64.5t-21.5 -91q-2 -43 -3 -69t-7 -32q-86 29 -140.5 119t-54.5 199zM500 1309q0 92 46 151.5t132 59.5q23 0 47.5 -15.5t46 -41t36 -60.5t14.5 -74 q0 -16 -17.5 -35.5t-38 -46t-40 -64.5t-21.5 -91q-2 -43 -3 -69t-7 -32q-86 29 -140.5 119t-54.5 199z" />
<glyph unicode="&#x201d;" horiz-adv-x="899" d="M49 1329q0 39 14.5 74t36 60.5t46 41t47.5 15.5q86 0 132 -59.5t46 -151.5q0 -109 -54.5 -199t-140.5 -119q-4 6 -5 32t-3 69q-4 53 -22.5 91t-40 64.5t-39 46t-17.5 35.5zM500 1329q0 39 14.5 74t36 60.5t46 41t47.5 15.5q86 0 132 -59.5t46 -151.5q0 -109 -54.5 -199 t-140.5 -119q-4 6 -5 32t-3 69q-4 53 -22.5 91t-40 64.5t-39 46t-17.5 35.5z" />
<glyph unicode="&#x201e;" horiz-adv-x="905" d="M59 104q0 37 12.5 70t33 59.5t46 42t50.5 15.5q178 0 178 -209q0 -53 -14.5 -104.5t-40 -93.5t-60.5 -73.5t-78 -43.5q-2 0 -4 25.5t-5 58t-9 64.5t-14 44l-54 70q-41 53 -41 75zM512 104q0 37 12.5 70t33 59.5t46 42t50.5 15.5q178 0 178 -209q0 -53 -14.5 -104.5 t-40 -93.5t-60.5 -73.5t-78 -43.5q-2 0 -4 25.5t-5 58t-9 64.5t-14 44l-54 70q-41 53 -41 75z" />
<glyph unicode="&#x2022;" horiz-adv-x="985" d="M147 655q0 59 27 109.5t72 87.5t105.5 57.5t127.5 20.5q68 0 129.5 -20.5t106.5 -57.5t71.5 -87.5t26.5 -107.5q0 -59 -27.5 -109t-73.5 -87t-106.5 -57.5t-126.5 -20.5t-125 20.5t-105 56.5t-74 86t-28 109z" />
<glyph unicode="&#x2026;" horiz-adv-x="2803" d="M90 137q0 68 49 114t117 46t116 -46t48 -114q0 -66 -48 -111.5t-116 -45.5t-117 46t-49 111zM1212 137q0 68 49 114t117 46t116 -46t48 -114q0 -66 -48 -111.5t-116 -45.5t-117 46t-49 111zM2333 137q0 68 49 114t117 46t116 -46t48 -114q0 -66 -48 -111.5t-116 -45.5 t-117 46t-49 111z" />
<glyph unicode="&#x202f;" horiz-adv-x="382" />
<glyph unicode="&#x2039;" horiz-adv-x="454" d="M82 645q0 33 23.5 83t59.5 96t79 79t82 33q72 0 71 -64q0 -20 -24.5 -50.5t-55 -63.5t-55 -62.5t-24.5 -48.5q0 -23 26.5 -54.5t57 -64t57.5 -62.5t27 -46q0 -53 -64 -53q-29 0 -49.5 12t-52.5 39q-80 63 -119 115.5t-39 111.5z" />
<glyph unicode="&#x203a;" horiz-adv-x="493" d="M82 864q0 33 15.5 50.5t54.5 17.5q37 0 82 -31t84.5 -74t66.5 -90t27 -80q0 -53 -33 -111.5t-111 -125.5q-31 -27 -53 -42.5t-43 -15.5q-31 0 -49.5 10.5t-18.5 39.5q0 16 24 46.5t52.5 64.5t52 67t23.5 55q0 20 -27.5 50t-59.5 60.5t-59.5 60.5t-27.5 48z" />
<glyph unicode="&#x205f;" horiz-adv-x="477" />
<glyph unicode="&#x20ac;" horiz-adv-x="1665" d="M43 754q0 88 190 118q39 100 107 184.5t147.5 146t162.5 95t153 33.5q18 0 32.5 -3t23.5 -17.5t14.5 -42t5.5 -76.5q0 -47 -11.5 -83t-27 -64.5t-30.5 -51t-22 -45.5q-8 -25 -12 -74h60q342 1 342 -110q0 -61 -412 -70v-65h65q14 0 44 1t62 2t60.5 2t40.5 1 q121 0 121 -57q0 -20 -25.5 -39t-68.5 -32t-99.5 -21.5t-115.5 -8.5h-72q16 -92 22.5 -139t6.5 -59v-259q-29 -23 -74 -22q-66 0 -151.5 47t-164.5 119t-137.5 155.5t-66.5 157.5h-57q-25 0 -45.5 11.5t-35 27.5t-22.5 35.5t-8 38.5q0 35 166 41v59h-49q-119 0 -119 64z M1010 150q0 18 12 49.5t30.5 67.5t38 73t33.5 68q29 59 64 101t70.5 67.5t69.5 38t58 12.5q109 0 109 -164q0 -88 -32.5 -169t-86 -142.5t-124 -97.5t-146.5 -36q-41 0 -68.5 26t-27.5 106zM1087 1235q0 16 41 31.5t96.5 28t112 19.5t86.5 7q59 0 99.5 -28.5t40.5 -75.5 v-254q0 -37 -16.5 -68t-40 -52.5t-48 -33.5t-43.5 -12q-51 0 -108.5 45t-106.5 111.5t-81 142t-32 139.5z" />
<glyph unicode="&#x2122;" horiz-adv-x="1214" d="M92 1047v118h432v-118h-149v-482h-129v482h-154zM578 567v600h145l113 -311l114 311h140v-600h-119v328l-131 -332l-144 346v-342h-118z" />
<glyph unicode="&#x25fc;" horiz-adv-x="1351" d="M0 0v1352h1352v-1352h-1352z" />
<glyph unicode="&#xfb01;" horiz-adv-x="2455" d="M4 86q0 16 19.5 57t42 85t42 83t19.5 54v166.5t2 93.5l18 284l-8 23q-8 24 -20.5 60t-27.5 78t-27.5 80t-20.5 66.5t-8 38.5q0 25 12 31q18 0 65.5 11.5t102.5 23.5t109.5 22.5t85.5 10.5t65.5 -10.5t64 -29t49 -45t19.5 -59.5l-24 -733q133 -254 133 -350 q0 -35 -10.5 -57.5t-42 -37t-93 -20.5t-161.5 -6h-342q-63 27 -64 80zM778 700q0 178 117 222q16 -12 34.5 -32t43.5 -44v-262q-49 -49 -99 -49q-96 0 -96 165zM788 1255q8 14 28 36t43.5 41.5t50 32.5t51.5 13h536v-426q-57 -82 -188 -82q-37 0 -60.5 2t-42 14.5t-39 40 t-53.5 79.5q-27 39 -42 64.5t-32.5 40.5t-43 24.5t-68.5 19.5q-45 10 -73 20.5t-42 22.5t-19.5 26.5t-5.5 30.5zM1603 1239l19 41q25 33 114 46t210 13h333q6 -23 6 -47q0 -78 -92 -256v-694q0 -6 19.5 -41t43 -76t43 -77t19.5 -48q0 -25 -29.5 -58.5t-80.5 -33.5h-490 q-47 0 -72.5 29t-25.5 49q0 14 14.5 45t31.5 62.5t31.5 56t14.5 29.5v682q0 4 -16.5 45t-37 90t-36.5 92t-19 51z" />
<glyph unicode="&#xfb02;" horiz-adv-x="2992" d="M4 86q0 16 19.5 57t42 85t42 83t19.5 54v166.5t2 93.5l18 284l-8 23q-8 24 -20.5 60t-27.5 78t-27.5 80t-20.5 66.5t-8 38.5q0 25 12 31q18 0 65.5 11.5t102.5 23.5t109.5 22.5t85.5 10.5t65.5 -10.5t64 -29t49 -45t19.5 -59.5l-24 -733q133 -254 133 -350 q0 -35 -10.5 -57.5t-42 -37t-93 -20.5t-161.5 -6h-342q-63 27 -64 80zM778 700q0 178 117 222q16 -12 34.5 -32t43.5 -44v-262q-49 -49 -99 -49q-96 0 -96 165zM788 1255q8 14 28 36t43.5 41.5t50 32.5t51.5 13h536v-426q-57 -82 -188 -82q-37 0 -60.5 2t-42 14.5t-39 40 t-53.5 79.5q-27 39 -42 64.5t-32.5 40.5t-43 24.5t-68.5 19.5q-45 10 -73 20.5t-42 22.5t-19.5 26.5t-5.5 30.5zM1571 1270q0 10 8 25.5t24.5 28.5t40 22.5t56.5 9.5h364q244 0 244 -70q0 -8 -21.5 -43t-47 -77t-47 -80.5t-21.5 -57.5v-852q0 -16 -13.5 -45t-33 -56.5 t-42 -48t-40.5 -20.5h-246q-213 0 -213 105q0 18 16.5 59t37 83t37 74.5t16.5 37.5v634q0 20 -18.5 60.5t-41 83.5t-41 80t-18.5 47zM2359 147q0 16 37 54l53 51q27 29 43.5 47t26.5 37.5t17.5 47.5t17.5 77q10 37 22.5 63.5t30.5 44t46 24.5t69 7q84 0 153 -33 q27 -41 39 -75.5t12 -63.5v-276q0 -39 -30.5 -83t-71.5 -63h-395q-10 12 -22.5 30.5t-22.5 38t-17.5 39t-7.5 33.5z" />
</font>
</defs>
</svg>
